<svg width="16" height="12" viewBox="0 0 16 12" fill="none" xmlns="http://www.w3.org/2000/svg">
<path d="M2.33411 0.183405C1.51416 0.332834 0.793833 0.972701 0.510299 1.81181C0.441332 2.01105 0.4375 2.21412 0.4375 6.06481C0.4375 9.9155 0.441332 10.1186 0.510299 10.3178C0.721033 10.9385 1.16549 11.4558 1.72106 11.7316C2.29579 12.0152 1.9931 11.9999 8.19636 11.9999C14.3996 11.9999 14.0969 12.0152 14.6716 11.7316C14.9245 11.6052 15.0625 11.5056 15.2847 11.2795C15.6142 10.9424 15.7905 10.6435 15.8977 10.2182C15.9705 9.93466 15.9744 9.7814 15.9744 6.04948C15.9744 2.2486 15.9744 2.16814 15.8939 1.88844C15.779 1.46697 15.6104 1.1796 15.2847 0.850092C14.9322 0.489927 14.5146 0.267698 14.0394 0.183405C13.5988 0.102942 2.7709 0.106774 2.33411 0.183405ZM14.0624 0.991858C14.5605 1.14129 14.936 1.50145 15.1123 2.00721L15.1659 2.15664L12.1313 4.7276C9.74813 6.75065 9.04313 7.32538 8.84772 7.42117C8.61782 7.53229 8.56801 7.53995 8.19636 7.53995C7.8247 7.53995 7.77489 7.53229 7.54499 7.42117C7.34959 7.32538 6.63309 6.73916 4.26137 4.7276L1.2268 2.15664L1.28044 2.00721C1.44902 1.52061 1.82068 1.15278 2.29196 1.00335C2.49503 0.938217 2.83987 0.934385 8.18103 0.934385C13.2846 0.930553 13.8747 0.938217 14.0624 0.991858ZM4.03914 5.56671C5.56792 6.86177 6.91662 7.97674 7.03923 8.04571C7.70209 8.42886 8.50671 8.45569 9.21171 8.11851C9.51824 7.97291 9.4416 8.03805 12.8095 5.18356C14.0893 4.09923 15.1544 3.20265 15.1736 3.19882C15.2234 3.17966 15.2196 9.63197 15.1697 9.89634C15.0548 10.4941 14.6333 10.9692 14.0624 11.1378C13.8747 11.1914 13.2846 11.1991 8.19636 11.1991C3.14256 11.1991 2.51802 11.1914 2.33028 11.1378C1.77087 10.973 1.33408 10.4864 1.22296 9.89634C1.17315 9.62813 1.16932 3.17966 1.22296 3.19882C1.24212 3.20265 2.51036 4.27165 4.03914 5.56671Z" fill="white"/>
</svg>
