<svg width="15" height="10" viewBox="0 0 15 10" fill="none" xmlns="http://www.w3.org/2000/svg">
<path d="M2.78202 0.0200071C1.16566 0.14798 0.389482 0.634832 0.127973 1.692C0.00556403 2.18442 0 2.33464 0 4.76056C0 7.2449 0.00834605 7.38957 0.153011 7.95988C0.484071 9.24795 1.32146 9.8294 3.06022 9.97684C3.3106 9.9991 4.65431 10.0047 7.41407 9.99632C11.6539 9.98519 11.5481 9.98797 12.1574 9.85443C13.2174 9.62353 13.8183 9.03374 14.0631 7.99048C14.2022 7.38957 14.2105 7.25047 14.2217 5.10831C14.2384 2.50991 14.2022 1.95907 13.9768 1.38041C13.6764 0.598666 13.0894 0.242569 11.7957 0.0533915C11.5259 0.0116615 10.9945 0.00609684 7.28888 0.000533104C4.97981 -0.00224876 2.95172 0.00609684 2.78202 0.0200071ZM6.03419 2.94112C6.16216 2.97729 9.05268 4.47123 9.189 4.57139C9.41434 4.74109 9.42825 5.06937 9.21682 5.26689C9.18343 5.30027 8.46567 5.68697 7.62272 6.12653C6.31796 6.80813 6.07314 6.92775 5.95351 6.9361C5.76434 6.95001 5.61411 6.86377 5.53065 6.69406L5.46666 6.57165V4.96087C5.46666 3.83137 5.47501 3.3167 5.49726 3.24158C5.53621 3.11083 5.64749 3.00233 5.78937 2.95225C5.92291 2.90496 5.90344 2.90496 6.03419 2.94112Z" fill="white"/>
</svg>
