<svg width="22" height="16" viewBox="0 0 22 16" fill="none" xmlns="http://www.w3.org/2000/svg">
<path d="M1.52816 0.070899C0.799474 0.245784 0.199868 0.857882 0.0499671 1.57824C-0.0166557 1.89054 -0.0166557 14.1075 0.0499671 14.4198C0.204032 15.1651 0.81613 15.7731 1.57396 15.9313C1.99868 16.0229 19.3289 16.0229 19.7537 15.9313C20.5115 15.7731 21.1236 15.1651 21.2777 14.4198C21.3443 14.1075 21.3443 1.89054 21.2777 1.57824C21.1278 0.849553 20.5282 0.245784 19.7787 0.0667353C19.3872 -0.0248718 1.91124 -0.0207062 1.52816 0.070899ZM19.6412 1.33257C19.737 1.37421 19.8661 1.48247 19.9327 1.56991C20.0326 1.69899 20.0535 1.76562 20.0535 1.96132C20.0535 2.11539 20.0285 2.23198 19.9785 2.30693C19.8911 2.44434 11.0969 8.31964 10.8595 8.40292C10.7596 8.43623 10.6388 8.44872 10.5472 8.43206C10.3682 8.39875 1.46154 2.47765 1.3616 2.32358C1.13259 1.97798 1.28665 1.51162 1.69055 1.33257C1.84878 1.25762 2.20688 1.25345 10.6638 1.25345C19.1749 1.25345 19.4747 1.25762 19.6412 1.33257ZM5.49222 6.63325C7.79903 8.16974 9.78106 9.47305 9.89349 9.52301C10.389 9.74786 10.9803 9.73954 11.4841 9.50219C11.6174 9.43973 13.5786 8.14892 15.8479 6.63741C18.1172 5.13007 19.9952 3.87673 20.0243 3.86007C20.066 3.83509 20.0743 4.85525 20.066 9.05249L20.0535 14.2741L19.9327 14.4281C19.8661 14.5156 19.737 14.6238 19.6412 14.6655C19.4747 14.7404 19.1749 14.7446 10.6638 14.7446C2.15275 14.7446 1.85295 14.7404 1.68639 14.6655C1.59062 14.6238 1.46154 14.5156 1.39492 14.4281L1.27416 14.2741L1.26167 9.05249C1.25751 6.18354 1.26167 3.83509 1.27416 3.83509C1.28665 3.83509 3.18124 5.09259 5.49222 6.63325Z" fill="white"/>
</svg>
