<svg width="20" height="21" viewBox="0 0 20 21" fill="none" xmlns="http://www.w3.org/2000/svg">
<path d="M3.59723 0.063139C3.28024 0.145321 2.95543 0.325336 2.62279 0.611013C2.25494 0.927999 0.936122 2.27029 0.720886 2.54814C-0.151801 3.66346 -0.167455 5.39709 0.677838 7.63555C1.70706 10.371 3.63636 13.1417 6.07832 15.3919C9.44384 18.4952 13.9521 20.5028 16.2727 19.9393C16.6171 19.8571 17.1884 19.591 17.4506 19.3914C17.7167 19.1918 19.4856 17.376 19.65 17.1373C19.9552 16.6951 20.0726 16.1041 19.9552 15.6032C19.8222 15.0436 19.7791 14.9927 18.0768 13.2865C16.3588 11.5685 16.304 11.5255 15.7366 11.4081C15.2865 11.3141 14.8287 11.3963 14.3865 11.6507C14.2847 11.7133 13.7994 12.1555 13.3103 12.6408L12.4219 13.5174L12.1363 13.3687C11.4358 13.0047 10.9192 12.6564 10.1482 12.0225C9.35774 11.3728 8.25417 10.234 7.64368 9.43571C7.20146 8.85653 6.55184 7.78818 6.54793 7.64338C6.54793 7.61599 6.85317 7.29509 7.22494 6.93114C8.00762 6.16803 8.31678 5.81191 8.49288 5.47536C8.71203 5.0488 8.75508 4.50875 8.60246 4.06263C8.44984 3.60867 8.30113 3.43648 6.80621 1.93765C5.32695 0.458391 5.09997 0.262722 4.67733 0.117928C4.38382 0.0122662 3.89856 -0.0112152 3.59723 0.063139ZM4.50514 1.1628C4.61471 1.22542 5.24085 1.81634 6.08223 2.66163C7.60454 4.18786 7.66324 4.2583 7.65933 4.66138C7.65933 5.01749 7.56541 5.14272 6.54401 6.16412C6.02745 6.67677 5.57741 7.15029 5.5461 7.21682C5.49914 7.299 5.4874 7.41249 5.49914 7.60425C5.51088 7.83905 5.54219 7.92906 5.7809 8.40258C6.32095 9.47485 7.03319 10.418 8.21112 11.6233C9.38122 12.8208 10.5474 13.7131 11.7488 14.3314C12.1754 14.5505 12.2576 14.5818 12.4532 14.5779C12.5863 14.5779 12.7272 14.5505 12.8094 14.5075C12.8837 14.4683 13.369 14.0144 13.8855 13.5017C14.5508 12.8404 14.8756 12.5469 15.0009 12.4921C15.2357 12.3864 15.5409 12.3864 15.7561 12.4921C15.9909 12.6095 18.7577 15.3723 18.879 15.615C18.9456 15.7441 18.9729 15.8615 18.9729 16.0298C18.9729 16.4329 18.8908 16.5424 17.7794 17.6578C16.6797 18.7613 16.578 18.8357 15.9909 18.9687C15.4235 19.094 14.4725 18.9922 13.5099 18.7065C12.0423 18.2722 10.07 17.2312 8.44592 16.0337C5.31912 13.7326 2.63453 10.2145 1.51922 6.96245C0.986996 5.41666 0.928295 4.30917 1.33529 3.48736C1.46052 3.22516 1.57792 3.09211 2.3919 2.26638C2.89282 1.75764 3.37417 1.29586 3.45635 1.23716C3.80855 0.994526 4.16858 0.967133 4.50514 1.1628Z" fill="white"/>
</svg>
