<svg width="12" height="12" viewBox="0 0 12 12" fill="none" xmlns="http://www.w3.org/2000/svg">
<path d="M2.1215 0.0349979C1.93166 0.0842171 1.73712 0.192029 1.53791 0.363123C1.31759 0.552967 0.527749 1.35687 0.398843 1.52328C-0.123813 2.19125 -0.133188 3.22953 0.373062 4.57015C0.989468 6.20844 2.14494 7.86781 3.60744 9.21547C5.62306 11.0741 8.32306 12.2764 9.7129 11.9389C9.91915 11.8897 10.2613 11.7303 10.4184 11.6108C10.5777 11.4912 11.6371 10.4037 11.7356 10.2608C11.9184 9.99594 11.9887 9.64203 11.9184 9.34203C11.8387 9.00687 11.8129 8.9764 10.7934 7.95453C9.76447 6.92562 9.73166 6.89984 9.39181 6.82953C9.12228 6.77328 8.84806 6.8225 8.58322 6.97484C8.52228 7.01234 8.23166 7.27719 7.93869 7.56781L7.40666 8.09281L7.23556 8.00375C6.81603 7.78578 6.50666 7.57719 6.04494 7.1975C5.5715 6.80844 4.91056 6.1264 4.54494 5.64828C4.28009 5.3014 3.89103 4.66156 3.88869 4.57484C3.88869 4.55844 4.0715 4.36625 4.29416 4.14828C4.76291 3.69125 4.94806 3.47797 5.05353 3.2764C5.18478 3.02094 5.21056 2.6975 5.11916 2.43031C5.02775 2.15844 4.93869 2.05531 4.04337 1.15765C3.15744 0.271717 3.0215 0.15453 2.76837 0.0678101C2.59259 0.004529 2.30197 -0.00953388 2.1215 0.0349979ZM2.66525 0.693592C2.73087 0.731091 3.10587 1.085 3.60978 1.59125C4.5215 2.50531 4.55666 2.5475 4.55431 2.7889C4.55431 3.00219 4.49806 3.07719 3.88634 3.6889C3.57697 3.99594 3.30744 4.27953 3.28869 4.31937C3.26056 4.36859 3.25353 4.43656 3.26056 4.5514C3.26759 4.69203 3.28634 4.74594 3.42931 5.02953C3.75275 5.67172 4.17931 6.23656 4.88478 6.95844C5.58556 7.67562 6.284 8.21 7.00353 8.58031C7.259 8.71156 7.30822 8.73031 7.42541 8.72797C7.50509 8.72797 7.58947 8.71156 7.63869 8.68578C7.68322 8.66234 7.97384 8.39047 8.28322 8.08344C8.68165 7.68734 8.87619 7.51156 8.95119 7.47875C9.09181 7.41547 9.27462 7.41547 9.40353 7.47875C9.54416 7.54906 11.2012 9.20375 11.2738 9.34906C11.3137 9.4264 11.3301 9.49672 11.3301 9.5975C11.3301 9.8389 11.2809 9.90453 10.6152 10.5725C9.95665 11.2334 9.89572 11.278 9.54416 11.3577C9.20431 11.4327 8.63478 11.3717 8.05822 11.2006C7.17931 10.9405 5.99806 10.317 5.02541 9.59984C3.15275 8.22172 1.54494 6.11469 0.876968 4.16703C0.558218 3.24125 0.523062 2.57797 0.766812 2.08578C0.841812 1.92875 0.912124 1.84906 1.39962 1.35453C1.69962 1.04984 1.98791 0.773279 2.03712 0.738123C2.24806 0.592811 2.46369 0.576405 2.66525 0.693592Z" fill="white"/>
</svg>
