<svg width="12" height="12" viewBox="0 0 12 12" fill="none" xmlns="http://www.w3.org/2000/svg">
<path d="M0.0398438 0.0632811C0.0632813 0.10078 1.08984 1.59375 2.32031 3.38672C3.55078 5.17969 4.55859 6.65625 4.55859 6.66797C4.55859 6.68203 3.54844 7.86797 2.31094 9.30703C1.07578 10.7437 0.0492188 11.9391 0.0304688 11.9602C0 11.9977 0.0328125 12 0.513281 12H1.02891L3.01875 9.68672C4.11328 8.41641 5.02031 7.37109 5.03203 7.36875C5.04609 7.36406 5.77266 8.40469 6.64688 9.67969L8.23828 12H9.98203C11.6344 12 11.7234 11.9977 11.7023 11.9578C11.6906 11.9367 10.6242 10.3828 9.33516 8.50781C8.04609 6.63281 6.98906 5.09297 6.98906 5.08594C6.98906 5.07656 7.96875 3.93281 9.16641 2.54297L11.3414 0.0117188L10.8375 0.00468731C10.4227 0 10.3266 0.00468731 10.2961 0.0328121C10.275 0.0515623 9.41953 1.04297 8.39531 2.23359C7.37109 3.42656 6.525 4.39687 6.51563 4.39219C6.50625 4.38516 5.82188 3.39609 4.99453 2.19141L3.48984 0H1.74375H0L0.0398438 0.0632811ZM6.6375 5.99062C8.64141 8.85937 10.2867 11.2148 10.2891 11.2289C10.2961 11.243 10.0125 11.2477 9.50625 11.2453L8.71406 11.2383L5.0625 6.01641C3.05391 3.14297 1.41094 0.787499 1.41094 0.782812C1.41094 0.778125 1.76719 0.773438 2.20312 0.773438L2.99297 0.775781L6.6375 5.99062Z" fill="white"/>
</svg>
