<svg width="12" height="12" viewBox="0 0 12 12" fill="none" xmlns="http://www.w3.org/2000/svg">
<path d="M1.14897 0.0341046C0.75089 0.110209 0.323537 0.443895 0.142059 0.824415C0.00741312 1.11127 -0.0335659 1.42154 0.0279026 1.70546C0.0952254 2.00695 0.203527 2.22356 0.387933 2.4226C1.28362 3.38561 2.86131 2.76507 2.86131 1.44788C2.86131 0.52878 2.05051 -0.138593 1.14897 0.0341046Z" fill="white"/>
<path d="M8.39351 3.86273C8.25594 3.892 8.08031 3.93883 7.99835 3.96518C7.50953 4.13495 7.01778 4.50961 6.75435 4.92233L6.63726 5.09796L6.63141 4.54767L6.62263 3.99445L5.43131 3.98567L4.23706 3.97981V7.98991V12H5.48107H6.72507V9.85445C6.72507 7.71769 6.73971 7.36937 6.83045 7.00934C6.93875 6.58784 7.19633 6.25122 7.52124 6.10194C7.85493 5.94973 8.39058 5.93217 8.72719 6.05804C9.0521 6.18097 9.29505 6.48246 9.40042 6.89518C9.48823 7.23765 9.5058 7.71183 9.5058 9.83982V11.9707H10.7498H11.9938V9.63492C11.9938 7.22009 11.9762 6.68736 11.8738 6.11658C11.6338 4.75549 10.943 4.03543 9.6902 3.84809C9.29505 3.78955 8.70671 3.79541 8.39351 3.86273Z" fill="white"/>
<path d="M0.197754 7.98991V12H1.44176H2.68577V7.98991V3.97981H1.44176H0.197754V7.98991Z" fill="white"/>
</svg>
