<svg width="74" height="74" viewBox="0 0 74 74" fill="none" xmlns="http://www.w3.org/2000/svg">
<path d="M36.3676 0.26738C36.1448 0.505051 36.1151 1.23291 36.0854 6.6696L36.0408 12.8044L35.3872 13.057C34.9119 13.2204 33.1145 14.6909 28.985 18.2708C25.821 21.004 23.0581 23.4847 22.8502 23.7818C22.152 24.7473 22.0035 25.7129 22.0035 29.4413V32.8281H12.5858C6.27273 32.8281 3.01963 32.8875 2.7374 32.9915C1.8907 33.3034 1.07371 34.4621 1.05886 35.3533C1.05886 36.8536 2.32148 38.1311 3.85148 38.1608L4.32681 38.1757L4.29711 55.1393L4.25254 72.1178L2.61857 72.1624C1.16284 72.1921 0.954879 72.2367 0.71721 72.504C0.390415 72.92 0.390415 73.3062 0.761773 73.6775C1.05886 73.9746 1.25197 73.9746 37.0064 73.9746C72.7607 73.9746 72.9539 73.9746 73.2509 73.6775C73.6074 73.321 73.6223 72.9645 73.3104 72.5189C73.1024 72.2069 72.9687 72.1921 71.3793 72.1921H69.6859V55.1839V38.1757L70.1761 38.1608C71.6912 38.1311 72.9539 36.8536 72.9539 35.3533C72.939 34.4621 72.122 33.3034 71.2753 32.9915C70.9931 32.8875 67.7548 32.8281 61.4417 32.8281H52.0389L51.9795 29.0699C51.935 25.4009 51.935 25.3118 51.5488 24.5097C51.3408 24.064 50.9694 23.4996 50.7318 23.2619C49.6177 22.1478 39.6059 13.562 39.1008 13.2798C38.7889 13.1015 38.3878 12.9233 38.2096 12.8787C37.9125 12.8044 37.8976 12.7302 37.8976 10.0415V7.27863H41.5369C45.607 7.27863 45.9932 7.20435 46.5131 6.35766C46.7805 5.92688 46.8102 5.61494 46.8102 3.66902C46.8102 1.2032 46.6914 0.787285 45.8744 0.297089C45.4288 0.0148544 45.102 0 41.0022 0C36.9469 0 36.5904 0.0148544 36.3676 0.26738ZM45.0277 3.63931V5.49611H41.4627H37.8976V3.63931V1.78252H41.4627H45.0277V3.63931ZM37.9422 14.6909C38.4769 14.8989 49.4543 24.4502 49.7959 24.9999C50.0633 25.4603 50.0782 26.0099 50.0782 48.8262V72.1921H47.4044H44.7306V64.1262C44.7306 55.1542 44.7455 55.2433 43.7354 54.0847C43.4531 53.743 42.8738 53.2825 42.443 53.0597L41.6855 52.6586L37.3183 52.6141C32.1044 52.5547 31.7628 52.6289 30.5299 53.847C29.2524 55.1245 29.2821 54.8422 29.2821 64.1262V72.1921H26.6083H23.9345V48.8262C23.9345 26.2031 23.9494 25.4603 24.2168 25.0147C24.5139 24.5245 35.2833 15.1069 35.9368 14.7652C36.3973 14.5275 37.4074 14.4978 37.9422 14.6909ZM22.0035 35.5019V36.3931H12.7938H3.56924L3.21274 36.0218C2.78196 35.6059 2.75225 35.3979 3.07905 34.9374L3.30186 34.6106H12.6601H22.0035V35.5019ZM70.9337 34.9374C71.2605 35.3979 71.2308 35.6059 70.8 36.0218L70.4435 36.3931H61.2189H52.0092V35.5019V34.6106H61.3526H70.7109L70.9337 34.9374ZM22.0035 55.1839V72.1921H14.0564H6.10933V55.1839V38.1757H14.0564H22.0035V55.1839ZM67.9034 55.1839V72.1921H59.9563H52.0092V55.1839V38.1757H59.9563H67.9034V55.1839ZM35.9666 63.2795V72.1921H33.5156H31.0646L31.0943 64.0519L31.1389 55.9266L31.4954 55.4215C32.0599 54.6491 32.8174 54.3669 34.5257 54.3669H35.9666V63.2795ZM41.6112 54.6937C42.0568 54.9165 42.3985 55.2433 42.6064 55.6295L42.9481 56.2237V64.2005V72.1921H40.4229H37.8976V63.2795V54.3669H39.4276C40.7199 54.3669 41.0616 54.4263 41.6112 54.6937Z" fill="#990000"/>
<path d="M35.001 22.6974C30.6784 24.3017 29.4603 29.6789 32.7134 32.8429C35.6694 35.7247 40.6308 34.8483 42.3687 31.1198C43.8245 28.0301 42.5767 24.4502 39.5464 22.9945C38.6997 22.5786 38.3729 22.5192 37.1549 22.4746C36.0556 22.43 35.5803 22.4894 35.001 22.6974ZM38.4323 24.4651C38.9077 24.6285 39.4127 24.9701 39.9178 25.4603C40.809 26.3516 41.1655 27.2577 41.1655 28.5797C41.1655 30.5256 39.8881 32.1151 37.8976 32.6201C37.036 32.8429 36.8726 32.8429 35.9962 32.6201C33.8126 32.0853 32.5797 30.4068 32.7283 28.1638C32.8174 26.8715 33.2333 26.0248 34.1988 25.1929C35.3129 24.2423 36.9469 23.96 38.4323 24.4651Z" fill="#990000"/>
<path d="M35.9666 25.6979C35.6992 25.9652 35.6695 26.1881 35.6695 27.7032C35.6695 29.9313 35.7289 30.0056 37.5263 30.0056C38.5958 30.0056 38.8335 29.9611 39.086 29.7085C39.7396 29.0549 39.2791 28.2677 38.2244 28.1934L37.5263 28.1488L37.4817 27.0347C37.4372 25.8167 37.2143 25.4008 36.6053 25.4008C36.4271 25.4008 36.13 25.5345 35.9666 25.6979Z" fill="#990000"/>
<path d="M29.0147 39.3937C28.6285 39.5868 28.4354 40.1958 28.6433 40.5375C29.0147 41.1316 29.2524 41.1465 37.0063 41.1465C44.7603 41.1465 44.998 41.1316 45.3693 40.5375C45.5921 40.181 45.3842 39.5868 44.9534 39.3937C44.4335 39.156 29.5049 39.156 29.0147 39.3937Z" fill="#990000"/>
<path d="M28.8364 45.9001C28.465 46.2714 28.4502 46.821 28.8067 47.133C29.0592 47.3558 29.8465 47.3855 37.0508 47.3855H45.0128L45.2356 47.0587C45.5475 46.6131 45.5327 46.2566 45.1762 45.9001C44.8939 45.6178 44.686 45.603 37.0063 45.603C29.3266 45.603 29.1186 45.6178 28.8364 45.9001Z" fill="#990000"/>
<path d="M11.3083 44.7411C10.8775 44.964 10.521 45.2907 10.2982 45.677C9.98623 46.2414 9.97137 46.4048 10.0011 48.6775C10.0456 51.3365 10.1199 51.5444 11.1597 52.2426C11.6202 52.5694 11.7985 52.5842 14.0563 52.5842C16.3142 52.5842 16.4924 52.5694 16.9529 52.2426C18.0224 51.5296 18.067 51.3662 18.067 48.529C18.067 46.0632 18.0521 45.9592 17.7105 45.469C17.1015 44.6074 16.433 44.4143 14.0563 44.4143C12.1847 44.4143 11.9024 44.4441 11.3083 44.7411ZM16.1211 46.4345C16.3142 46.6128 16.3587 47.0287 16.3587 48.5587C16.3587 49.8213 16.2993 50.5046 16.1805 50.6235C15.928 50.876 12.1847 50.876 11.9321 50.6235C11.8133 50.5046 11.7539 49.8213 11.7539 48.5587C11.7539 47.0287 11.7985 46.6128 11.9916 46.4345C12.3332 46.0929 15.7794 46.0929 16.1211 46.4345Z" fill="#990000"/>
<path d="M11.6797 57.7981C11.1004 57.9763 10.6696 58.3477 10.2834 58.9864C10.0011 59.4321 9.97144 59.7292 9.97144 61.7642C9.97144 64.23 10.0457 64.5123 10.8181 65.2253C11.4569 65.8194 12.0659 65.9531 14.0564 65.9531C16.0469 65.9531 16.6559 65.8194 17.2946 65.2253C18.067 64.5271 18.1413 64.23 18.1413 61.7791C18.1413 59.7292 18.1116 59.4766 17.8145 58.9419C17.2204 57.8872 16.745 57.709 14.2792 57.6793C13.0908 57.6644 11.9322 57.709 11.6797 57.7981ZM16.032 59.6549C16.3439 59.8628 16.3588 59.9817 16.3588 61.7939C16.3588 64.2449 16.3885 64.2152 13.9375 64.1409C12.7789 64.1112 12.1699 64.0369 12.0065 63.8884C11.7985 63.725 11.754 63.3685 11.754 61.7791C11.754 59.3727 11.7094 59.4172 14.0564 59.4172C15.3041 59.4172 15.7795 59.4766 16.032 59.6549Z" fill="#990000"/>
<path d="M57.2677 44.6966C56.926 44.8451 56.4952 45.2016 56.3021 45.469C55.9605 45.9592 55.9456 46.0632 55.9456 48.529C55.9456 51.3662 55.9902 51.5296 57.0597 52.2426C57.5202 52.5694 57.6984 52.5842 59.9563 52.5842C62.2141 52.5842 62.3924 52.5694 62.8529 52.2426C63.8927 51.5444 63.967 51.3365 64.0115 48.6775C64.0412 46.4048 64.0264 46.2414 63.7144 45.677C63.4916 45.2907 63.1351 44.964 62.7043 44.7411C62.1102 44.4441 61.8279 44.4143 59.9563 44.4143C58.248 44.4143 57.7727 44.4738 57.2677 44.6966ZM62.021 46.4345C62.2141 46.6128 62.2587 47.0287 62.2587 48.5587C62.2587 49.8213 62.1993 50.5046 62.0805 50.6235C61.8279 50.876 58.0846 50.876 57.8321 50.6235C57.7133 50.5046 57.6539 49.8213 57.6539 48.5587C57.6539 47.0287 57.6984 46.6128 57.8915 46.4345C58.2332 46.0929 61.6794 46.0929 62.021 46.4345Z" fill="#990000"/>
<path d="M57.6391 57.7684C56.9855 57.9763 56.5398 58.3477 56.1982 58.9567C55.9011 59.4766 55.8714 59.744 55.8714 61.7791C55.8714 64.23 55.9457 64.5271 56.7181 65.2253C57.3568 65.8194 57.9659 65.9531 59.9563 65.9531C61.9468 65.9531 62.5559 65.8194 63.2094 65.2253C63.9225 64.5717 64.0413 64.0963 64.0413 61.7048C64.0413 59.239 63.8927 58.7636 62.8975 58.0803C62.3925 57.7238 62.2291 57.709 60.194 57.6793C59.0057 57.6644 57.847 57.709 57.6391 57.7684ZM61.932 59.6549C62.2439 59.8628 62.2588 59.9817 62.2588 61.7791C62.2588 63.3685 62.2142 63.725 62.0062 63.8884C61.8428 64.0369 61.2338 64.1112 60.0752 64.1409C57.6242 64.2152 57.6539 64.2449 57.6539 61.7939C57.6539 59.3727 57.6094 59.4172 59.9563 59.4172C61.2041 59.4172 61.6794 59.4766 61.932 59.6549Z" fill="#990000"/>
</svg>
