<svg width="193" height="50" viewBox="0 0 193 50" fill="none" xmlns="http://www.w3.org/2000/svg">
<path fill-rule="evenodd" clip-rule="evenodd" d="M48.235 11.0901C51.1979 11.0901 53.6155 13.5088 53.6155 16.4966V39.1896C53.6155 42.1774 51.1979 44.5961 48.235 44.5961H43.7078V48.3664C43.7078 48.9355 43.3997 49.4572 42.9019 49.7418C42.4041 50.0026 41.8116 50.0026 41.3138 49.6943L33.0179 44.5961H17.8481C15.6438 44.5961 13.7476 43.2445 12.918 41.3475L8.93592 44.9755C8.46187 45.3786 7.79819 45.4972 7.22933 45.2363C6.66046 44.9992 6.30492 44.4301 6.30492 43.8136V37.4823H5.38052C2.41768 37.4823 0 35.0636 0 32.0995V9.38278C0 6.41869 2.41768 4 5.38052 4H32.8994C35.8859 4 38.3036 6.41869 38.3036 9.38278V11.0901H48.235ZM9.43368 35.9173V40.2567L15.4779 34.7553C15.7623 34.4945 16.1415 34.3522 16.5445 34.3522H32.8994C34.1556 34.3522 35.1511 33.3326 35.1511 32.0995V9.38278C35.1511 8.14972 34.1556 7.13007 32.8994 7.13007H5.38052C4.14797 7.13007 3.12876 8.14972 3.12876 9.38278V32.0995C3.12876 33.3326 4.14797 34.3522 5.38052 34.3522H7.8693C8.7463 34.3522 9.43368 35.0399 9.43368 35.9173ZM50.4868 16.4966C50.4868 15.2635 49.4676 14.2439 48.235 14.2439H38.3036V32.0995C38.3036 35.0636 35.8859 37.4823 32.8994 37.4823H17.1371L15.6201 38.8813V39.1896C15.6201 40.4464 16.6156 41.4423 17.8481 41.4423H33.4682C33.7764 41.4423 34.0608 41.5372 34.2978 41.6794L40.579 45.5446V43.0311C40.579 42.1537 41.2664 41.4423 42.1434 41.4423H48.235C49.4676 41.4423 50.4868 40.4464 50.4868 39.1896V16.4966Z" fill="#60779A"/>
<path fill-rule="evenodd" clip-rule="evenodd" d="M16.7815 29.0406H9.29148C8.43818 29.0406 7.7271 28.3529 7.7271 27.4755V12.4891C7.7271 11.6118 8.43818 10.9004 9.29148 10.9004H16.7815C17.7296 10.9004 18.5829 11.2324 19.2703 11.754C19.9577 11.2324 20.811 10.9004 21.7591 10.9004H29.2492C30.1262 10.9004 30.8135 11.6118 30.8135 12.4891V27.4755C30.8135 28.3529 30.1262 29.0406 29.2492 29.0406H21.7591C21.2613 29.0406 20.8347 29.4674 20.8347 29.9654V30.1788C20.7636 32.2418 17.7771 32.2655 17.7059 30.1788V29.9654C17.7059 29.4674 17.2793 29.0406 16.7815 29.0406ZM20.8347 14.9553V26.0054C21.1349 25.9421 21.4431 25.9105 21.7591 25.9105H27.6848V14.0542H21.7591C21.2613 14.0542 20.8347 14.481 20.8347 14.9553ZM10.8559 14.0542V25.9105H16.7815C17.0976 25.9105 17.4057 25.9421 17.7059 26.0054V14.9553C17.7059 14.481 17.2793 14.0542 16.7815 14.0542H10.8559Z" fill="#990000"/>
<path d="M85.7266 6V22H83.1484L75.6094 11.1016H75.4766V22H72.5781V6H75.1719L82.7031 16.9062H82.8438V6H85.7266ZM93.9941 22.2344C92.8223 22.2344 91.8066 21.9766 90.9473 21.4609C90.0879 20.9453 89.4212 20.224 88.9473 19.2969C88.4785 18.3698 88.2441 17.2865 88.2441 16.0469C88.2441 14.8073 88.4785 13.7214 88.9473 12.7891C89.4212 11.8568 90.0879 11.1328 90.9473 10.6172C91.8066 10.1016 92.8223 9.84375 93.9941 9.84375C95.166 9.84375 96.1816 10.1016 97.041 10.6172C97.9004 11.1328 98.5645 11.8568 99.0332 12.7891C99.5072 13.7214 99.7441 14.8073 99.7441 16.0469C99.7441 17.2865 99.5072 18.3698 99.0332 19.2969C98.5645 20.224 97.9004 20.9453 97.041 21.4609C96.1816 21.9766 95.166 22.2344 93.9941 22.2344ZM94.0098 19.9687C94.6452 19.9687 95.1764 19.7943 95.6035 19.4453C96.0306 19.0911 96.3483 18.6172 96.5566 18.0234C96.7702 17.4297 96.877 16.7682 96.877 16.0391C96.877 15.3047 96.7702 14.6406 96.5566 14.0469C96.3483 13.4479 96.0306 12.9714 95.6035 12.6172C95.1764 12.263 94.6452 12.0859 94.0098 12.0859C93.3587 12.0859 92.8171 12.263 92.3848 12.6172C91.9577 12.9714 91.6374 13.4479 91.4238 14.0469C91.2155 14.6406 91.1113 15.3047 91.1113 16.0391C91.1113 16.7682 91.2155 17.4297 91.4238 18.0234C91.6374 18.6172 91.9577 19.0911 92.3848 19.4453C92.8171 19.7943 93.3587 19.9687 94.0098 19.9687ZM102.27 22V6H105.098V11.9844H105.215C105.361 11.6927 105.566 11.3828 105.832 11.0547C106.098 10.7214 106.457 10.4375 106.91 10.2031C107.363 9.96354 107.941 9.84375 108.645 9.84375C109.572 9.84375 110.408 10.0807 111.152 10.5547C111.902 11.0234 112.496 11.7187 112.934 12.6406C113.376 13.5573 113.598 14.6823 113.598 16.0156C113.598 17.3333 113.382 18.4531 112.949 19.375C112.517 20.2969 111.928 21 111.184 21.4844C110.439 21.9688 109.595 22.2109 108.652 22.2109C107.965 22.2109 107.395 22.0964 106.941 21.8672C106.488 21.638 106.124 21.362 105.848 21.0391C105.577 20.7109 105.366 20.401 105.215 20.1094H105.051V22H102.27ZM105.043 16C105.043 16.776 105.152 17.4557 105.371 18.0391C105.595 18.6224 105.915 19.0781 106.332 19.4062C106.754 19.7292 107.264 19.8906 107.863 19.8906C108.488 19.8906 109.012 19.724 109.434 19.3906C109.855 19.0521 110.173 18.5911 110.387 18.0078C110.605 17.4193 110.715 16.75 110.715 16C110.715 15.2552 110.608 14.5937 110.395 14.0156C110.181 13.4375 109.863 12.9844 109.441 12.6562C109.02 12.3281 108.493 12.1641 107.863 12.1641C107.259 12.1641 106.746 12.3229 106.324 12.6406C105.902 12.9583 105.582 13.4036 105.363 13.9766C105.15 14.5495 105.043 15.224 105.043 16ZM121.314 22.2344C120.111 22.2344 119.072 21.9844 118.197 21.4844C117.327 20.9792 116.658 20.2656 116.189 19.3437C115.721 18.4167 115.486 17.3255 115.486 16.0703C115.486 14.8359 115.721 13.7526 116.189 12.8203C116.663 11.8828 117.325 11.1536 118.174 10.6328C119.023 10.1068 120.02 9.84375 121.166 9.84375C121.906 9.84375 122.604 9.96354 123.26 10.2031C123.921 10.4375 124.505 10.8021 125.01 11.2969C125.52 11.7917 125.921 12.4219 126.213 13.1875C126.505 13.9479 126.65 14.8542 126.65 15.9062V16.7734H116.814V14.8672H123.939C123.934 14.3255 123.817 13.8437 123.588 13.4219C123.359 12.9948 123.038 12.6589 122.627 12.4141C122.221 12.1693 121.747 12.0469 121.205 12.0469C120.627 12.0469 120.119 12.1875 119.682 12.4687C119.244 12.7448 118.903 13.1094 118.658 13.5625C118.419 14.0104 118.296 14.5026 118.291 15.0391V16.7031C118.291 17.401 118.419 18 118.674 18.5C118.929 18.9948 119.286 19.375 119.744 19.6406C120.202 19.901 120.739 20.0312 121.354 20.0312C121.765 20.0312 122.137 19.974 122.471 19.8594C122.804 19.7396 123.093 19.5651 123.338 19.3359C123.583 19.1068 123.768 18.8229 123.893 18.4844L126.533 18.7812C126.367 19.4792 126.049 20.0885 125.58 20.6094C125.117 21.125 124.523 21.526 123.799 21.8125C123.075 22.0937 122.247 22.2344 121.314 22.2344ZM135.035 10V12.1875H128.137V10H135.035ZM129.84 7.125H132.668V18.3906C132.668 18.7708 132.725 19.0625 132.84 19.2656C132.96 19.4635 133.116 19.599 133.309 19.6719C133.501 19.7448 133.715 19.7812 133.949 19.7812C134.126 19.7812 134.288 19.7682 134.434 19.7422C134.585 19.7161 134.699 19.6927 134.777 19.6719L135.254 21.8828C135.103 21.9349 134.887 21.9922 134.605 22.0547C134.329 22.1172 133.991 22.1536 133.59 22.1641C132.882 22.1849 132.243 22.0781 131.676 21.8437C131.108 21.6042 130.658 21.2344 130.324 20.7344C129.996 20.2344 129.835 19.6094 129.84 18.8594V7.125ZM137.4 22V10H140.229V22H137.4ZM138.822 8.29688C138.374 8.29688 137.989 8.14844 137.666 7.85156C137.343 7.54948 137.182 7.1875 137.182 6.76562C137.182 6.33854 137.343 5.97656 137.666 5.67969C137.989 5.3776 138.374 5.22656 138.822 5.22656C139.275 5.22656 139.661 5.3776 139.979 5.67969C140.301 5.97656 140.463 6.33854 140.463 6.76562C140.463 7.1875 140.301 7.54948 139.979 7.85156C139.661 8.14844 139.275 8.29688 138.822 8.29688ZM148.371 22.2344C147.173 22.2344 146.145 21.9714 145.285 21.4453C144.431 20.9193 143.772 20.1927 143.309 19.2656C142.85 18.3333 142.621 17.2604 142.621 16.0469C142.621 14.8281 142.855 13.7526 143.324 12.8203C143.793 11.8828 144.454 11.1536 145.309 10.6328C146.168 10.1068 147.184 9.84375 148.355 9.84375C149.329 9.84375 150.191 10.0234 150.941 10.3828C151.697 10.737 152.298 11.2396 152.746 11.8906C153.194 12.5365 153.449 13.2917 153.512 14.1562H150.809C150.699 13.5781 150.439 13.0964 150.027 12.7109C149.621 12.3203 149.077 12.125 148.395 12.125C147.816 12.125 147.309 12.2812 146.871 12.5937C146.434 12.901 146.092 13.3437 145.848 13.9219C145.608 14.5 145.488 15.1927 145.488 16C145.488 16.8177 145.608 17.5208 145.848 18.1094C146.087 18.6927 146.423 19.1432 146.855 19.4609C147.293 19.7734 147.806 19.9297 148.395 19.9297C148.811 19.9297 149.184 19.8516 149.512 19.6953C149.845 19.5339 150.124 19.3021 150.348 19C150.572 18.6979 150.725 18.3307 150.809 17.8984H153.512C153.444 18.7474 153.194 19.5 152.762 20.1562C152.329 20.8073 151.741 21.3177 150.996 21.6875C150.251 22.0521 149.376 22.2344 148.371 22.2344ZM165.318 13.1719L162.74 13.4531C162.667 13.1927 162.54 12.9479 162.357 12.7188C162.18 12.4896 161.941 12.3047 161.639 12.1641C161.337 12.0234 160.967 11.9531 160.529 11.9531C159.941 11.9531 159.446 12.0807 159.045 12.3359C158.649 12.5911 158.454 12.9219 158.459 13.3281C158.454 13.6771 158.581 13.9609 158.842 14.1797C159.107 14.3984 159.545 14.5781 160.154 14.7188L162.201 15.1562C163.337 15.401 164.18 15.7891 164.732 16.3203C165.29 16.8516 165.571 17.5469 165.576 18.4062C165.571 19.1615 165.35 19.8281 164.912 20.4062C164.48 20.9792 163.878 21.4271 163.107 21.75C162.337 22.0729 161.451 22.2344 160.451 22.2344C158.982 22.2344 157.8 21.9271 156.904 21.3125C156.008 20.6927 155.475 19.8307 155.303 18.7266L158.061 18.4609C158.186 19.0026 158.451 19.4115 158.857 19.6875C159.264 19.9635 159.792 20.1016 160.443 20.1016C161.115 20.1016 161.654 19.9635 162.061 19.6875C162.472 19.4115 162.678 19.0703 162.678 18.6641C162.678 18.3203 162.545 18.0365 162.279 17.8125C162.019 17.5885 161.613 17.4167 161.061 17.2969L159.014 16.8672C157.863 16.6276 157.011 16.224 156.459 15.6562C155.907 15.0833 155.633 14.3594 155.639 13.4844C155.633 12.7448 155.834 12.1042 156.24 11.5625C156.652 11.0156 157.222 10.5937 157.951 10.2969C158.686 9.99479 159.532 9.84375 160.49 9.84375C161.896 9.84375 163.003 10.1432 163.811 10.7422C164.623 11.3411 165.126 12.151 165.318 13.1719Z" fill="#01102E"/>
<path d="M79.0795 40H78.0227C77.9602 39.696 77.8509 39.429 77.6946 39.1989C77.5412 38.9688 77.3537 38.7756 77.1321 38.6193C76.9134 38.4602 76.6705 38.3409 76.4034 38.2614C76.1364 38.1818 75.858 38.142 75.5682 38.142C75.0398 38.142 74.5611 38.2756 74.1321 38.5426C73.706 38.8097 73.3665 39.2031 73.1136 39.723C72.8636 40.2429 72.7386 40.8807 72.7386 41.6364C72.7386 42.392 72.8636 43.0298 73.1136 43.5497C73.3665 44.0696 73.706 44.4631 74.1321 44.7301C74.5611 44.9972 75.0398 45.1307 75.5682 45.1307C75.858 45.1307 76.1364 45.0909 76.4034 45.0114C76.6705 44.9318 76.9134 44.8139 77.1321 44.6577C77.3537 44.4986 77.5412 44.304 77.6946 44.0739C77.8509 43.8409 77.9602 43.5739 78.0227 43.2727H79.0795C79 43.7187 78.8551 44.1179 78.6449 44.4702C78.4347 44.8224 78.1733 45.1222 77.8608 45.3693C77.5483 45.6136 77.1974 45.7997 76.8082 45.9276C76.4219 46.0554 76.0085 46.1193 75.5682 46.1193C74.8239 46.1193 74.1619 45.9375 73.5824 45.5739C73.0028 45.2102 72.5469 44.6932 72.2145 44.0227C71.8821 43.3523 71.7159 42.5568 71.7159 41.6364C71.7159 40.7159 71.8821 39.9205 72.2145 39.25C72.5469 38.5795 73.0028 38.0625 73.5824 37.6989C74.1619 37.3352 74.8239 37.1534 75.5682 37.1534C76.0085 37.1534 76.4219 37.2173 76.8082 37.3452C77.1974 37.473 77.5483 37.6605 77.8608 37.9077C78.1733 38.152 78.4347 38.4503 78.6449 38.8026C78.8551 39.152 79 39.5511 79.0795 40ZM83.31 46.1364C82.7191 46.1364 82.2006 45.9957 81.7546 45.7145C81.3114 45.4332 80.9648 45.0398 80.7148 44.5341C80.4677 44.0284 80.3441 43.4375 80.3441 42.7614C80.3441 42.0795 80.4677 41.4844 80.7148 40.9759C80.9648 40.4673 81.3114 40.0724 81.7546 39.7912C82.2006 39.5099 82.7191 39.3693 83.31 39.3693C83.9009 39.3693 84.418 39.5099 84.8612 39.7912C85.3072 40.0724 85.6538 40.4673 85.9009 40.9759C86.1509 41.4844 86.2759 42.0795 86.2759 42.7614C86.2759 43.4375 86.1509 44.0284 85.9009 44.5341C85.6538 45.0398 85.3072 45.4332 84.8612 45.7145C84.418 45.9957 83.9009 46.1364 83.31 46.1364ZM83.31 45.233C83.7589 45.233 84.1282 45.1179 84.418 44.8878C84.7077 44.6577 84.9222 44.3551 85.0614 43.9801C85.2006 43.6051 85.2702 43.1989 85.2702 42.7614C85.2702 42.3239 85.2006 41.9162 85.0614 41.5384C84.9222 41.1605 84.7077 40.8551 84.418 40.6222C84.1282 40.3892 83.7589 40.2727 83.31 40.2727C82.8612 40.2727 82.4918 40.3892 82.2021 40.6222C81.9123 40.8551 81.6978 41.1605 81.5586 41.5384C81.4194 41.9162 81.3498 42.3239 81.3498 42.7614C81.3498 43.1989 81.4194 43.6051 81.5586 43.9801C81.6978 44.3551 81.9123 44.6577 82.2021 44.8878C82.4918 45.1179 82.8612 45.233 83.31 45.233ZM89.7372 46.1534C89.3224 46.1534 88.946 46.0753 88.608 45.919C88.2699 45.7599 88.0014 45.5312 87.8026 45.233C87.6037 44.9318 87.5043 44.5682 87.5043 44.142C87.5043 43.767 87.5781 43.4631 87.7259 43.2301C87.8736 42.9943 88.071 42.8097 88.3182 42.6761C88.5653 42.5426 88.8381 42.4432 89.1364 42.3778C89.4375 42.3097 89.7401 42.2557 90.044 42.2159C90.4418 42.1648 90.7642 42.1264 91.0114 42.1009C91.2614 42.0724 91.4432 42.0256 91.5568 41.9602C91.6733 41.8949 91.7315 41.7812 91.7315 41.6193V41.5852C91.7315 41.1648 91.6165 40.8381 91.3864 40.6051C91.1591 40.3722 90.8139 40.2557 90.3509 40.2557C89.8707 40.2557 89.4943 40.3608 89.2216 40.571C88.9489 40.7812 88.7571 41.0057 88.6463 41.2443L87.6918 40.9034C87.8622 40.5057 88.0895 40.196 88.3736 39.9744C88.6605 39.75 88.973 39.5937 89.3111 39.5057C89.652 39.4148 89.9872 39.3693 90.3168 39.3693C90.527 39.3693 90.7685 39.3949 91.0412 39.446C91.3168 39.4943 91.5824 39.5952 91.8381 39.7486C92.0966 39.902 92.3111 40.1335 92.4815 40.4432C92.652 40.7528 92.7372 41.1676 92.7372 41.6875V46H91.7315V45.1136H91.6804C91.6122 45.2557 91.4986 45.4077 91.3395 45.5696C91.1804 45.7315 90.9688 45.8693 90.7045 45.983C90.4403 46.0966 90.1179 46.1534 89.7372 46.1534ZM89.8906 45.25C90.2884 45.25 90.6236 45.1719 90.8963 45.0156C91.1719 44.8594 91.3793 44.6577 91.5185 44.4105C91.6605 44.1634 91.7315 43.9034 91.7315 43.6307V42.7102C91.6889 42.7614 91.5952 42.8082 91.4503 42.8509C91.3082 42.8906 91.1435 42.9261 90.956 42.9574C90.7713 42.9858 90.5909 43.0114 90.4148 43.0341C90.2415 43.054 90.1009 43.071 89.9929 43.0852C89.7315 43.1193 89.4872 43.1747 89.2599 43.2514C89.0355 43.3253 88.8537 43.4375 88.7145 43.5881C88.5781 43.7358 88.5099 43.9375 88.5099 44.1932C88.5099 44.5426 88.6392 44.8068 88.8977 44.9858C89.1591 45.1619 89.4901 45.25 89.8906 45.25ZM97.2319 46.1364C96.6183 46.1364 96.0898 45.9915 95.6467 45.7017C95.2035 45.4119 94.8626 45.0128 94.6239 44.5043C94.3853 43.9957 94.266 43.4148 94.266 42.7614C94.266 42.0966 94.3881 41.5099 94.6325 41.0014C94.8796 40.4901 95.2234 40.0909 95.6637 39.804C96.1069 39.5142 96.6239 39.3693 97.2148 39.3693C97.6751 39.3693 98.0898 39.4545 98.4592 39.625C98.8285 39.7955 99.131 40.0341 99.3668 40.3409C99.6026 40.6477 99.7489 41.0057 99.8058 41.4148H98.8001C98.7234 41.1165 98.5529 40.8523 98.2887 40.6222C98.0273 40.3892 97.6751 40.2727 97.2319 40.2727C96.8398 40.2727 96.4961 40.375 96.2006 40.5795C95.908 40.7812 95.6793 41.0668 95.5146 41.4361C95.3526 41.8026 95.2717 42.233 95.2717 42.7273C95.2717 43.233 95.3512 43.6733 95.5103 44.0483C95.6722 44.4233 95.8995 44.7145 96.1921 44.9219C96.4876 45.1293 96.8342 45.233 97.2319 45.233C97.4933 45.233 97.7305 45.1875 97.9435 45.0966C98.1566 45.0057 98.337 44.875 98.4847 44.7045C98.6325 44.5341 98.7376 44.3295 98.8001 44.0909H99.8058C99.7489 44.4773 99.6083 44.8253 99.3839 45.1349C99.1623 45.4418 98.8683 45.6861 98.5018 45.8679C98.1381 46.0469 97.7148 46.1364 97.2319 46.1364ZM102.282 42.0625V46H101.276V37.2727H102.282V40.4773H102.367C102.52 40.1392 102.75 39.8707 103.057 39.6719C103.367 39.4702 103.779 39.3693 104.293 39.3693C104.739 39.3693 105.13 39.4588 105.465 39.6378C105.8 39.8139 106.06 40.0852 106.245 40.4517C106.432 40.8153 106.526 41.2784 106.526 41.8409V46H105.52V41.9091C105.52 41.3892 105.385 40.9872 105.115 40.7031C104.848 40.4162 104.478 40.2727 104.003 40.2727C103.674 40.2727 103.378 40.3423 103.117 40.4815C102.858 40.6207 102.654 40.8239 102.503 41.0909C102.355 41.358 102.282 41.6818 102.282 42.0625ZM108.366 46V39.4545H109.371V46H108.366ZM108.877 38.3636C108.681 38.3636 108.512 38.2969 108.37 38.1634C108.231 38.0298 108.161 37.8693 108.161 37.6818C108.161 37.4943 108.231 37.3338 108.37 37.2003C108.512 37.0668 108.681 37 108.877 37C109.073 37 109.241 37.0668 109.38 37.2003C109.522 37.3338 109.593 37.4943 109.593 37.6818C109.593 37.8693 109.522 38.0298 109.38 38.1634C109.241 38.2969 109.073 38.3636 108.877 38.3636ZM112.219 42.0625V46H111.213V39.4545H112.185V40.4773H112.27C112.424 40.1449 112.657 39.8778 112.969 39.6761C113.282 39.4716 113.685 39.3693 114.179 39.3693C114.623 39.3693 115.01 39.4602 115.343 39.642C115.675 39.821 115.934 40.0938 116.118 40.4602C116.303 40.8239 116.395 41.2841 116.395 41.8409V46H115.39V41.9091C115.39 41.3949 115.256 40.9943 114.989 40.7074C114.722 40.4176 114.355 40.2727 113.89 40.2727C113.569 40.2727 113.282 40.3423 113.029 40.4815C112.779 40.6207 112.581 40.8239 112.436 41.0909C112.292 41.358 112.219 41.6818 112.219 42.0625ZM120.875 48.5909C120.389 48.5909 119.972 48.5284 119.622 48.4034C119.273 48.2812 118.982 48.1193 118.749 47.9176C118.518 47.7188 118.335 47.5057 118.199 47.2784L119 46.7159C119.091 46.8352 119.206 46.9716 119.345 47.125C119.484 47.2812 119.675 47.4162 119.916 47.5298C120.161 47.6463 120.48 47.7045 120.875 47.7045C121.403 47.7045 121.839 47.5767 122.183 47.321C122.527 47.0653 122.699 46.6648 122.699 46.1193V44.7898H122.614C122.54 44.9091 122.435 45.0568 122.298 45.233C122.165 45.4062 121.972 45.5611 121.719 45.6974C121.469 45.831 121.131 45.8977 120.705 45.8977C120.176 45.8977 119.702 45.7727 119.281 45.5227C118.864 45.2727 118.533 44.9091 118.288 44.4318C118.047 43.9545 117.926 43.375 117.926 42.6932C117.926 42.0227 118.044 41.4389 118.28 40.9418C118.516 40.4418 118.844 40.0554 119.264 39.7827C119.685 39.5071 120.17 39.3693 120.722 39.3693C121.148 39.3693 121.486 39.4403 121.736 39.5824C121.989 39.7216 122.182 39.8807 122.315 40.0597C122.452 40.2358 122.557 40.3807 122.631 40.4943H122.733V39.4545H123.705V46.1875C123.705 46.75 123.577 47.2074 123.321 47.5597C123.068 47.9148 122.727 48.1747 122.298 48.3395C121.872 48.5071 121.398 48.5909 120.875 48.5909ZM120.841 44.9943C121.244 44.9943 121.585 44.902 121.864 44.7173C122.142 44.5327 122.354 44.267 122.499 43.9205C122.643 43.5739 122.716 43.1591 122.716 42.6761C122.716 42.2045 122.645 41.7884 122.503 41.4276C122.361 41.0668 122.151 40.7841 121.872 40.5795C121.594 40.375 121.25 40.2727 120.841 40.2727C120.415 40.2727 120.06 40.3807 119.776 40.5966C119.494 40.8125 119.283 41.1023 119.141 41.4659C119.001 41.8295 118.932 42.233 118.932 42.6761C118.932 43.1307 119.003 43.5327 119.145 43.8821C119.29 44.2287 119.503 44.5014 119.784 44.7003C120.068 44.8963 120.42 44.9943 120.841 44.9943ZM136.08 40H135.023C134.96 39.696 134.851 39.429 134.695 39.1989C134.541 38.9688 134.354 38.7756 134.132 38.6193C133.913 38.4602 133.67 38.3409 133.403 38.2614C133.136 38.1818 132.858 38.142 132.568 38.142C132.04 38.142 131.561 38.2756 131.132 38.5426C130.706 38.8097 130.366 39.2031 130.114 39.723C129.864 40.2429 129.739 40.8807 129.739 41.6364C129.739 42.392 129.864 43.0298 130.114 43.5497C130.366 44.0696 130.706 44.4631 131.132 44.7301C131.561 44.9972 132.04 45.1307 132.568 45.1307C132.858 45.1307 133.136 45.0909 133.403 45.0114C133.67 44.9318 133.913 44.8139 134.132 44.6577C134.354 44.4986 134.541 44.304 134.695 44.0739C134.851 43.8409 134.96 43.5739 135.023 43.2727H136.08C136 43.7187 135.855 44.1179 135.645 44.4702C135.435 44.8224 135.173 45.1222 134.861 45.3693C134.548 45.6136 134.197 45.7997 133.808 45.9276C133.422 46.0554 133.009 46.1193 132.568 46.1193C131.824 46.1193 131.162 45.9375 130.582 45.5739C130.003 45.2102 129.547 44.6932 129.214 44.0227C128.882 43.3523 128.716 42.5568 128.716 41.6364C128.716 40.7159 128.882 39.9205 129.214 39.25C129.547 38.5795 130.003 38.0625 130.582 37.6989C131.162 37.3352 131.824 37.1534 132.568 37.1534C133.009 37.1534 133.422 37.2173 133.808 37.3452C134.197 37.473 134.548 37.6605 134.861 37.9077C135.173 38.152 135.435 38.4503 135.645 38.8026C135.855 39.152 136 39.5511 136.08 40ZM140.395 46.1364C139.765 46.1364 139.221 45.9972 138.763 45.7188C138.309 45.4375 137.958 45.0455 137.711 44.5426C137.466 44.0369 137.344 43.4489 137.344 42.7784C137.344 42.108 137.466 41.517 137.711 41.0057C137.958 40.4915 138.301 40.0909 138.742 39.804C139.185 39.5142 139.702 39.3693 140.293 39.3693C140.634 39.3693 140.971 39.4261 141.303 39.5398C141.635 39.6534 141.938 39.8381 142.211 40.0938C142.483 40.3466 142.701 40.6818 142.863 41.0994C143.025 41.517 143.105 42.0312 143.105 42.642V43.0682H138.06V42.1989H142.083C142.083 41.8295 142.009 41.5 141.861 41.2102C141.716 40.9205 141.509 40.6918 141.239 40.5241C140.972 40.3565 140.657 40.2727 140.293 40.2727C139.892 40.2727 139.546 40.3722 139.253 40.571C138.963 40.767 138.74 41.0227 138.584 41.3381C138.428 41.6534 138.35 41.9915 138.35 42.3523V42.9318C138.35 43.4261 138.435 43.8452 138.605 44.1889C138.779 44.5298 139.019 44.7898 139.326 44.9688C139.632 45.1449 139.989 45.233 140.395 45.233C140.659 45.233 140.898 45.196 141.111 45.1222C141.327 45.0455 141.513 44.9318 141.669 44.7812C141.826 44.6278 141.946 44.4375 142.032 44.2102L143.003 44.483C142.901 44.8125 142.729 45.1023 142.488 45.3523C142.246 45.5994 141.948 45.7926 141.593 45.9318C141.238 46.0682 140.838 46.1364 140.395 46.1364ZM145.641 42.0625V46H144.635V39.4545H145.607V40.4773H145.692C145.846 40.1449 146.078 39.8778 146.391 39.6761C146.703 39.4716 147.107 39.3693 147.601 39.3693C148.044 39.3693 148.432 39.4602 148.765 39.642C149.097 39.821 149.355 40.0938 149.54 40.4602C149.725 40.8239 149.817 41.2841 149.817 41.8409V46H148.811V41.9091C148.811 41.3949 148.678 40.9943 148.411 40.7074C148.144 40.4176 147.777 40.2727 147.311 40.2727C146.99 40.2727 146.703 40.3423 146.451 40.4815C146.201 40.6207 146.003 40.8239 145.858 41.0909C145.713 41.358 145.641 41.6818 145.641 42.0625ZM154.501 39.4545V40.3068H151.109V39.4545H154.501ZM152.098 37.8864H153.104V44.125C153.104 44.4091 153.145 44.6222 153.227 44.7642C153.313 44.9034 153.42 44.9972 153.551 45.0455C153.685 45.0909 153.825 45.1136 153.973 45.1136C154.084 45.1136 154.175 45.108 154.246 45.0966C154.317 45.0824 154.374 45.071 154.416 45.0625L154.621 45.9659C154.553 45.9915 154.457 46.017 154.335 46.0426C154.213 46.071 154.058 46.0852 153.871 46.0852C153.587 46.0852 153.308 46.0241 153.036 45.902C152.766 45.7798 152.541 45.5938 152.362 45.3438C152.186 45.0938 152.098 44.7784 152.098 44.3977V37.8864ZM158.688 46.1364C158.058 46.1364 157.513 45.9972 157.056 45.7188C156.602 45.4375 156.251 45.0455 156.004 44.5426C155.759 44.0369 155.637 43.4489 155.637 42.7784C155.637 42.108 155.759 41.517 156.004 41.0057C156.251 40.4915 156.594 40.0909 157.035 39.804C157.478 39.5142 157.995 39.3693 158.586 39.3693C158.927 39.3693 159.263 39.4261 159.596 39.5398C159.928 39.6534 160.231 39.8381 160.504 40.0938C160.776 40.3466 160.994 40.6818 161.156 41.0994C161.317 41.517 161.398 42.0312 161.398 42.642V43.0682H156.353V42.1989H160.376C160.376 41.8295 160.302 41.5 160.154 41.2102C160.009 40.9205 159.802 40.6918 159.532 40.5241C159.265 40.3565 158.95 40.2727 158.586 40.2727C158.185 40.2727 157.839 40.3722 157.546 40.571C157.256 40.767 157.033 41.0227 156.877 41.3381C156.721 41.6534 156.643 41.9915 156.643 42.3523V42.9318C156.643 43.4261 156.728 43.8452 156.898 44.1889C157.072 44.5298 157.312 44.7898 157.619 44.9688C157.925 45.1449 158.282 45.233 158.688 45.233C158.952 45.233 159.191 45.196 159.404 45.1222C159.62 45.0455 159.806 44.9318 159.962 44.7812C160.119 44.6278 160.239 44.4375 160.325 44.2102L161.296 44.483C161.194 44.8125 161.022 45.1023 160.781 45.3523C160.539 45.5994 160.241 45.7926 159.886 45.9318C159.531 46.0682 159.131 46.1364 158.688 46.1364ZM162.928 46V39.4545H163.9V40.4432H163.968C164.087 40.1193 164.303 39.8565 164.616 39.6548C164.928 39.4531 165.281 39.3523 165.673 39.3523C165.746 39.3523 165.839 39.3537 165.95 39.3565C166.06 39.3594 166.144 39.3636 166.201 39.3693V40.392C166.167 40.3835 166.089 40.3707 165.967 40.3537C165.847 40.3338 165.721 40.3239 165.587 40.3239C165.269 40.3239 164.985 40.3906 164.735 40.5241C164.488 40.6548 164.292 40.8366 164.147 41.0696C164.005 41.2997 163.934 41.5625 163.934 41.858V46H162.928Z" fill="#60779A"/>
</svg>
