<svg width="176" height="54" viewBox="0 0 176 54" fill="none" xmlns="http://www.w3.org/2000/svg">
<path d="M77.5001 23.2399C76.4334 23.2399 75.4467 23.0465 74.5401 22.6599C73.6334 22.2732 72.8401 21.7332 72.1601 21.0399C71.4801 20.3465 70.9467 19.5332 70.5601 18.5999C70.1867 17.6665 70.0001 16.6465 70.0001 15.5399C70.0001 14.4332 70.1801 13.4132 70.5401 12.4799C70.9134 11.5332 71.4334 10.7199 72.1001 10.0399C72.7801 9.34654 73.5734 8.81321 74.4801 8.43988C75.3867 8.05321 76.3734 7.85988 77.4401 7.85988C78.5067 7.85988 79.4601 8.03988 80.3001 8.39988C81.1534 8.75988 81.8734 9.23988 82.4601 9.83988C83.0467 10.4265 83.4667 11.0732 83.7201 11.7799L81.3001 12.9399C81.0201 12.1665 80.5467 11.5399 79.8801 11.0599C79.2134 10.5799 78.4001 10.3399 77.4401 10.3399C76.5067 10.3399 75.6801 10.5599 74.9601 10.9999C74.2534 11.4399 73.7001 12.0465 73.3001 12.8199C72.9134 13.5932 72.7201 14.4999 72.7201 15.5399C72.7201 16.5799 72.9201 17.4932 73.3201 18.2799C73.7334 19.0532 74.3001 19.6599 75.0201 20.0999C75.7401 20.5399 76.5667 20.7599 77.5001 20.7599C78.2601 20.7599 78.9601 20.6132 79.6001 20.3199C80.2401 20.0132 80.7534 19.5865 81.1401 19.0399C81.5267 18.4799 81.7201 17.8199 81.7201 17.0599V15.9199L82.9601 16.9999H77.4401V14.6999H84.4401V16.1999C84.4401 17.3465 84.2467 18.3599 83.8601 19.2399C83.4734 20.1199 82.9467 20.8599 82.2801 21.4599C81.6267 22.0465 80.8867 22.4932 80.0601 22.7999C79.2334 23.0932 78.3801 23.2399 77.5001 23.2399ZM91.6924 23.2399C90.6257 23.2399 89.6524 22.9932 88.7724 22.4999C87.9057 22.0065 87.2124 21.3332 86.6924 20.4799C86.1857 19.6265 85.9324 18.6532 85.9324 17.5599C85.9324 16.4665 86.1857 15.4932 86.6924 14.6399C87.2124 13.7865 87.9057 13.1132 88.7724 12.6199C89.6391 12.1265 90.6124 11.8799 91.6924 11.8799C92.7591 11.8799 93.7257 12.1265 94.5924 12.6199C95.4591 13.1132 96.1457 13.7865 96.6524 14.6399C97.1724 15.4799 97.4324 16.4532 97.4324 17.5599C97.4324 18.6532 97.1724 19.6265 96.6524 20.4799C96.1324 21.3332 95.4391 22.0065 94.5724 22.4999C93.7057 22.9932 92.7457 23.2399 91.6924 23.2399ZM91.6924 20.8399C92.2791 20.8399 92.7924 20.6999 93.2324 20.4199C93.6857 20.1399 94.0391 19.7532 94.2924 19.2599C94.5591 18.7532 94.6924 18.1865 94.6924 17.5599C94.6924 16.9199 94.5591 16.3599 94.2924 15.8799C94.0391 15.3865 93.6857 14.9999 93.2324 14.7199C92.7924 14.4265 92.2791 14.2799 91.6924 14.2799C91.0924 14.2799 90.5657 14.4265 90.1124 14.7199C89.6591 14.9999 89.2991 15.3865 89.0324 15.8799C88.7791 16.3599 88.6524 16.9199 88.6524 17.5599C88.6524 18.1865 88.7791 18.7532 89.0324 19.2599C89.2991 19.7532 89.6591 20.1399 90.1124 20.4199C90.5657 20.6999 91.0924 20.8399 91.6924 20.8399ZM103.559 23.2399C102.399 23.2399 101.386 22.9665 100.519 22.4199C99.6659 21.8599 99.0793 21.1065 98.7593 20.1599L100.719 19.2199C100.999 19.8332 101.386 20.3132 101.879 20.6599C102.386 21.0065 102.946 21.1799 103.559 21.1799C104.039 21.1799 104.419 21.0732 104.699 20.8599C104.979 20.6465 105.119 20.3665 105.119 20.0199C105.119 19.8065 105.059 19.6332 104.939 19.4999C104.833 19.3532 104.679 19.2332 104.479 19.1399C104.293 19.0332 104.086 18.9465 103.859 18.8799L102.079 18.3799C101.159 18.1132 100.459 17.7065 99.9793 17.1599C99.5126 16.6132 99.2793 15.9665 99.2793 15.2199C99.2793 14.5532 99.4459 13.9732 99.7793 13.4799C100.126 12.9732 100.599 12.5799 101.199 12.2999C101.813 12.0199 102.513 11.8799 103.299 11.8799C104.326 11.8799 105.233 12.1265 106.019 12.6199C106.806 13.1132 107.366 13.8065 107.699 14.6999L105.699 15.6399C105.513 15.1465 105.199 14.7532 104.759 14.4599C104.319 14.1665 103.826 14.0199 103.279 14.0199C102.839 14.0199 102.493 14.1199 102.239 14.3199C101.986 14.5199 101.859 14.7799 101.859 15.0999C101.859 15.2999 101.913 15.4732 102.019 15.6199C102.126 15.7665 102.273 15.8865 102.459 15.9799C102.659 16.0732 102.886 16.1599 103.139 16.2399L104.879 16.7599C105.773 17.0265 106.459 17.4265 106.939 17.9599C107.433 18.4932 107.679 19.1465 107.679 19.9199C107.679 20.5732 107.506 21.1532 107.159 21.6599C106.813 22.1532 106.333 22.5399 105.719 22.8199C105.106 23.0999 104.386 23.2399 103.559 23.2399ZM114.653 23.1199C113.426 23.1199 112.473 22.7865 111.793 22.1199C111.126 21.4399 110.793 20.4865 110.793 19.2599V14.4599H108.913V12.1199H109.113C109.646 12.1199 110.059 11.9799 110.353 11.6999C110.646 11.4199 110.793 11.0132 110.793 10.4799V9.63988H113.413V12.1199H115.913V14.4599H113.413V19.1199C113.413 19.4799 113.473 19.7865 113.593 20.0399C113.726 20.2932 113.926 20.4865 114.193 20.6199C114.473 20.7532 114.826 20.8199 115.253 20.8199C115.346 20.8199 115.453 20.8132 115.573 20.7999C115.706 20.7865 115.833 20.7732 115.953 20.7599V22.9999C115.766 23.0265 115.553 23.0532 115.313 23.0799C115.073 23.1065 114.853 23.1199 114.653 23.1199ZM121.834 23.2399C120.994 23.2399 120.261 23.0532 119.634 22.6799C119.021 22.3065 118.548 21.7865 118.214 21.1199C117.894 20.4532 117.734 19.6732 117.734 18.7799V12.1199H120.354V18.5599C120.354 19.0132 120.441 19.4132 120.614 19.7599C120.801 20.0932 121.061 20.3599 121.394 20.5599C121.741 20.7465 122.128 20.8399 122.554 20.8399C122.981 20.8399 123.361 20.7465 123.694 20.5599C124.028 20.3599 124.288 20.0865 124.474 19.7399C124.661 19.3932 124.754 18.9799 124.754 18.4999V12.1199H127.374V22.9999H124.894V20.8599L125.114 21.2399C124.861 21.9065 124.441 22.4065 123.854 22.7399C123.281 23.0732 122.608 23.2399 121.834 23.2399ZM134.87 23.2399C133.817 23.2399 132.877 22.9932 132.05 22.4999C131.223 21.9932 130.57 21.3065 130.09 20.4399C129.61 19.5732 129.37 18.6132 129.37 17.5599C129.37 16.4932 129.61 15.5332 130.09 14.6799C130.57 13.8265 131.223 13.1465 132.05 12.6399C132.89 12.1332 133.823 11.8799 134.85 11.8799C135.677 11.8799 136.41 12.0465 137.05 12.3799C137.703 12.6999 138.217 13.1532 138.59 13.7399L138.19 14.2799V7.85988H140.81V22.9999H138.33V20.8999L138.61 21.4199C138.237 22.0065 137.717 22.4599 137.05 22.7799C136.383 23.0865 135.657 23.2399 134.87 23.2399ZM135.15 20.8399C135.75 20.8399 136.277 20.6999 136.73 20.4199C137.183 20.1399 137.537 19.7532 137.79 19.2599C138.057 18.7665 138.19 18.1999 138.19 17.5599C138.19 16.9332 138.057 16.3732 137.79 15.8799C137.537 15.3732 137.183 14.9799 136.73 14.6999C136.277 14.4199 135.75 14.2799 135.15 14.2799C134.563 14.2799 134.037 14.4265 133.57 14.7199C133.103 14.9999 132.737 15.3865 132.47 15.8799C132.217 16.3599 132.09 16.9199 132.09 17.5599C132.09 18.1999 132.217 18.7665 132.47 19.2599C132.737 19.7532 133.103 20.1399 133.57 20.4199C134.037 20.6999 134.563 20.8399 135.15 20.8399ZM144.567 27.3999C144.274 27.3999 143.987 27.3732 143.707 27.3199C143.427 27.2799 143.174 27.1999 142.947 27.0799V24.8999C143.121 24.9399 143.327 24.9799 143.567 25.0199C143.821 25.0599 144.054 25.0799 144.267 25.0799C144.867 25.0799 145.301 24.9399 145.567 24.6599C145.847 24.3932 146.094 24.0332 146.307 23.5799L147.027 21.8999L146.987 24.0999L142.247 12.1199H145.067L148.387 20.9599H147.387L150.687 12.1199H153.527L148.787 24.0999C148.507 24.7932 148.167 25.3865 147.767 25.8799C147.367 26.3732 146.901 26.7465 146.367 26.9999C145.847 27.2665 145.247 27.3999 144.567 27.3999Z" fill="#01102E"/>
<path d="M70.0569 45.9999V37.2726H73.0057C73.6904 37.2726 74.2501 37.3962 74.6847 37.6433C75.1222 37.8877 75.4461 38.2186 75.6563 38.6362C75.8665 39.0539 75.9717 39.5198 75.9717 40.034C75.9717 40.5482 75.8665 41.0155 75.6563 41.436C75.4489 41.8564 75.1279 42.1916 74.6932 42.4416C74.2586 42.6888 73.7018 42.8124 73.0228 42.8124H70.9092V41.8749H72.9887C73.4574 41.8749 73.8339 41.7939 74.118 41.632C74.402 41.47 74.608 41.2513 74.7359 40.9757C74.8665 40.6973 74.9319 40.3834 74.9319 40.034C74.9319 39.6845 74.8665 39.372 74.7359 39.0965C74.608 38.8209 74.4006 38.605 74.1137 38.4487C73.8268 38.2897 73.4461 38.2101 72.9717 38.2101H71.1137V45.9999H70.0569ZM77.5377 45.9999V39.4544H78.5093V40.4431H78.5775C78.6968 40.1192 78.9127 39.8564 79.2252 39.6547C79.5377 39.453 79.89 39.3522 80.282 39.3522C80.3559 39.3522 80.4482 39.3536 80.559 39.3564C80.6698 39.3593 80.7536 39.3635 80.8104 39.3692V40.3919C80.7763 40.3834 80.6982 40.3706 80.5761 40.3536C80.4567 40.3337 80.3303 40.3237 80.1968 40.3237C79.8786 40.3237 79.5945 40.3905 79.3445 40.524C79.0974 40.6547 78.9013 40.8365 78.7565 41.0695C78.6144 41.2996 78.5434 41.5624 78.5434 41.8578V45.9999H77.5377ZM82.0025 45.9999V39.4544H83.0082V45.9999H82.0025ZM82.5139 38.3635C82.3179 38.3635 82.1489 38.2968 82.0068 38.1632C81.8676 38.0297 81.798 37.8692 81.798 37.6817C81.798 37.4942 81.8676 37.3337 82.0068 37.2002C82.1489 37.0666 82.3179 36.9999 82.5139 36.9999C82.7099 36.9999 82.8775 37.0666 83.0168 37.2002C83.1588 37.3337 83.2298 37.4942 83.2298 37.6817C83.2298 37.8692 83.1588 38.0297 83.0168 38.1632C82.8775 38.2968 82.7099 38.3635 82.5139 38.3635ZM90.2025 39.4544L87.782 45.9999H86.7593L84.3388 39.4544H85.4297L87.2366 44.6703H87.3047L89.1116 39.4544H90.2025ZM93.2568 46.1533C92.842 46.1533 92.4656 46.0752 92.1275 45.9189C91.7895 45.7598 91.521 45.5311 91.3221 45.2328C91.1233 44.9317 91.0239 44.5681 91.0239 44.1419C91.0239 43.7669 91.0977 43.4629 91.2454 43.23C91.3932 42.9942 91.5906 42.8095 91.8378 42.676C92.0849 42.5425 92.3577 42.4431 92.656 42.3777C92.9571 42.3095 93.2596 42.2556 93.5636 42.2158C93.9614 42.1647 94.2838 42.1263 94.531 42.1007C94.781 42.0723 94.9628 42.0254 95.0764 41.9601C95.1929 41.8948 95.2511 41.7811 95.2511 41.6192V41.5851C95.2511 41.1647 95.1361 40.8379 94.906 40.605C94.6787 40.372 94.3335 40.2556 93.8704 40.2556C93.3903 40.2556 93.0139 40.3607 92.7412 40.5709C92.4685 40.7811 92.2767 41.0056 92.1659 41.2442L91.2114 40.9033C91.3818 40.5056 91.6091 40.1959 91.8932 39.9743C92.1801 39.7499 92.4926 39.5936 92.8307 39.5056C93.1716 39.4147 93.5068 39.3692 93.8364 39.3692C94.0466 39.3692 94.2881 39.3948 94.5608 39.4459C94.8364 39.4942 95.102 39.595 95.3577 39.7485C95.6162 39.9019 95.8307 40.1334 96.0011 40.4431C96.1716 40.7527 96.2568 41.1675 96.2568 41.6874V45.9999H95.2511V45.1135H95.2C95.1318 45.2556 95.0182 45.4075 94.8591 45.5695C94.7 45.7314 94.4883 45.8692 94.2241 45.9828C93.9599 46.0965 93.6375 46.1533 93.2568 46.1533ZM93.4102 45.2499C93.8079 45.2499 94.1432 45.1718 94.4159 45.0155C94.6915 44.8593 94.8989 44.6575 95.0381 44.4104C95.1801 44.1632 95.2511 43.9033 95.2511 43.6306V42.7101C95.2085 42.7612 95.1148 42.8081 94.9699 42.8507C94.8278 42.8905 94.6631 42.926 94.4756 42.9573C94.2909 42.9857 94.1105 43.0112 93.9344 43.034C93.7611 43.0539 93.6204 43.0709 93.5125 43.0851C93.2511 43.1192 93.0068 43.1746 92.7795 43.2513C92.5551 43.3252 92.3733 43.4374 92.2341 43.5879C92.0977 43.7357 92.0295 43.9374 92.0295 44.1931C92.0295 44.5425 92.1588 44.8067 92.4173 44.9857C92.6787 45.1618 93.0096 45.2499 93.4102 45.2499ZM100.939 39.4544V40.3067H97.5469V39.4544H100.939ZM98.5356 37.8862H99.5413V44.1249C99.5413 44.409 99.5824 44.622 99.6648 44.7641C99.7501 44.9033 99.858 44.997 99.9887 45.0453C100.122 45.0908 100.263 45.1135 100.411 45.1135C100.521 45.1135 100.612 45.1078 100.683 45.0965C100.754 45.0823 100.811 45.0709 100.854 45.0624L101.058 45.9658C100.99 45.9914 100.895 46.0169 100.773 46.0425C100.651 46.0709 100.496 46.0851 100.308 46.0851C100.024 46.0851 99.7458 46.024 99.4731 45.9019C99.2032 45.7797 98.9788 45.5936 98.7998 45.3436C98.6236 45.0936 98.5356 44.7783 98.5356 44.3976V37.8862ZM105.126 46.1362C104.495 46.1362 103.951 45.997 103.494 45.7186C103.039 45.4374 102.688 45.0453 102.441 44.5425C102.197 44.0368 102.075 43.4487 102.075 42.7783C102.075 42.1078 102.197 41.5169 102.441 41.0056C102.688 40.4914 103.032 40.0908 103.472 39.8039C103.916 39.5141 104.433 39.3692 105.023 39.3692C105.364 39.3692 105.701 39.426 106.033 39.5397C106.366 39.6533 106.668 39.8379 106.941 40.0936C107.214 40.3465 107.431 40.6817 107.593 41.0993C107.755 41.5169 107.836 42.0311 107.836 42.6419V43.0681H102.791V42.1987H106.813C106.813 41.8294 106.739 41.4999 106.592 41.2101C106.447 40.9203 106.239 40.6916 105.97 40.524C105.702 40.3564 105.387 40.2726 105.023 40.2726C104.623 40.2726 104.276 40.372 103.984 40.5709C103.694 40.7669 103.471 41.0226 103.315 41.3379C103.158 41.6533 103.08 41.9914 103.08 42.3522V42.9317C103.08 43.426 103.166 43.845 103.336 44.1888C103.509 44.5297 103.749 44.7897 104.056 44.9686C104.363 45.1448 104.72 45.2328 105.126 45.2328C105.39 45.2328 105.629 45.1959 105.842 45.122C106.058 45.0453 106.244 44.9317 106.4 44.7811C106.556 44.6277 106.677 44.4374 106.762 44.2101L107.734 44.4828C107.631 44.8124 107.46 45.1022 107.218 45.3522C106.977 45.5993 106.678 45.7925 106.323 45.9317C105.968 46.0681 105.569 46.1362 105.126 46.1362ZM117.65 39.4544C117.599 39.0226 117.391 38.6874 117.028 38.4487C116.664 38.2101 116.218 38.0908 115.69 38.0908C115.303 38.0908 114.965 38.1533 114.675 38.2783C114.389 38.4033 114.164 38.5752 114.002 38.7939C113.843 39.0127 113.764 39.2612 113.764 39.5397C113.764 39.7726 113.819 39.9729 113.93 40.1405C114.043 40.3053 114.188 40.4431 114.364 40.5539C114.541 40.6618 114.725 40.7513 114.918 40.8223C115.112 40.8905 115.289 40.9459 115.451 40.9885L116.337 41.2272C116.565 41.2868 116.818 41.3692 117.096 41.4743C117.377 41.5794 117.646 41.7229 117.901 41.9047C118.16 42.0837 118.373 42.3138 118.541 42.595C118.708 42.8763 118.792 43.2215 118.792 43.6306C118.792 44.1022 118.668 44.5283 118.421 44.909C118.177 45.2897 117.819 45.5922 117.347 45.8166C116.879 46.0411 116.309 46.1533 115.639 46.1533C115.014 46.1533 114.472 46.0524 114.015 45.8507C113.56 45.649 113.202 45.3678 112.941 45.007C112.683 44.6462 112.536 44.2272 112.502 43.7499H113.593C113.622 44.0794 113.732 44.3522 113.925 44.5681C114.122 44.7811 114.369 44.9402 114.667 45.0453C114.968 45.1476 115.292 45.1987 115.639 45.1987C116.042 45.1987 116.404 45.1334 116.725 45.0027C117.046 44.8692 117.3 44.6845 117.488 44.4487C117.675 44.2101 117.769 43.9317 117.769 43.6135C117.769 43.3237 117.688 43.0879 117.526 42.9061C117.364 42.7243 117.151 42.5766 116.887 42.4629C116.623 42.3493 116.337 42.2499 116.031 42.1647L114.957 41.8578C114.275 41.6618 113.735 41.382 113.337 41.0183C112.94 40.6547 112.741 40.1789 112.741 39.5908C112.741 39.1022 112.873 38.676 113.137 38.3124C113.404 37.9459 113.762 37.6618 114.211 37.4601C114.663 37.2556 115.167 37.1533 115.724 37.1533C116.286 37.1533 116.786 37.2541 117.224 37.4558C117.661 37.6547 118.008 37.9274 118.264 38.274C118.522 38.6206 118.658 39.0141 118.673 39.4544H117.65ZM123.052 46.1362C122.439 46.1362 121.91 45.9914 121.467 45.7016C121.024 45.4118 120.683 45.0127 120.444 44.5041C120.206 43.9956 120.086 43.4147 120.086 42.7612C120.086 42.0965 120.209 41.5098 120.453 41.0013C120.7 40.4899 121.044 40.0908 121.484 39.8039C121.927 39.5141 122.444 39.3692 123.035 39.3692C123.495 39.3692 123.91 39.4544 124.28 39.6249C124.649 39.7953 124.951 40.034 125.187 40.3408C125.423 40.6476 125.569 41.0056 125.626 41.4147H124.62C124.544 41.1164 124.373 40.8522 124.109 40.622C123.848 40.3891 123.495 40.2726 123.052 40.2726C122.66 40.2726 122.316 40.3749 122.021 40.5794C121.728 40.7811 121.5 41.0666 121.335 41.436C121.173 41.8024 121.092 42.2328 121.092 42.7272C121.092 43.2328 121.172 43.6732 121.331 44.0482C121.493 44.4232 121.72 44.7144 122.012 44.9218C122.308 45.1291 122.655 45.2328 123.052 45.2328C123.314 45.2328 123.551 45.1874 123.764 45.0965C123.977 45.0056 124.157 44.8749 124.305 44.7044C124.453 44.534 124.558 44.3294 124.62 44.0908H125.626C125.569 44.4772 125.429 44.8252 125.204 45.1348C124.983 45.4416 124.689 45.686 124.322 45.8678C123.959 46.0468 123.535 46.1362 123.052 46.1362ZM128.102 42.0624V45.9999H127.096V37.2726H128.102V40.4772H128.187C128.341 40.1391 128.571 39.8706 128.878 39.6718C129.187 39.47 129.599 39.3692 130.113 39.3692C130.559 39.3692 130.95 39.4587 131.285 39.6377C131.62 39.8138 131.88 40.0851 132.065 40.4516C132.253 40.8152 132.346 41.2783 132.346 41.8408V45.9999H131.341V41.909C131.341 41.3891 131.206 40.9871 130.936 40.703C130.669 40.4161 130.298 40.2726 129.824 40.2726C129.494 40.2726 129.199 40.3422 128.937 40.4814C128.679 40.6206 128.474 40.8237 128.324 41.0908C128.176 41.3578 128.102 41.6817 128.102 42.0624ZM136.845 46.1362C136.254 46.1362 135.736 45.9956 135.29 45.7144C134.847 45.4331 134.5 45.0397 134.25 44.534C134.003 44.0283 133.879 43.4374 133.879 42.7612C133.879 42.0794 134.003 41.4843 134.25 40.9757C134.5 40.4672 134.847 40.0723 135.29 39.7911C135.736 39.5098 136.254 39.3692 136.845 39.3692C137.436 39.3692 137.953 39.5098 138.396 39.7911C138.842 40.0723 139.189 40.4672 139.436 40.9757C139.686 41.4843 139.811 42.0794 139.811 42.7612C139.811 43.4374 139.686 44.0283 139.436 44.534C139.189 45.0397 138.842 45.4331 138.396 45.7144C137.953 45.9956 137.436 46.1362 136.845 46.1362ZM136.845 45.2328C137.294 45.2328 137.663 45.1178 137.953 44.8877C138.243 44.6575 138.457 44.355 138.597 43.98C138.736 43.605 138.805 43.1987 138.805 42.7612C138.805 42.3237 138.736 41.9161 138.597 41.5382C138.457 41.1604 138.243 40.855 137.953 40.622C137.663 40.3891 137.294 40.2726 136.845 40.2726C136.396 40.2726 136.027 40.3891 135.737 40.622C135.448 40.855 135.233 41.1604 135.094 41.5382C134.955 41.9161 134.885 42.3237 134.885 42.7612C134.885 43.1987 134.955 43.605 135.094 43.98C135.233 44.355 135.448 44.6575 135.737 44.8877C136.027 45.1178 136.396 45.2328 136.845 45.2328ZM144.005 46.1362C143.414 46.1362 142.896 45.9956 142.45 45.7144C142.007 45.4331 141.66 45.0397 141.41 44.534C141.163 44.0283 141.039 43.4374 141.039 42.7612C141.039 42.0794 141.163 41.4843 141.41 40.9757C141.66 40.4672 142.007 40.0723 142.45 39.7911C142.896 39.5098 143.414 39.3692 144.005 39.3692C144.596 39.3692 145.113 39.5098 145.557 39.7911C146.003 40.0723 146.349 40.4672 146.596 40.9757C146.846 41.4843 146.971 42.0794 146.971 42.7612C146.971 43.4374 146.846 44.0283 146.596 44.534C146.349 45.0397 146.003 45.4331 145.557 45.7144C145.113 45.9956 144.596 46.1362 144.005 46.1362ZM144.005 45.2328C144.454 45.2328 144.824 45.1178 145.113 44.8877C145.403 44.6575 145.618 44.355 145.757 43.98C145.896 43.605 145.966 43.1987 145.966 42.7612C145.966 42.3237 145.896 41.9161 145.757 41.5382C145.618 41.1604 145.403 40.855 145.113 40.622C144.824 40.3891 144.454 40.2726 144.005 40.2726C143.557 40.2726 143.187 40.3891 142.897 40.622C142.608 40.855 142.393 41.1604 142.254 41.5382C142.115 41.9161 142.045 42.3237 142.045 42.7612C142.045 43.1987 142.115 43.605 142.254 43.98C142.393 44.355 142.608 44.6575 142.897 44.8877C143.187 45.1178 143.557 45.2328 144.005 45.2328ZM149.512 37.2726V45.9999H148.506V37.2726H149.512Z" fill="#60779A"/>
<path d="M26.8655 53.7228C19.9701 53.7228 13.4139 51.1224 8.42136 46.3738C7.72429 45.7332 7.0649 45.036 6.46203 44.3387L10.7763 40.6266C11.2662 41.1919 11.7748 41.7383 12.3212 42.2471C16.2587 45.9781 21.4396 48.0321 26.8655 48.0321C38.5461 48.0321 48.0413 38.5349 48.0413 26.852C48.0413 15.169 38.5461 5.67189 26.8655 5.67189C16.1457 5.67189 7.27214 13.6804 5.878 24.0255H13.9791V29.6973H0V26.852C0 12.041 12.0574 0 26.8655 0C41.6735 0 53.7309 12.041 53.7309 26.852C53.7309 41.663 41.6735 53.7228 26.8655 53.7228Z" fill="#60779A"/>
<path d="M42.5965 24.0068V26.8521C42.584 27.832 42.4961 28.7804 42.3328 29.6975C42.3139 29.7729 42.2951 29.8294 42.2951 29.9048C40.8633 37.1218 34.4955 42.5865 26.8654 42.5865C19.1599 42.5865 12.7356 37.0088 11.4168 29.6975C11.2284 28.7742 11.153 27.832 11.153 26.8521C11.153 25.8911 11.2284 24.9301 11.4168 24.0068C12.7356 16.6955 19.1599 11.1367 26.8654 11.1367V16.8085C21.3265 16.8085 16.8238 21.331 16.8238 26.8521C16.8238 32.3921 21.3265 36.8957 26.8654 36.8957C30.8029 36.8957 34.2317 34.6157 35.8708 31.2992C36.1157 30.7904 36.3417 30.244 36.4925 29.6975H27.4305V24.0068H42.5965Z" fill="#990000"/>
</svg>
