<svg width="58" height="75" viewBox="0 0 58 75" fill="none" xmlns="http://www.w3.org/2000/svg">
<path d="M25.1168 0.212265C16.7279 1.2364 9.30285 5.87514 4.5888 13.014C2.48028 16.2069 1.07962 19.7613 0.31152 23.8578C-0.0348796 25.7555 -0.110184 30.1382 0.175972 32.322C0.944076 38.0903 3.33875 43.3164 7.26964 47.7744L8.57993 49.2504L5.47739 57.6092C3.77552 62.2178 2.37486 66.1336 2.37486 66.3144C2.37486 66.5102 2.51041 66.7812 2.67607 66.9319C2.93211 67.1728 3.23333 67.1879 6.2455 67.0975C8.0528 67.0523 10.4475 66.962 11.562 66.9168L13.5952 66.8264L17.4357 70.3205C19.5442 72.2483 21.4268 73.89 21.6226 73.9803C21.8485 74.0858 22.0594 74.0858 22.3154 73.9653C22.6769 73.7996 22.8124 73.4833 26.9391 62.2329C27.7976 59.8834 28.5356 57.9706 28.5807 57.9706C28.6259 57.9706 29.3639 59.8834 30.2224 62.2329C34.3491 73.4833 34.4846 73.7996 34.8461 73.9653C35.1021 74.0858 35.313 74.0858 35.5539 73.9803C35.7347 73.89 37.6173 72.2483 39.7258 70.3205L43.5663 66.8415L45.5995 66.9168C46.714 66.962 49.1087 67.0523 50.916 67.0975C53.9282 67.1879 54.2294 67.1728 54.4854 66.9319C54.6511 66.7812 54.7866 66.5102 54.7866 66.3144C54.7866 66.1336 53.386 62.2178 51.6841 57.6092L48.5816 49.2504L49.8919 47.7744C52.2564 45.1087 54.3348 41.6296 55.5246 38.3614C56.7747 34.9275 57.2717 31.7648 57.1512 27.7736C57.0156 23.2253 56.112 19.5956 54.139 15.74C48.6117 4.92631 37.06 -1.24864 25.1168 0.212265ZM31.367 1.94426C39.0631 2.80273 45.9459 6.82397 50.4642 13.1044C52.4823 15.9358 54.2294 20.0173 54.9372 23.5717C55.3589 25.65 55.5096 29.6111 55.2535 31.7196C53.9884 42.0664 47.0002 50.7264 37.2257 54.0398C21.0353 59.5069 3.88094 48.6781 1.90797 31.7346C1.667 29.5659 1.80254 25.65 2.22425 23.5717C2.93211 20.0173 4.67917 15.9358 6.69732 13.1044C12.3602 5.24258 21.9389 0.889999 31.367 1.94426ZM11.3361 51.4945C15.3272 54.5669 20.7039 56.6754 25.6891 57.1574C26.2764 57.2176 26.7734 57.2929 26.7734 57.3532C26.7885 57.5941 21.5774 71.5254 21.4871 71.4953C21.4268 71.4652 19.8454 70.0645 17.9779 68.3626C16.0953 66.6758 14.4687 65.23 14.3482 65.1547C14.2278 65.0944 11.9987 65.0944 9.42334 65.1848C6.83287 65.2601 4.67917 65.3053 4.64905 65.2752C4.57374 65.1848 9.95047 50.5908 10.0559 50.5908C10.1011 50.5908 10.6734 50.9975 11.3361 51.4945ZM49.8768 57.9104C51.3528 61.9166 52.5426 65.23 52.5124 65.2752C52.4823 65.3053 50.3286 65.2601 47.7382 65.1848C45.1628 65.0944 42.9488 65.0944 42.8283 65.1547C42.7078 65.2149 41.0813 66.6608 39.1987 68.3626C37.316 70.0645 35.7347 71.4652 35.6744 71.4953C35.584 71.5254 30.6742 58.4526 30.4483 57.5791C30.373 57.2778 30.4483 57.2477 31.4724 57.1574C36.5178 56.6604 41.8192 54.582 45.8254 51.4945C46.4881 50.9975 47.0604 50.5908 47.1056 50.5908C47.1508 50.5908 48.3858 53.8892 49.8768 57.9104Z" fill="#990000"/>
<path d="M25.1167 7.57719C20.5533 8.39048 16.6525 10.4237 13.3994 13.722C10.4023 16.7643 8.32389 20.7705 7.55579 24.9875C7.19433 26.9003 7.20939 30.4546 7.55579 32.2921C8.85102 39.1447 13.0982 44.7926 19.1376 47.7144C22.7221 49.4464 24.6499 49.8982 28.5807 49.8982C30.87 49.8982 31.623 49.8379 32.8279 49.5669C37.301 48.5879 41.1716 46.4041 44.1687 43.1811C46.9399 40.199 48.8376 36.4338 49.5906 32.3674C49.9521 30.4697 49.9521 26.9454 49.6057 24.9875C48.8376 20.7103 46.7441 16.7191 43.6265 13.5865C40.7349 10.6797 37.0299 8.64651 32.9484 7.74286C31.4272 7.39646 26.668 7.3061 25.1167 7.57719ZM31.8339 9.39956C37.8884 10.4538 43.1898 14.3395 45.961 19.7765C48.3556 24.4604 48.7472 30.2287 47.0152 35.1084C45.0121 40.7261 40.3734 45.2896 34.7557 47.1722C32.5568 47.8951 31.2465 48.0909 28.5807 48.0909C25.8547 48.0909 24.6348 47.9102 22.3154 47.127C16.7279 45.2293 12.1494 40.7261 10.1463 35.1084C8.7456 31.1926 8.71548 26.584 10.071 22.4724C12.2849 15.7703 18.1737 10.6797 25.1921 9.41462C26.8337 9.12846 30.1772 9.1134 31.8339 9.39956Z" fill="#990000"/>
<path d="M27.9632 15.2882C27.8427 15.4237 27.0144 17.5172 26.0957 19.9269L24.439 24.3097L19.7701 24.5054C17.2098 24.6109 14.9506 24.7615 14.7699 24.8368C14.4235 24.9874 14.1825 25.5898 14.3181 25.9513C14.3633 26.0718 16.0651 27.5026 18.0984 29.1291C20.1466 30.7708 21.8033 32.2015 21.8033 32.307C21.8033 32.4275 21.2611 34.4908 20.5985 36.8704C19.9358 39.2651 19.3936 41.3585 19.3936 41.5091C19.3936 41.8857 19.8454 42.3074 20.2521 42.3074C20.4177 42.3074 22.3606 41.1176 24.5745 39.6717L28.5807 37.0361L29.6802 37.7439C30.2675 38.1355 32.0748 39.3103 33.6713 40.3796C35.2828 41.4489 36.7286 42.3074 36.9244 42.3074C37.3311 42.3074 37.7678 41.8706 37.7678 41.4941C37.7678 41.3435 37.2256 39.25 36.563 36.8553C35.8852 34.4456 35.3581 32.3823 35.3882 32.2618C35.4183 32.1262 37.06 30.7406 39.0329 29.1442C41.021 27.5628 42.7078 26.1621 42.7831 26.0266C43.009 25.6802 42.7831 25.0024 42.3915 24.8368C42.2108 24.7615 39.9667 24.6109 37.3913 24.5054L32.7224 24.3097L31.0658 19.9269C30.1621 17.5172 29.3187 15.4237 29.1982 15.2882C29.0928 15.1526 28.8066 15.0472 28.5807 15.0472C28.3548 15.0472 28.0686 15.1526 27.9632 15.2882ZM29.9362 22.0806C30.629 23.9482 31.3218 25.6199 31.4573 25.7856C31.6682 26.0567 31.9845 26.1019 35.3732 26.2224C37.3913 26.2977 39.1384 26.4031 39.2589 26.4332C39.3643 26.4634 38.1293 27.5628 36.4274 28.9183C33.6261 31.1623 33.4002 31.3732 33.4002 31.81C33.4002 32.0811 33.837 33.8432 34.3791 35.7559C34.9063 37.6536 35.3129 39.235 35.2979 39.25C35.2828 39.2651 33.852 38.3313 32.12 37.1867C30.1621 35.8764 28.8066 35.0782 28.5807 35.0782C28.3548 35.0782 26.9993 35.8764 25.0414 37.1867C23.3094 38.3313 21.8786 39.2651 21.8636 39.25C21.8485 39.235 22.2552 37.6536 22.7823 35.7559C23.3245 33.8432 23.7612 32.0811 23.7612 31.81C23.7612 31.3732 23.5353 31.1623 20.734 28.9183C19.0623 27.5779 17.7218 26.4784 17.752 26.4784C17.7821 26.4634 19.5442 26.373 21.6377 26.2676C25.1318 26.0868 25.4932 26.0567 25.7191 25.7856C25.8396 25.6199 26.5324 23.9482 27.2252 22.0806C27.9331 20.198 28.5355 18.6618 28.5807 18.6618C28.6259 18.6618 29.2283 20.198 29.9362 22.0806Z" fill="#990000"/>
</svg>
