<svg width="47" height="39" viewBox="0 0 47 39" fill="none" xmlns="http://www.w3.org/2000/svg">
<path d="M21.9098 0.141582C21.4898 0.232876 17.9204 1.71179 11.3292 4.53267C2.0723 8.49469 1.3511 8.82334 0.903779 9.22502C0.246485 9.82754 0.00912908 10.4027 0 11.3521C0 12.2011 0.191711 12.7032 0.739455 13.3148C1.09549 13.7074 1.69801 14.0452 3.12214 14.6386L3.97115 14.9946V20.3534V25.7121L3.7064 25.8217C2.66569 26.2507 2.20924 27.6475 2.75698 28.7338C2.94869 29.1264 2.97608 29.2542 2.89392 29.3729C2.6383 29.7289 2.43746 30.1854 2.38269 30.5231C2.3553 30.724 2.20011 32.2394 2.05404 33.8826C1.78017 36.8587 1.78017 36.8861 1.95362 37.2695C2.04491 37.4886 2.26401 37.7625 2.42833 37.8812C2.72959 38.0912 2.81176 38.1003 4.47325 38.1277C5.54135 38.1459 6.33558 38.1185 6.54555 38.0638C6.95636 37.936 7.41281 37.4339 7.48584 37.0139C7.55888 36.667 7.02939 30.6875 6.89245 30.2036C6.84681 30.0393 6.70074 29.7472 6.58206 29.5646L6.36297 29.2268L6.59119 28.7521C7.16633 27.5927 6.75552 26.4425 5.48657 25.6847C5.34964 25.6026 5.34051 25.1826 5.35877 20.5998L5.38616 15.6062L7.25762 16.4096L9.12908 17.213L9.18385 20.3534C9.24775 23.8315 9.26601 23.9593 9.86853 25.1005C11.0462 27.2823 14.0405 29.1538 17.8291 30.0576C19.7645 30.5231 20.6317 30.6144 23.3248 30.6144C25.2875 30.6144 26.0544 30.5779 26.8577 30.4501C29.1491 30.085 30.8654 29.5646 32.6091 28.6973C34.5992 27.7205 36.0416 26.4698 36.781 25.1005C37.3836 23.9593 37.4018 23.8315 37.4657 20.3534L37.5205 17.213L41.1721 15.6428C45.4811 13.7987 45.4719 13.7987 45.9101 13.3057C46.4579 12.7032 46.6496 12.2011 46.6496 11.3521C46.6404 10.4027 46.4031 9.82754 45.7458 9.22502C45.2985 8.82334 44.5773 8.49469 35.3204 4.53267C27.9167 1.36488 25.1963 0.242004 24.6759 0.132454C23.8086 -0.0501251 22.7588 -0.0409966 21.9098 0.141582ZM24.3746 1.49269C24.7946 1.58398 28.1541 2.98073 34.4166 5.65555C39.5837 7.87391 44.0387 9.79102 44.3034 9.91883C45.0794 10.2931 45.4172 10.9687 45.2254 11.7173C45.0246 12.4932 45.3076 12.3472 34.8822 16.8204C29.5508 19.1027 24.9589 21.038 24.6668 21.1202C23.9273 21.3302 22.6219 21.321 21.8824 21.0928C21.0334 20.8189 6.88332 14.739 6.96549 14.6751C7.002 14.6386 9.95069 14.1091 13.511 13.4974L20.0018 12.3745L20.4309 12.7032C21.6085 13.5978 24.2651 13.7713 25.7075 13.0318C26.7482 12.5024 27.2594 11.4616 26.8486 10.6857C26.3556 9.7545 25.0411 9.19763 23.3248 9.19763C22.2841 9.19763 21.5994 9.33456 20.8782 9.69973C20.4035 9.93708 19.7645 10.5761 19.7645 10.8043C19.7645 10.8865 19.7097 10.9687 19.6549 10.9869C19.591 11.0143 16.1311 11.626 11.9682 12.3472L4.40021 13.6617L3.25908 13.1688C1.97188 12.6119 1.5702 12.3015 1.42414 11.7264C1.23243 10.9595 1.5702 10.2931 2.34617 9.91883C3.98028 9.1246 21.7455 1.60224 22.2384 1.49269C23.0053 1.32837 23.5987 1.32837 24.3746 1.49269ZM24.612 10.7587C25.2967 10.9778 25.6436 11.206 25.5614 11.4069C25.534 11.489 25.3332 11.6351 25.1232 11.7446C24.0916 12.2559 22.5579 12.2559 21.5264 11.7446C21.0516 11.5073 20.9695 11.3247 21.2434 11.1056C21.9007 10.5944 23.553 10.4209 24.612 10.7587ZM15.9759 20.1434C18.7876 21.3484 21.3529 22.4074 21.6816 22.4987C22.494 22.7178 24.1555 22.7178 24.968 22.4987C25.2967 22.4074 27.8619 21.3484 30.6737 20.1434C33.4855 18.9384 35.8408 17.9342 35.9047 17.9068C36.0051 17.8611 36.0233 18.1167 35.9959 19.2122C35.9686 20.4812 35.9503 20.609 35.7129 21.1202C35.1652 22.2979 34.2888 23.156 32.673 24.1237C32.1709 24.4158 31.7418 24.7079 31.7053 24.7627C31.5683 24.9635 31.6322 25.4565 31.8148 25.6391C32.1617 25.986 32.5817 25.8582 33.9967 24.9362C34.4257 24.6623 35.0283 24.1876 35.3478 23.8772C36.0325 23.2199 36.0964 23.3386 35.5943 24.3519C34.4531 26.625 30.7832 28.4965 26.2461 29.1264C25.1141 29.2816 21.5355 29.2816 20.4035 29.1264C15.8663 28.4965 12.1964 26.625 11.0553 24.3519C10.5715 23.3751 10.6171 23.2473 11.247 23.8498C13.9036 26.4516 19.381 27.9761 24.8311 27.6384C25.6801 27.5836 26.4834 27.4923 26.6113 27.4375C26.8851 27.3097 27.0221 26.9446 26.9399 26.6068C26.8486 26.2325 26.4378 26.1047 25.6071 26.196C24.6029 26.2964 22.0285 26.2964 20.9421 26.1777C16.1859 25.6939 12.2512 23.7494 11.0371 21.2937L10.681 20.5816L10.6536 19.2214C10.6262 18.1167 10.6445 17.8611 10.7449 17.9068C10.8088 17.9342 13.1641 18.9384 15.9759 20.1434ZM5.24009 27.2458C5.76045 27.9031 5.10315 28.8069 4.37283 28.4508C3.59686 28.0857 3.83421 27.0085 4.69235 27.0085C4.97535 27.0085 5.09402 27.0632 5.24009 27.2458ZM5.23096 30.1671C5.34964 30.2401 5.47745 30.3953 5.51396 30.514C5.55961 30.6236 5.70567 31.9016 5.83348 33.3532C5.96129 34.8138 6.08909 36.174 6.12561 36.384L6.17126 36.7766H4.7106H3.24082V36.4297C3.25908 35.4255 3.77031 30.5962 3.88899 30.3953C4.15373 29.9571 4.74712 29.8567 5.23096 30.1671Z" fill="#990000"/>
<path d="M28.9573 25.5933C28.1083 25.8398 27.8892 26.0132 27.8892 26.4332C27.8892 26.8075 28.163 27.0996 28.5099 27.0996C28.9846 27.0996 30.3905 26.6614 30.564 26.4514C30.9291 25.995 30.5914 25.356 29.9797 25.3742C29.8063 25.3833 29.3498 25.4746 28.9573 25.5933Z" fill="#990000"/>
</svg>
