<svg width="211" height="50" viewBox="0 0 211 50" fill="none" xmlns="http://www.w3.org/2000/svg">
<path fill-rule="evenodd" clip-rule="evenodd" d="M46.444 26.2271C46.444 13.4104 36.0359 3 23.222 3C10.408 3 0 13.4104 0 26.2271C0 28.6898 0.384251 31.0636 1.09599 33.2918L11.8464 22.539L13.4416 24.1607L20.7377 31.4584L32.1918 20.0018H21.6269V15.4505H39.9586V33.7863H35.4084V23.219L20.7377 37.8929L19.1425 36.2712L11.8464 28.9735L3.06418 37.7577C7.07066 44.7432 14.6019 49.4543 23.222 49.4543C36.0359 49.4543 46.444 39.0439 46.444 26.2271Z" fill="#60779A"/>
<mask id="mask0_245_33" style="mask-type:alpha" maskUnits="userSpaceOnUse" x="0" y="3" width="47" height="47">
<path d="M23.222 3C36.0359 3 46.444 13.4104 46.444 26.2271C46.444 39.0439 36.0359 49.4543 23.222 49.4543C10.408 49.4543 0 39.0439 0 26.2271C0 13.4104 10.408 3 23.222 3Z" fill="#1F2E54"/>
</mask>
<g mask="url(#mask0_245_33)">
<path d="M12 29L1.5 39L5 47C6.33333 48 9.4 50.2 11 51C13 52 20.5 52 22.5 52C24.5 52 38 50 39 49C40 48 43.5 43 44 42C44.4 41.2 45.5 34.5 45.5 33.5H35.5V23L21 38L12 29Z" fill="#990000"/>
</g>
<path d="M63.5781 22V6H73.9844V8.42969H66.4766V12.7734H73.4453V15.2031H66.4766V19.5703H74.0469V22H63.5781ZM81.2695 22.2109C80.3268 22.2109 79.4831 21.9688 78.7383 21.4844C77.9935 21 77.4049 20.2969 76.9727 19.375C76.5404 18.4531 76.3242 17.3333 76.3242 16.0156C76.3242 14.6823 76.543 13.5573 76.9805 12.6406C77.4232 11.7187 78.0195 11.0234 78.7695 10.5547C79.5195 10.0807 80.3555 9.84375 81.2773 9.84375C81.9805 9.84375 82.5586 9.96354 83.0117 10.2031C83.4648 10.4375 83.8242 10.7214 84.0898 11.0547C84.3555 11.3828 84.5612 11.6927 84.707 11.9844H84.8242V6H87.6602V22H84.8789V20.1094H84.707C84.5612 20.401 84.3503 20.7109 84.0742 21.0391C83.7982 21.362 83.4336 21.638 82.9805 21.8672C82.5273 22.0964 81.957 22.2109 81.2695 22.2109ZM82.0586 19.8906C82.6576 19.8906 83.168 19.7292 83.5898 19.4062C84.0117 19.0781 84.332 18.6224 84.5508 18.0391C84.7695 17.4557 84.8789 16.776 84.8789 16C84.8789 15.224 84.7695 14.5495 84.5508 13.9766C84.3372 13.4036 84.0195 12.9583 83.5977 12.6406C83.181 12.3229 82.668 12.1641 82.0586 12.1641C81.4284 12.1641 80.9023 12.3281 80.4805 12.6562C80.0586 12.9844 79.7409 13.4375 79.5273 14.0156C79.3138 14.5937 79.207 15.2552 79.207 16C79.207 16.75 79.3138 17.4193 79.5273 18.0078C79.7461 18.5911 80.0664 19.0521 80.4883 19.3906C80.9154 19.724 81.4388 19.8906 82.0586 19.8906ZM98.3223 16.9531V10H101.15V22H98.4082V19.8672H98.2832C98.0124 20.5391 97.5671 21.0885 96.9473 21.5156C96.3327 21.9427 95.5749 22.1563 94.6738 22.1563C93.8874 22.1563 93.1921 21.9818 92.5879 21.6328C91.9889 21.2786 91.5202 20.7656 91.1816 20.0938C90.8431 19.4167 90.6738 18.599 90.6738 17.6406V10H93.502V17.2031C93.502 17.9635 93.7103 18.5677 94.127 19.0156C94.5436 19.4635 95.0905 19.6875 95.7676 19.6875C96.1842 19.6875 96.5879 19.5859 96.9785 19.3828C97.3691 19.1797 97.6895 18.8776 97.9395 18.4766C98.1947 18.0703 98.3223 17.5625 98.3223 16.9531ZM123.336 11.3984H120.414C120.331 10.9193 120.177 10.4948 119.953 10.125C119.729 9.75 119.451 9.43229 119.117 9.17187C118.784 8.91146 118.404 8.71615 117.977 8.58594C117.555 8.45052 117.099 8.38281 116.609 8.38281C115.74 8.38281 114.969 8.60156 114.297 9.03906C113.625 9.47135 113.099 10.1068 112.719 10.9453C112.339 11.7786 112.148 12.7969 112.148 14C112.148 15.224 112.339 16.2552 112.719 17.0937C113.104 17.9271 113.63 18.5573 114.297 18.9844C114.969 19.4062 115.737 19.6172 116.602 19.6172C117.081 19.6172 117.529 19.5547 117.945 19.4297C118.367 19.2995 118.745 19.1094 119.078 18.8594C119.417 18.6094 119.701 18.3021 119.93 17.9375C120.164 17.5729 120.326 17.1562 120.414 16.6875L123.336 16.7031C123.227 17.4635 122.99 18.1771 122.625 18.8438C122.266 19.5104 121.794 20.099 121.211 20.6094C120.628 21.1146 119.945 21.5104 119.164 21.7969C118.383 22.0781 117.516 22.2187 116.563 22.2187C115.156 22.2187 113.901 21.8932 112.797 21.2422C111.693 20.5911 110.823 19.651 110.188 18.4219C109.552 17.1927 109.234 15.7187 109.234 14C109.234 12.276 109.555 10.8021 110.195 9.57812C110.836 8.34896 111.708 7.40885 112.813 6.75781C113.917 6.10677 115.167 5.78125 116.563 5.78125C117.453 5.78125 118.281 5.90625 119.047 6.15625C119.813 6.40625 120.495 6.77344 121.094 7.25781C121.693 7.73698 122.185 8.32552 122.57 9.02344C122.961 9.71615 123.216 10.5078 123.336 11.3984ZM131.1 22.2344C129.928 22.2344 128.912 21.9766 128.053 21.4609C127.193 20.9453 126.527 20.224 126.053 19.2969C125.584 18.3698 125.35 17.2865 125.35 16.0469C125.35 14.8073 125.584 13.7214 126.053 12.7891C126.527 11.8568 127.193 11.1328 128.053 10.6172C128.912 10.1016 129.928 9.84375 131.1 9.84375C132.271 9.84375 133.287 10.1016 134.146 10.6172C135.006 11.1328 135.67 11.8568 136.139 12.7891C136.613 13.7214 136.85 14.8073 136.85 16.0469C136.85 17.2865 136.613 18.3698 136.139 19.2969C135.67 20.224 135.006 20.9453 134.146 21.4609C133.287 21.9766 132.271 22.2344 131.1 22.2344ZM131.115 19.9687C131.751 19.9687 132.282 19.7943 132.709 19.4453C133.136 19.0911 133.454 18.6172 133.662 18.0234C133.876 17.4297 133.982 16.7682 133.982 16.0391C133.982 15.3047 133.876 14.6406 133.662 14.0469C133.454 13.4479 133.136 12.9714 132.709 12.6172C132.282 12.263 131.751 12.0859 131.115 12.0859C130.464 12.0859 129.923 12.263 129.49 12.6172C129.063 12.9714 128.743 13.4479 128.529 14.0469C128.321 14.6406 128.217 15.3047 128.217 16.0391C128.217 16.7682 128.321 17.4297 128.529 18.0234C128.743 18.6172 129.063 19.0911 129.49 19.4453C129.923 19.7943 130.464 19.9687 131.115 19.9687ZM145.328 10V12.1875H138.234V10H145.328ZM140.008 22V8.86719C140.008 8.05989 140.174 7.38802 140.508 6.85156C140.846 6.3151 141.299 5.91406 141.867 5.64844C142.435 5.38281 143.065 5.25 143.758 5.25C144.247 5.25 144.682 5.28906 145.063 5.36719C145.443 5.44531 145.724 5.51562 145.906 5.57812L145.344 7.76562C145.224 7.72917 145.073 7.69271 144.891 7.65625C144.708 7.61458 144.505 7.59375 144.281 7.59375C143.755 7.59375 143.383 7.72135 143.164 7.97656C142.951 8.22656 142.844 8.58594 142.844 9.05469V22H140.008ZM150.588 22.2422C149.827 22.2422 149.143 22.1068 148.533 21.8359C147.929 21.5599 147.45 21.1536 147.096 20.6172C146.747 20.0807 146.572 19.4193 146.572 18.6328C146.572 17.9557 146.697 17.3958 146.947 16.9531C147.197 16.5104 147.538 16.1562 147.971 15.8906C148.403 15.625 148.89 15.4245 149.432 15.2891C149.979 15.1484 150.544 15.0469 151.127 14.9844C151.83 14.9115 152.4 14.8464 152.838 14.7891C153.275 14.7266 153.593 14.6328 153.791 14.5078C153.994 14.3776 154.096 14.1771 154.096 13.9062V13.8594C154.096 13.2708 153.921 12.8151 153.572 12.4922C153.223 12.1693 152.721 12.0078 152.064 12.0078C151.372 12.0078 150.822 12.1589 150.416 12.4609C150.015 12.763 149.744 13.1198 149.604 13.5312L146.963 13.1562C147.171 12.4271 147.515 11.8177 147.994 11.3281C148.473 10.8333 149.059 10.4635 149.752 10.2187C150.445 9.96875 151.21 9.84375 152.049 9.84375C152.627 9.84375 153.202 9.91146 153.775 10.0469C154.348 10.1823 154.872 10.4062 155.346 10.7187C155.82 11.026 156.2 11.4453 156.486 11.9766C156.778 12.5078 156.924 13.1719 156.924 13.9687V22H154.205V20.3516H154.111C153.939 20.6849 153.697 20.9974 153.385 21.2891C153.077 21.5755 152.689 21.8073 152.221 21.9844C151.757 22.1563 151.213 22.2422 150.588 22.2422ZM151.322 20.1641C151.89 20.1641 152.382 20.0521 152.799 19.8281C153.215 19.599 153.536 19.2969 153.76 18.9219C153.989 18.5469 154.104 18.138 154.104 17.6953V16.2812C154.015 16.3542 153.864 16.4219 153.65 16.4844C153.442 16.5469 153.208 16.6016 152.947 16.6484C152.687 16.6953 152.429 16.737 152.174 16.7734C151.919 16.8099 151.697 16.8411 151.51 16.8672C151.088 16.9245 150.71 17.0182 150.377 17.1484C150.044 17.2786 149.781 17.4609 149.588 17.6953C149.395 17.9245 149.299 18.2214 149.299 18.5859C149.299 19.1068 149.489 19.5 149.869 19.7656C150.249 20.0312 150.734 20.1641 151.322 20.1641ZM159.768 22V10H162.471V12.0391H162.611C162.861 11.3516 163.275 10.8151 163.854 10.4297C164.432 10.0391 165.122 9.84375 165.924 9.84375C166.736 9.84375 167.421 10.0417 167.979 10.4375C168.541 10.8281 168.937 11.362 169.166 12.0391H169.291C169.557 11.3724 170.005 10.8411 170.635 10.4453C171.27 10.0443 172.023 9.84375 172.893 9.84375C173.997 9.84375 174.898 10.1927 175.596 10.8906C176.294 11.5885 176.643 12.6068 176.643 13.9453V22H173.807V14.3828C173.807 13.638 173.609 13.0937 173.213 12.75C172.817 12.401 172.333 12.2266 171.76 12.2266C171.077 12.2266 170.544 12.4401 170.158 12.8672C169.778 13.2891 169.588 13.8385 169.588 14.5156V22H166.814V14.2656C166.814 13.6458 166.627 13.151 166.252 12.7812C165.882 12.4115 165.398 12.2266 164.799 12.2266C164.393 12.2266 164.023 12.3307 163.689 12.5391C163.356 12.7422 163.09 13.0312 162.893 13.4062C162.695 13.776 162.596 14.2083 162.596 14.7031V22H159.768Z" fill="#01102E"/>
<path d="M69.9773 37.2727V46H68.9545L64.1989 39.1477H64.1136V46H63.0568V37.2727H64.0795L68.8523 44.142H68.9375V37.2727H69.9773ZM74.4817 46.1534C74.067 46.1534 73.6906 46.0753 73.3525 45.919C73.0144 45.7599 72.746 45.5312 72.5471 45.233C72.3482 44.9318 72.2488 44.5682 72.2488 44.142C72.2488 43.767 72.3227 43.4631 72.4704 43.2301C72.6181 42.9943 72.8156 42.8097 73.0627 42.6761C73.3099 42.5426 73.5826 42.4432 73.8809 42.3778C74.182 42.3097 74.4846 42.2557 74.7886 42.2159C75.1863 42.1648 75.5087 42.1264 75.7559 42.1009C76.0059 42.0724 76.1877 42.0256 76.3013 41.9602C76.4178 41.8949 76.4761 41.7812 76.4761 41.6193V41.5852C76.4761 41.1648 76.361 40.8381 76.1309 40.6051C75.9036 40.3722 75.5585 40.2557 75.0954 40.2557C74.6153 40.2557 74.2388 40.3608 73.9661 40.571C73.6934 40.7812 73.5016 41.0057 73.3908 41.2443L72.4363 40.9034C72.6067 40.5057 72.834 40.196 73.1181 39.9744C73.405 39.75 73.7175 39.5937 74.0556 39.5057C74.3965 39.4148 74.7317 39.3693 75.0613 39.3693C75.2715 39.3693 75.513 39.3949 75.7857 39.446C76.0613 39.4943 76.3269 39.5952 76.5826 39.7486C76.8411 39.902 77.0556 40.1335 77.2261 40.4432C77.3965 40.7528 77.4817 41.1676 77.4817 41.6875V46H76.4761V45.1136H76.4249C76.3567 45.2557 76.2431 45.4077 76.084 45.5696C75.9249 45.7315 75.7133 45.8693 75.4491 45.983C75.1849 46.0966 74.8624 46.1534 74.4817 46.1534ZM74.6352 45.25C75.0329 45.25 75.3681 45.1719 75.6408 45.0156C75.9164 44.8594 76.1238 44.6577 76.263 44.4105C76.405 44.1634 76.4761 43.9034 76.4761 43.6307V42.7102C76.4335 42.7614 76.3397 42.8082 76.1948 42.8509C76.0528 42.8906 75.888 42.9261 75.7005 42.9574C75.5158 42.9858 75.3354 43.0114 75.1593 43.0341C74.986 43.054 74.8454 43.071 74.7374 43.0852C74.4761 43.1193 74.2317 43.1747 74.0045 43.2514C73.78 43.3253 73.5982 43.4375 73.459 43.5881C73.3227 43.7358 73.2545 43.9375 73.2545 44.1932C73.2545 44.5426 73.3837 44.8068 73.6423 44.9858C73.9036 45.1619 74.2346 45.25 74.6352 45.25ZM82.7639 39.4545V40.3068H79.3719V39.4545H82.7639ZM80.3605 37.8864H81.3662V44.125C81.3662 44.4091 81.4074 44.6222 81.4898 44.7642C81.575 44.9034 81.683 44.9972 81.8136 45.0455C81.9472 45.0909 82.0878 45.1136 82.2355 45.1136C82.3463 45.1136 82.4372 45.108 82.5082 45.0966C82.5793 45.0824 82.6361 45.071 82.6787 45.0625L82.8832 45.9659C82.8151 45.9915 82.7199 46.017 82.5977 46.0426C82.4756 46.071 82.3207 46.0852 82.1332 46.0852C81.8491 46.0852 81.5707 46.0241 81.298 45.902C81.0281 45.7798 80.8037 45.5938 80.6247 45.3438C80.4486 45.0938 80.3605 44.7784 80.3605 44.3977V37.8864ZM84.8767 46V39.4545H85.8824V46H84.8767ZM85.3881 38.3636C85.192 38.3636 85.023 38.2969 84.881 38.1634C84.7418 38.0298 84.6722 37.8693 84.6722 37.6818C84.6722 37.4943 84.7418 37.3338 84.881 37.2003C85.023 37.0668 85.192 37 85.3881 37C85.5841 37 85.7517 37.0668 85.8909 37.2003C86.033 37.3338 86.104 37.4943 86.104 37.6818C86.104 37.8693 86.033 38.0298 85.8909 38.1634C85.7517 38.2969 85.5841 38.3636 85.3881 38.3636ZM90.9835 46.1364C90.3925 46.1364 89.8741 45.9957 89.4281 45.7145C88.9849 45.4332 88.6383 45.0398 88.3883 44.5341C88.1411 44.0284 88.0175 43.4375 88.0175 42.7614C88.0175 42.0795 88.1411 41.4844 88.3883 40.9759C88.6383 40.4673 88.9849 40.0724 89.4281 39.7912C89.8741 39.5099 90.3925 39.3693 90.9835 39.3693C91.5744 39.3693 92.0914 39.5099 92.5346 39.7912C92.9806 40.0724 93.3272 40.4673 93.5744 40.9759C93.8244 41.4844 93.9494 42.0795 93.9494 42.7614C93.9494 43.4375 93.8244 44.0284 93.5744 44.5341C93.3272 45.0398 92.9806 45.4332 92.5346 45.7145C92.0914 45.9957 91.5744 46.1364 90.9835 46.1364ZM90.9835 45.233C91.4323 45.233 91.8016 45.1179 92.0914 44.8878C92.3812 44.6577 92.5957 44.3551 92.7349 43.9801C92.8741 43.6051 92.9437 43.1989 92.9437 42.7614C92.9437 42.3239 92.8741 41.9162 92.7349 41.5384C92.5957 41.1605 92.3812 40.8551 92.0914 40.6222C91.8016 40.3892 91.4323 40.2727 90.9835 40.2727C90.5346 40.2727 90.1653 40.3892 89.8755 40.6222C89.5857 40.8551 89.3712 41.1605 89.232 41.5384C89.0928 41.9162 89.0232 42.3239 89.0232 42.7614C89.0232 43.1989 89.0928 43.6051 89.232 43.9801C89.3712 44.3551 89.5857 44.6577 89.8755 44.8878C90.1653 45.1179 90.5346 45.233 90.9835 45.233ZM97.0902 42.0625V46H96.0845V39.4545H97.0561V40.4773H97.1413C97.2947 40.1449 97.5277 39.8778 97.8402 39.6761C98.1527 39.4716 98.5561 39.3693 99.0504 39.3693C99.4936 39.3693 99.8814 39.4602 100.214 39.642C100.546 39.821 100.805 40.0938 100.989 40.4602C101.174 40.8239 101.266 41.2841 101.266 41.8409V46H100.261V41.9091C100.261 41.3949 100.127 40.9943 99.8601 40.7074C99.593 40.4176 99.2266 40.2727 98.7607 40.2727C98.4396 40.2727 98.1527 40.3423 97.8999 40.4815C97.6499 40.6207 97.4524 40.8239 97.3075 41.0909C97.1626 41.358 97.0902 41.6818 97.0902 42.0625ZM105.63 46.1534C105.215 46.1534 104.839 46.0753 104.501 45.919C104.163 45.7599 103.894 45.5312 103.696 45.233C103.497 44.9318 103.397 44.5682 103.397 44.142C103.397 43.767 103.471 43.4631 103.619 43.2301C103.767 42.9943 103.964 42.8097 104.211 42.6761C104.458 42.5426 104.731 42.4432 105.029 42.3778C105.33 42.3097 105.633 42.2557 105.937 42.2159C106.335 42.1648 106.657 42.1264 106.904 42.1009C107.154 42.0724 107.336 42.0256 107.45 41.9602C107.566 41.8949 107.625 41.7812 107.625 41.6193V41.5852C107.625 41.1648 107.509 40.8381 107.279 40.6051C107.052 40.3722 106.707 40.2557 106.244 40.2557C105.764 40.2557 105.387 40.3608 105.115 40.571C104.842 40.7812 104.65 41.0057 104.539 41.2443L103.585 40.9034C103.755 40.5057 103.982 40.196 104.267 39.9744C104.553 39.75 104.866 39.5937 105.204 39.5057C105.545 39.4148 105.88 39.3693 106.21 39.3693C106.42 39.3693 106.661 39.3949 106.934 39.446C107.21 39.4943 107.475 39.5952 107.731 39.7486C107.99 39.902 108.204 40.1335 108.375 40.4432C108.545 40.7528 108.63 41.1676 108.63 41.6875V46H107.625V45.1136H107.573C107.505 45.2557 107.392 45.4077 107.232 45.5696C107.073 45.7315 106.862 45.8693 106.598 45.983C106.333 46.0966 106.011 46.1534 105.63 46.1534ZM105.784 45.25C106.181 45.25 106.517 45.1719 106.789 45.0156C107.065 44.8594 107.272 44.6577 107.411 44.4105C107.553 44.1634 107.625 43.9034 107.625 43.6307V42.7102C107.582 42.7614 107.488 42.8082 107.343 42.8509C107.201 42.8906 107.036 42.9261 106.849 42.9574C106.664 42.9858 106.484 43.0114 106.308 43.0341C106.134 43.054 105.994 43.071 105.886 43.0852C105.625 43.1193 105.38 43.1747 105.153 43.2514C104.928 43.3253 104.747 43.4375 104.607 43.5881C104.471 43.7358 104.403 43.9375 104.403 44.1932C104.403 44.5426 104.532 44.8068 104.791 44.9858C105.052 45.1619 105.383 45.25 105.784 45.25ZM112.071 37.2727V46H111.066V37.2727H112.071ZM118.625 46V37.2727H123.892V38.2102H119.682V41.1591H123.619V42.0966H119.682V45.0625H123.96V46H118.625ZM128.732 46.1364C128.186 46.1364 127.705 45.9986 127.287 45.723C126.87 45.4446 126.543 45.0526 126.307 44.5469C126.071 44.0384 125.953 43.4375 125.953 42.7443C125.953 42.0568 126.071 41.4602 126.307 40.9545C126.543 40.4489 126.871 40.0582 127.292 39.7827C127.712 39.5071 128.198 39.3693 128.749 39.3693C129.175 39.3693 129.512 39.4403 129.759 39.5824C130.009 39.7216 130.199 39.8807 130.33 40.0597C130.463 40.2358 130.567 40.3807 130.641 40.4943H130.726V37.2727H131.732V46H130.76V44.9943H130.641C130.567 45.1136 130.462 45.2642 130.326 45.446C130.189 45.625 129.995 45.7855 129.742 45.9276C129.489 46.0668 129.152 46.1364 128.732 46.1364ZM128.868 45.233C129.272 45.233 129.613 45.1278 129.891 44.9176C130.169 44.7045 130.381 44.4105 130.526 44.0355C130.671 43.6577 130.743 43.2216 130.743 42.7273C130.743 42.2386 130.672 41.8111 130.53 41.4446C130.388 41.0753 130.178 40.7884 129.9 40.5838C129.621 40.3764 129.277 40.2727 128.868 40.2727C128.442 40.2727 128.087 40.3821 127.803 40.6009C127.522 40.8168 127.31 41.1108 127.168 41.483C127.029 41.8523 126.959 42.267 126.959 42.7273C126.959 43.1932 127.03 43.6165 127.172 43.9972C127.317 44.375 127.53 44.6761 127.811 44.9006C128.096 45.1222 128.448 45.233 128.868 45.233ZM138.438 43.3239V39.4545H139.444V46H138.438V44.892H138.37C138.217 45.2244 137.978 45.5071 137.654 45.7401C137.33 45.9702 136.921 46.0852 136.427 46.0852C136.018 46.0852 135.654 45.9957 135.336 45.8168C135.018 45.6349 134.768 45.3622 134.586 44.9986C134.404 44.6321 134.313 44.1705 134.313 43.6136V39.4545H135.319V43.5455C135.319 44.0227 135.453 44.4034 135.72 44.6875C135.99 44.9716 136.333 45.1136 136.751 45.1136C137.001 45.1136 137.255 45.0497 137.514 44.9219C137.775 44.794 137.994 44.598 138.17 44.3338C138.349 44.0696 138.438 43.733 138.438 43.3239ZM144.545 46.1364C143.932 46.1364 143.403 45.9915 142.96 45.7017C142.517 45.4119 142.176 45.0128 141.937 44.5043C141.699 43.9957 141.579 43.4148 141.579 42.7614C141.579 42.0966 141.701 41.5099 141.946 41.0014C142.193 40.4901 142.537 40.0909 142.977 39.804C143.42 39.5142 143.937 39.3693 144.528 39.3693C144.988 39.3693 145.403 39.4545 145.772 39.625C146.142 39.7955 146.444 40.0341 146.68 40.3409C146.916 40.6477 147.062 41.0057 147.119 41.4148H146.113C146.037 41.1165 145.866 40.8523 145.602 40.6222C145.341 40.3892 144.988 40.2727 144.545 40.2727C144.153 40.2727 143.809 40.375 143.514 40.5795C143.221 40.7812 142.993 41.0668 142.828 41.4361C142.666 41.8026 142.585 42.233 142.585 42.7273C142.585 43.233 142.664 43.6733 142.824 44.0483C142.986 44.4233 143.213 44.7145 143.505 44.9219C143.801 45.1293 144.147 45.233 144.545 45.233C144.807 45.233 145.044 45.1875 145.257 45.0966C145.47 45.0057 145.65 44.875 145.798 44.7045C145.946 44.5341 146.051 44.3295 146.113 44.0909H147.119C147.062 44.4773 146.922 44.8253 146.697 45.1349C146.476 45.4418 146.182 45.6861 145.815 45.8679C145.451 46.0469 145.028 46.1364 144.545 46.1364ZM151.115 46.1534C150.701 46.1534 150.324 46.0753 149.986 45.919C149.648 45.7599 149.38 45.5312 149.181 45.233C148.982 44.9318 148.882 44.5682 148.882 44.142C148.882 43.767 148.956 43.4631 149.104 43.2301C149.252 42.9943 149.449 42.8097 149.696 42.6761C149.943 42.5426 150.216 42.4432 150.514 42.3778C150.816 42.3097 151.118 42.2557 151.422 42.2159C151.82 42.1648 152.142 42.1264 152.389 42.1009C152.639 42.0724 152.821 42.0256 152.935 41.9602C153.051 41.8949 153.11 41.7812 153.11 41.6193V41.5852C153.11 41.1648 152.995 40.8381 152.764 40.6051C152.537 40.3722 152.192 40.2557 151.729 40.2557C151.249 40.2557 150.872 40.3608 150.6 40.571C150.327 40.7812 150.135 41.0057 150.024 41.2443L149.07 40.9034C149.24 40.5057 149.468 40.196 149.752 39.9744C150.039 39.75 150.351 39.5937 150.689 39.5057C151.03 39.4148 151.365 39.3693 151.695 39.3693C151.905 39.3693 152.147 39.3949 152.419 39.446C152.695 39.4943 152.961 39.5952 153.216 39.7486C153.475 39.902 153.689 40.1335 153.86 40.4432C154.03 40.7528 154.115 41.1676 154.115 41.6875V46H153.11V45.1136H153.059C152.99 45.2557 152.877 45.4077 152.718 45.5696C152.559 45.7315 152.347 45.8693 152.083 45.983C151.818 46.0966 151.496 46.1534 151.115 46.1534ZM151.269 45.25C151.666 45.25 152.002 45.1719 152.274 45.0156C152.55 44.8594 152.757 44.6577 152.897 44.4105C153.039 44.1634 153.11 43.9034 153.11 43.6307V42.7102C153.067 42.7614 152.973 42.8082 152.828 42.8509C152.686 42.8906 152.522 42.9261 152.334 42.9574C152.149 42.9858 151.969 43.0114 151.793 43.0341C151.62 43.054 151.479 43.071 151.371 43.0852C151.11 43.1193 150.865 43.1747 150.638 43.2514C150.414 43.3253 150.232 43.4375 150.093 43.5881C149.956 43.7358 149.888 43.9375 149.888 44.1932C149.888 44.5426 150.017 44.8068 150.276 44.9858C150.537 45.1619 150.868 45.25 151.269 45.25ZM159.398 39.4545V40.3068H156.005V39.4545H159.398ZM156.994 37.8864H158V44.125C158 44.4091 158.041 44.6222 158.123 44.7642C158.209 44.9034 158.317 44.9972 158.447 45.0455C158.581 45.0909 158.721 45.1136 158.869 45.1136C158.98 45.1136 159.071 45.108 159.142 45.0966C159.213 45.0824 159.27 45.071 159.312 45.0625L159.517 45.9659C159.449 45.9915 159.353 46.017 159.231 46.0426C159.109 46.071 158.954 46.0852 158.767 46.0852C158.483 46.0852 158.204 46.0241 157.932 45.902C157.662 45.7798 157.437 45.5938 157.258 45.3438C157.082 45.0938 156.994 44.7784 156.994 44.3977V37.8864ZM161.51 46V39.4545H162.516V46H161.51ZM162.022 38.3636C161.826 38.3636 161.657 38.2969 161.515 38.1634C161.375 38.0298 161.306 37.8693 161.306 37.6818C161.306 37.4943 161.375 37.3338 161.515 37.2003C161.657 37.0668 161.826 37 162.022 37C162.218 37 162.385 37.0668 162.525 37.2003C162.667 37.3338 162.738 37.4943 162.738 37.6818C162.738 37.8693 162.667 38.0298 162.525 38.1634C162.385 38.2969 162.218 38.3636 162.022 38.3636ZM167.617 46.1364C167.026 46.1364 166.508 45.9957 166.062 45.7145C165.618 45.4332 165.272 45.0398 165.022 44.5341C164.775 44.0284 164.651 43.4375 164.651 42.7614C164.651 42.0795 164.775 41.4844 165.022 40.9759C165.272 40.4673 165.618 40.0724 166.062 39.7912C166.508 39.5099 167.026 39.3693 167.617 39.3693C168.208 39.3693 168.725 39.5099 169.168 39.7912C169.614 40.0724 169.961 40.4673 170.208 40.9759C170.458 41.4844 170.583 42.0795 170.583 42.7614C170.583 43.4375 170.458 44.0284 170.208 44.5341C169.961 45.0398 169.614 45.4332 169.168 45.7145C168.725 45.9957 168.208 46.1364 167.617 46.1364ZM167.617 45.233C168.066 45.233 168.435 45.1179 168.725 44.8878C169.015 44.6577 169.229 44.3551 169.368 43.9801C169.508 43.6051 169.577 43.1989 169.577 42.7614C169.577 42.3239 169.508 41.9162 169.368 41.5384C169.229 41.1605 169.015 40.8551 168.725 40.6222C168.435 40.3892 168.066 40.2727 167.617 40.2727C167.168 40.2727 166.799 40.3892 166.509 40.6222C166.219 40.8551 166.005 41.1605 165.866 41.5384C165.726 41.9162 165.657 42.3239 165.657 42.7614C165.657 43.1989 165.726 43.6051 165.866 43.9801C166.005 44.3551 166.219 44.6577 166.509 44.8878C166.799 45.1179 167.168 45.233 167.617 45.233ZM173.724 42.0625V46H172.718V39.4545H173.69V40.4773H173.775C173.928 40.1449 174.161 39.8778 174.474 39.6761C174.786 39.4716 175.19 39.3693 175.684 39.3693C176.127 39.3693 176.515 39.4602 176.847 39.642C177.18 39.821 177.438 40.0938 177.623 40.4602C177.808 40.8239 177.9 41.2841 177.9 41.8409V46H176.894V41.9091C176.894 41.3949 176.761 40.9943 176.494 40.7074C176.227 40.4176 175.86 40.2727 175.394 40.2727C175.073 40.2727 174.786 40.3423 174.533 40.4815C174.283 40.6207 174.086 40.8239 173.941 41.0909C173.796 41.358 173.724 41.6818 173.724 42.0625Z" fill="#60779A"/>
</svg>
