<svg width="207" height="46" viewBox="0 0 207 46" fill="none" xmlns="http://www.w3.org/2000/svg">
<path d="M76.025 14V13.3H83.125V14L81.75 14.175C81.4833 14.2083 81.325 14.2833 81.275 14.4C81.225 14.5 81.2 14.8333 81.2 15.4V21H80.525C80.075 20.5333 79.575 20.1417 79.025 19.825C78.575 20.225 78.0417 20.5667 77.425 20.85C76.8083 21.1167 76.0583 21.25 75.175 21.25C73.8083 21.25 72.6333 20.9083 71.65 20.225C70.6833 19.525 69.9417 18.5667 69.425 17.35C68.9083 16.1167 68.65 14.7167 68.65 13.15V11.575C68.65 10.0583 68.9083 8.71667 69.425 7.55C69.9417 6.36667 70.7 5.44167 71.7 4.775C72.7 4.09167 73.925 3.75 75.375 3.75C76.7417 3.75 77.8667 4 78.75 4.5C79.65 4.98333 80.3083 5.63333 80.725 6.45C81.1417 7.25 81.3 8.125 81.2 9.075L78.275 9.8C78.4583 8.13333 78.275 6.85833 77.725 5.975C77.175 5.075 76.3583 4.625 75.275 4.625C72.9917 4.625 71.85 6.65 71.85 10.7V14.275C71.85 18.3417 73.0583 20.375 75.475 20.375C76.0083 20.375 76.5417 20.2667 77.075 20.05C77.625 19.8333 78.0833 19.5167 78.45 19.1V15.4C78.45 14.8333 78.425 14.4917 78.375 14.375C78.325 14.2583 78.1667 14.1917 77.9 14.175L76.025 14ZM96.3271 14.4V14.9C96.3271 16.8167 95.8271 18.3583 94.8271 19.525C93.8438 20.675 92.4355 21.25 90.6021 21.25C88.7688 21.25 87.3521 20.675 86.3521 19.525C85.3688 18.3583 84.8771 16.8167 84.8771 14.9V14.4C84.8771 12.4833 85.3688 10.95 86.3521 9.8C87.3521 8.65 88.7688 8.075 90.6021 8.075C92.4355 8.075 93.8438 8.65 94.8271 9.8C95.8271 10.95 96.3271 12.4833 96.3271 14.4ZM93.2521 13.9C93.2521 12.1167 93.0271 10.85 92.5771 10.1C92.1271 9.33333 91.4688 8.95 90.6021 8.95C89.7521 8.95 89.0938 9.33333 88.6271 10.1C88.1771 10.85 87.9521 12.1167 87.9521 13.9V15.4C87.9521 17.1667 88.1771 18.4417 88.6271 19.225C89.0938 19.9917 89.7521 20.375 90.6021 20.375C91.4688 20.375 92.1271 19.9917 92.5771 19.225C93.0271 18.4417 93.2521 17.1667 93.2521 15.4V13.9ZM98.0152 3.2V2.5H102.815V18.9C102.815 19.4667 102.84 19.8083 102.89 19.925C102.94 20.025 103.099 20.0917 103.365 20.125L104.74 20.3V21H98.0152V20.3L99.3902 20.125C99.6569 20.0917 99.8152 20.025 99.8652 19.925C99.9152 19.8083 99.9402 19.4667 99.9402 18.9V4.6C99.9402 4.03333 99.9152 3.7 99.8652 3.6C99.8152 3.48333 99.6569 3.40833 99.3902 3.375L98.0152 3.2ZM119.36 20.3V21H114.71V18.925C114.243 19.6917 113.718 20.275 113.135 20.675C112.568 21.0583 111.893 21.25 111.11 21.25C109.71 21.25 108.593 20.7 107.76 19.6C106.943 18.4833 106.535 16.925 106.535 14.925V14.425C106.535 12.4917 107.01 10.95 107.96 9.8C108.926 8.65 110.243 8.075 111.91 8.075C112.91 8.075 113.793 8.325 114.56 8.825V4.6C114.56 4.03333 114.535 3.7 114.485 3.6C114.435 3.48333 114.276 3.40833 114.01 3.375L112.635 3.2V2.5H117.435V18.9C117.435 19.4667 117.46 19.8083 117.51 19.925C117.56 20.025 117.718 20.0917 117.985 20.125L119.36 20.3ZM109.61 15.675C109.61 17.225 109.801 18.3583 110.185 19.075C110.568 19.7917 111.093 20.15 111.76 20.15C112.176 20.15 112.61 19.9833 113.06 19.65C113.526 19.3 114.026 18.6 114.56 17.55V10C113.926 9.36667 113.151 9.05 112.235 9.05C111.318 9.05 110.651 9.46667 110.235 10.3C109.818 11.1167 109.61 12.2417 109.61 13.675V15.675ZM131.609 18.025C131.309 19.1917 130.75 20.025 129.934 20.525C129.117 21.0083 128.167 21.25 127.084 21.25C125.084 21.25 123.584 20.675 122.584 19.525C121.584 18.3583 121.084 16.8167 121.084 14.9V14.4C121.084 12.4833 121.55 10.95 122.484 9.8C123.434 8.65 124.8 8.075 126.584 8.075C127.584 8.075 128.467 8.275 129.234 8.675C130.017 9.05833 130.625 9.61667 131.059 10.35C131.509 11.0833 131.734 11.975 131.734 13.025C131.734 13.275 131.717 13.5417 131.684 13.825C131.667 14.1083 131.625 14.3917 131.559 14.675H124.159V15.4C124.159 17.1667 124.409 18.4417 124.909 19.225C125.409 19.9917 126.217 20.375 127.334 20.375C128.05 20.375 128.659 20.1667 129.159 19.75C129.659 19.3167 129.942 18.5917 130.009 17.575L131.609 18.025ZM126.584 8.95C125.767 8.95 125.159 9.325 124.759 10.075C124.359 10.825 124.159 12.0667 124.159 13.8H128.684C128.75 13.4667 128.792 13.1583 128.809 12.875C128.842 12.575 128.859 12.3 128.859 12.05C128.859 10.9833 128.65 10.2 128.234 9.7C127.817 9.2 127.267 8.95 126.584 8.95ZM148.291 20.3V21H141.566V20.3L142.941 20.125C143.208 20.0917 143.366 20.025 143.416 19.925C143.466 19.8083 143.491 19.4667 143.491 18.9V12.6C143.491 11.45 143.316 10.6167 142.966 10.1C142.633 9.56667 142.133 9.3 141.466 9.3C141.183 9.3 140.85 9.375 140.466 9.525C140.1 9.65833 139.725 9.90833 139.341 10.275C138.975 10.6417 138.65 11.1833 138.366 11.9V18.9C138.366 19.4667 138.391 19.8083 138.441 19.925C138.491 20.025 138.65 20.0917 138.916 20.125L140.291 20.3V21H133.566V20.3L134.941 20.125C135.208 20.0917 135.366 20.025 135.416 19.925C135.466 19.8083 135.491 19.4667 135.491 18.9V10.425C135.491 9.85833 135.466 9.525 135.416 9.425C135.366 9.30833 135.208 9.23333 134.941 9.2L133.566 9.025V8.325H138.216V10.525C138.7 9.675 139.316 9.05833 140.066 8.675C140.833 8.275 141.6 8.075 142.366 8.075C143.6 8.075 144.575 8.46667 145.291 9.25C146.008 10.0333 146.366 11.1417 146.366 12.575V18.9C146.366 19.4667 146.391 19.8083 146.441 19.925C146.491 20.025 146.65 20.0917 146.916 20.125L148.291 20.3ZM166.908 16.7H167.608V21H155.233V20.3L156.608 20.125C156.875 20.0917 157.033 20.025 157.083 19.925C157.133 19.8083 157.158 19.4667 157.158 18.9V6.1C157.158 5.53333 157.133 5.2 157.083 5.1C157.033 4.98333 156.875 4.90833 156.608 4.875L155.233 4.7V4H167.358V8.3H166.658L165.858 5.525C165.808 5.325 165.75 5.18333 165.683 5.1C165.633 5 165.525 4.94167 165.358 4.925C165.192 4.89167 164.908 4.875 164.508 4.875H160.158V11.975H163.008C163.408 11.975 163.692 11.9667 163.858 11.95C164.025 11.9167 164.133 11.8583 164.183 11.775C164.25 11.675 164.308 11.525 164.358 11.325L164.908 9.3H165.608V15.525H164.908L164.358 13.5C164.308 13.3 164.25 13.1583 164.183 13.075C164.133 12.975 164.025 12.9167 163.858 12.9C163.692 12.8667 163.408 12.85 163.008 12.85H160.158V20.125H164.758C165.158 20.125 165.442 20.1167 165.608 20.1C165.775 20.0667 165.883 20.0083 165.933 19.925C166 19.825 166.058 19.675 166.108 19.475L166.908 16.7ZM176.797 22.25C176.413 23.3 175.988 24.1417 175.522 24.775C175.072 25.4083 174.513 25.8667 173.847 26.15C173.18 26.4333 172.347 26.575 171.347 26.575V23.825C172.363 23.825 173.18 23.75 173.797 23.6C174.43 23.4667 174.913 23.2417 175.247 22.925C175.597 22.625 175.855 22.2333 176.022 21.75L176.272 21H174.972L171.422 10.425C171.305 10.0417 171.205 9.775 171.122 9.625C171.055 9.45833 170.972 9.35 170.872 9.3C170.788 9.25 170.655 9.21667 170.472 9.2L169.097 9.025V8.325H175.847V9.025L174.472 9.2C174.272 9.21667 174.147 9.28333 174.097 9.4C174.063 9.5 174.138 9.84167 174.322 10.425L177.047 18.675L179.872 10.325C180.055 9.79167 180.13 9.48333 180.097 9.4C180.08 9.3 179.947 9.23333 179.697 9.2L178.322 9.025V8.325H183.097V9.025L181.722 9.2C181.472 9.23333 181.305 9.3 181.222 9.4C181.138 9.5 181.005 9.80833 180.822 10.325L176.797 22.25ZM193.938 18.025C193.638 19.1917 193.08 20.025 192.263 20.525C191.446 21.0083 190.496 21.25 189.413 21.25C187.413 21.25 185.913 20.675 184.913 19.525C183.913 18.3583 183.413 16.8167 183.413 14.9V14.4C183.413 12.4833 183.88 10.95 184.813 9.8C185.763 8.65 187.13 8.075 188.913 8.075C189.913 8.075 190.796 8.275 191.563 8.675C192.346 9.05833 192.955 9.61667 193.388 10.35C193.838 11.0833 194.063 11.975 194.063 13.025C194.063 13.275 194.046 13.5417 194.013 13.825C193.996 14.1083 193.955 14.3917 193.888 14.675H186.488V15.4C186.488 17.1667 186.738 18.4417 187.238 19.225C187.738 19.9917 188.546 20.375 189.663 20.375C190.38 20.375 190.988 20.1667 191.488 19.75C191.988 19.3167 192.271 18.5917 192.338 17.575L193.938 18.025ZM188.913 8.95C188.096 8.95 187.488 9.325 187.088 10.075C186.688 10.825 186.488 12.0667 186.488 13.8H191.013C191.08 13.4667 191.121 13.1583 191.138 12.875C191.171 12.575 191.188 12.3 191.188 12.05C191.188 10.9833 190.98 10.2 190.563 9.7C190.146 9.2 189.596 8.95 188.913 8.95Z" fill="#01102E"/>
<path d="M68.9688 42V34H71.6719C72.2995 34 72.8125 34.1133 73.2109 34.3398C73.612 34.5638 73.9089 34.8672 74.1016 35.25C74.2943 35.6328 74.3906 36.0599 74.3906 36.5312C74.3906 37.0026 74.2943 37.431 74.1016 37.8164C73.9115 38.2018 73.6172 38.5091 73.2188 38.7383C72.8203 38.9648 72.3099 39.0781 71.6875 39.0781H69.75V38.2188H71.6563C72.0859 38.2188 72.431 38.1445 72.6914 37.9961C72.9518 37.8477 73.1406 37.6471 73.2578 37.3945C73.3776 37.1393 73.4375 36.8516 73.4375 36.5312C73.4375 36.2109 73.3776 35.9245 73.2578 35.6719C73.1406 35.4193 72.9505 35.2214 72.6875 35.0781C72.4245 34.9323 72.0755 34.8594 71.6406 34.8594H69.9375V42H68.9688ZM75.8262 42V36H76.7168V36.9062H76.7793C76.8887 36.6094 77.0866 36.3685 77.373 36.1836C77.6595 35.9987 77.9824 35.9062 78.3418 35.9062C78.4095 35.9062 78.4941 35.9076 78.5957 35.9102C78.6973 35.9128 78.7741 35.9167 78.8262 35.9219V36.8594C78.7949 36.8516 78.7233 36.8398 78.6113 36.8242C78.502 36.806 78.3861 36.7969 78.2637 36.7969C77.972 36.7969 77.7116 36.8581 77.4824 36.9805C77.2559 37.1003 77.0762 37.2669 76.9434 37.4805C76.8132 37.6914 76.748 37.9323 76.748 38.2031V42H75.8262ZM79.9189 42V36H80.8408V42H79.9189ZM80.3877 35C80.208 35 80.0531 34.9388 79.9229 34.8164C79.7952 34.694 79.7314 34.5469 79.7314 34.375C79.7314 34.2031 79.7952 34.056 79.9229 33.9336C80.0531 33.8112 80.208 33.75 80.3877 33.75C80.5674 33.75 80.721 33.8112 80.8486 33.9336C80.9788 34.056 81.0439 34.2031 81.0439 34.375C81.0439 34.5469 80.9788 34.694 80.8486 34.8164C80.721 34.9388 80.5674 35 80.3877 35ZM87.4355 36L85.2168 42H84.2793L82.0605 36H83.0605L84.7168 40.7812H84.7793L86.4355 36H87.4355ZM90.2354 42.1406C89.8551 42.1406 89.5101 42.069 89.2002 41.9258C88.8903 41.7799 88.6442 41.5703 88.4619 41.2969C88.2796 41.0208 88.1885 40.6875 88.1885 40.2969C88.1885 39.9531 88.2562 39.6745 88.3916 39.4609C88.527 39.2448 88.708 39.0755 88.9346 38.9531C89.1611 38.8307 89.4111 38.7396 89.6846 38.6797C89.9606 38.6172 90.238 38.5677 90.5166 38.5313C90.8812 38.4844 91.1768 38.4492 91.4033 38.4258C91.6325 38.3997 91.7992 38.3568 91.9033 38.2969C92.0101 38.237 92.0635 38.1328 92.0635 37.9844V37.9531C92.0635 37.5677 91.958 37.2682 91.7471 37.0547C91.5387 36.8411 91.2223 36.7344 90.7979 36.7344C90.3577 36.7344 90.0127 36.8307 89.7627 37.0234C89.5127 37.2161 89.3369 37.4219 89.2354 37.6406L88.3604 37.3281C88.5166 36.9635 88.7249 36.6797 88.9854 36.4766C89.2484 36.2708 89.5348 36.1276 89.8447 36.0469C90.1572 35.9635 90.4645 35.9219 90.7666 35.9219C90.9593 35.9219 91.1807 35.9453 91.4307 35.9922C91.6833 36.0365 91.9268 36.1289 92.1611 36.2695C92.3981 36.4102 92.5947 36.6224 92.751 36.9062C92.9072 37.1901 92.9854 37.5703 92.9854 38.0469V42H92.0635V41.1875H92.0166C91.9541 41.3177 91.8499 41.457 91.7041 41.6055C91.5583 41.7539 91.3643 41.8802 91.1221 41.9844C90.8799 42.0885 90.5843 42.1406 90.2354 42.1406ZM90.376 41.3125C90.7406 41.3125 91.0479 41.2409 91.2979 41.0977C91.5505 40.9544 91.7406 40.7695 91.8682 40.543C91.9984 40.3164 92.0635 40.0781 92.0635 39.8281V38.9844C92.0244 39.0312 91.9385 39.0742 91.8057 39.1133C91.6755 39.1497 91.5244 39.1823 91.3525 39.2109C91.1833 39.237 91.0179 39.2604 90.8564 39.2812C90.6976 39.2995 90.5687 39.3151 90.4697 39.3281C90.2301 39.3594 90.0062 39.4102 89.7979 39.4805C89.5921 39.5482 89.4255 39.651 89.2979 39.7891C89.1729 39.9245 89.1104 40.1094 89.1104 40.3437C89.1104 40.6641 89.2288 40.9062 89.4658 41.0703C89.7054 41.2318 90.0088 41.3125 90.376 41.3125ZM97.2773 36V36.7812H94.168V36H97.2773ZM95.0742 34.5625H95.9961V40.2812C95.9961 40.5417 96.0339 40.737 96.1094 40.8672C96.1875 40.9948 96.2865 41.0807 96.4063 41.125C96.5286 41.1667 96.6576 41.1875 96.793 41.1875C96.8945 41.1875 96.9779 41.1823 97.043 41.1719C97.1081 41.1589 97.1602 41.1484 97.1992 41.1406L97.3867 41.9687C97.3242 41.9922 97.237 42.0156 97.125 42.0391C97.013 42.0651 96.8711 42.0781 96.6992 42.0781C96.4388 42.0781 96.1836 42.0221 95.9336 41.9102C95.6862 41.7982 95.4805 41.6276 95.3164 41.3984C95.1549 41.1693 95.0742 40.8802 95.0742 40.5312V34.5625ZM101.115 42.125C100.537 42.125 100.038 41.9974 99.6191 41.7422C99.2025 41.4844 98.8809 41.125 98.6543 40.6641C98.4303 40.2005 98.3184 39.6615 98.3184 39.0469C98.3184 38.4323 98.4303 37.8906 98.6543 37.4219C98.8809 36.9505 99.196 36.5833 99.5996 36.3203C100.006 36.0547 100.48 35.9219 101.021 35.9219C101.334 35.9219 101.643 35.974 101.947 36.0781C102.252 36.1823 102.529 36.3516 102.779 36.5859C103.029 36.8177 103.229 37.125 103.377 37.5078C103.525 37.8906 103.6 38.362 103.6 38.9219V39.3125H98.9746V38.5156H102.662C102.662 38.1771 102.594 37.875 102.459 37.6094C102.326 37.3437 102.136 37.1341 101.889 36.9805C101.644 36.8268 101.355 36.75 101.021 36.75C100.654 36.75 100.337 36.8411 100.068 37.0234C99.8027 37.2031 99.5983 37.4375 99.4551 37.7266C99.3118 38.0156 99.2402 38.3255 99.2402 38.6562V39.1875C99.2402 39.6406 99.3184 40.0247 99.4746 40.3398C99.6335 40.6523 99.8535 40.8906 100.135 41.0547C100.416 41.2161 100.743 41.2969 101.115 41.2969C101.357 41.2969 101.576 41.263 101.771 41.1953C101.969 41.125 102.14 41.0208 102.283 40.8828C102.426 40.7422 102.537 40.5677 102.615 40.3594L103.506 40.6094C103.412 40.9115 103.255 41.1771 103.033 41.4062C102.812 41.6328 102.538 41.8099 102.213 41.9375C101.887 42.0625 101.521 42.125 101.115 42.125ZM114.658 36.5H113.689C113.632 36.2214 113.532 35.9766 113.389 35.7656C113.248 35.5547 113.076 35.3776 112.873 35.2344C112.673 35.0885 112.45 34.9792 112.205 34.9062C111.96 34.8333 111.705 34.7969 111.439 34.7969C110.955 34.7969 110.516 34.9193 110.123 35.1641C109.732 35.4089 109.421 35.7695 109.189 36.2461C108.96 36.7227 108.846 37.3073 108.846 38C108.846 38.6927 108.96 39.2773 109.189 39.7539C109.421 40.2305 109.732 40.5911 110.123 40.8359C110.516 41.0807 110.955 41.2031 111.439 41.2031C111.705 41.2031 111.96 41.1667 112.205 41.0937C112.45 41.0208 112.673 40.9128 112.873 40.7695C113.076 40.6237 113.248 40.4453 113.389 40.2344C113.532 40.0208 113.632 39.776 113.689 39.5H114.658C114.585 39.9089 114.452 40.2747 114.26 40.5977C114.067 40.9206 113.827 41.1953 113.541 41.4219C113.255 41.6458 112.933 41.8164 112.576 41.9336C112.222 42.0508 111.843 42.1094 111.439 42.1094C110.757 42.1094 110.15 41.9427 109.619 41.6094C109.088 41.276 108.67 40.8021 108.365 40.1875C108.061 39.5729 107.908 38.8437 107.908 38C107.908 37.1562 108.061 36.4271 108.365 35.8125C108.67 35.1979 109.088 34.724 109.619 34.3906C110.15 34.0573 110.757 33.8906 111.439 33.8906C111.843 33.8906 112.222 33.9492 112.576 34.0664C112.933 34.1836 113.255 34.3555 113.541 34.582C113.827 34.806 114.067 35.0794 114.26 35.4023C114.452 35.7227 114.585 36.0885 114.658 36.5ZM118.536 42.125C117.994 42.125 117.519 41.9961 117.11 41.7383C116.704 41.4805 116.386 41.1198 116.157 40.6562C115.931 40.1927 115.817 39.651 115.817 39.0312C115.817 38.4062 115.931 37.8607 116.157 37.3945C116.386 36.9284 116.704 36.5664 117.11 36.3086C117.519 36.0508 117.994 35.9219 118.536 35.9219C119.078 35.9219 119.552 36.0508 119.958 36.3086C120.367 36.5664 120.685 36.9284 120.911 37.3945C121.14 37.8607 121.255 38.4062 121.255 39.0312C121.255 39.651 121.14 40.1927 120.911 40.6562C120.685 41.1198 120.367 41.4805 119.958 41.7383C119.552 41.9961 119.078 42.125 118.536 42.125ZM118.536 41.2969C118.948 41.2969 119.286 41.1914 119.552 40.9805C119.817 40.7695 120.014 40.4922 120.142 40.1484C120.269 39.8047 120.333 39.4323 120.333 39.0312C120.333 38.6302 120.269 38.2565 120.142 37.9102C120.014 37.5638 119.817 37.2839 119.552 37.0703C119.286 36.8568 118.948 36.75 118.536 36.75C118.125 36.75 117.786 36.8568 117.521 37.0703C117.255 37.2839 117.058 37.5638 116.931 37.9102C116.803 38.2565 116.739 38.6302 116.739 39.0312C116.739 39.4323 116.803 39.8047 116.931 40.1484C117.058 40.4922 117.255 40.7695 117.521 40.9805C117.786 41.1914 118.125 41.2969 118.536 41.2969ZM123.584 34V42H122.662V34H123.584ZM126.194 34V42H125.272V34H126.194ZM130.398 42.125C129.82 42.125 129.322 41.9974 128.902 41.7422C128.486 41.4844 128.164 41.125 127.938 40.6641C127.714 40.2005 127.602 39.6615 127.602 39.0469C127.602 38.4323 127.714 37.8906 127.938 37.4219C128.164 36.9505 128.479 36.5833 128.883 36.3203C129.289 36.0547 129.763 35.9219 130.305 35.9219C130.617 35.9219 130.926 35.974 131.23 36.0781C131.535 36.1823 131.813 36.3516 132.063 36.5859C132.313 36.8177 132.512 37.125 132.66 37.5078C132.809 37.8906 132.883 38.362 132.883 38.9219V39.3125H128.258V38.5156H131.945C131.945 38.1771 131.878 37.875 131.742 37.6094C131.609 37.3437 131.419 37.1341 131.172 36.9805C130.927 36.8268 130.638 36.75 130.305 36.75C129.938 36.75 129.62 36.8411 129.352 37.0234C129.086 37.2031 128.882 37.4375 128.738 37.7266C128.595 38.0156 128.523 38.3255 128.523 38.6562V39.1875C128.523 39.6406 128.602 40.0247 128.758 40.3398C128.917 40.6523 129.137 40.8906 129.418 41.0547C129.699 41.2161 130.026 41.2969 130.398 41.2969C130.641 41.2969 130.859 41.263 131.055 41.1953C131.253 41.125 131.423 41.0208 131.566 40.8828C131.71 40.7422 131.82 40.5677 131.898 40.3594L132.789 40.6094C132.695 40.9115 132.538 41.1771 132.316 41.4062C132.095 41.6328 131.822 41.8099 131.496 41.9375C131.171 42.0625 130.805 42.125 130.398 42.125ZM136.707 44.375C136.262 44.375 135.879 44.3177 135.559 44.2031C135.238 44.0911 134.971 43.9427 134.758 43.7578C134.547 43.5755 134.379 43.3802 134.254 43.1719L134.988 42.6563C135.072 42.7656 135.177 42.8906 135.305 43.0312C135.432 43.1745 135.607 43.2982 135.828 43.4023C136.052 43.5091 136.345 43.5625 136.707 43.5625C137.191 43.5625 137.591 43.4453 137.906 43.2109C138.221 42.9766 138.379 42.6094 138.379 42.1094V40.8906H138.301C138.233 41 138.137 41.1354 138.012 41.2969C137.889 41.4557 137.712 41.5977 137.48 41.7227C137.251 41.8451 136.941 41.9062 136.551 41.9062C136.066 41.9062 135.632 41.7917 135.246 41.5625C134.863 41.3333 134.56 41 134.336 40.5625C134.115 40.125 134.004 39.5937 134.004 38.9687C134.004 38.3542 134.112 37.819 134.328 37.3633C134.544 36.9049 134.845 36.5508 135.23 36.3008C135.616 36.0482 136.061 35.9219 136.566 35.9219C136.957 35.9219 137.267 35.987 137.496 36.1172C137.728 36.2448 137.905 36.3906 138.027 36.5547C138.152 36.7161 138.249 36.849 138.316 36.9531H138.41V36H139.301V42.1719C139.301 42.6875 139.184 43.1068 138.949 43.4297C138.717 43.7552 138.405 43.9935 138.012 44.1445C137.621 44.2982 137.186 44.375 136.707 44.375ZM136.676 41.0781C137.046 41.0781 137.358 40.9935 137.613 40.8242C137.868 40.6549 138.063 40.4115 138.195 40.0938C138.328 39.776 138.395 39.3958 138.395 38.9531C138.395 38.5208 138.329 38.1393 138.199 37.8086C138.069 37.4779 137.876 37.2187 137.621 37.0312C137.366 36.8437 137.051 36.75 136.676 36.75C136.285 36.75 135.96 36.849 135.699 37.0469C135.441 37.2448 135.247 37.5104 135.117 37.8438C134.99 38.1771 134.926 38.5469 134.926 38.9531C134.926 39.3698 134.991 39.7383 135.121 40.0586C135.254 40.3763 135.449 40.6263 135.707 40.8086C135.967 40.9883 136.29 41.0781 136.676 41.0781ZM140.988 42V36H141.91V42H140.988ZM141.457 35C141.277 35 141.122 34.9388 140.992 34.8164C140.865 34.694 140.801 34.5469 140.801 34.375C140.801 34.2031 140.865 34.056 140.992 33.9336C141.122 33.8112 141.277 33.75 141.457 33.75C141.637 33.75 141.79 33.8112 141.918 33.9336C142.048 34.056 142.113 34.2031 142.113 34.375C142.113 34.5469 142.048 34.694 141.918 34.8164C141.79 34.9388 141.637 35 141.457 35ZM145.364 42.1406C144.984 42.1406 144.639 42.069 144.329 41.9258C144.019 41.7799 143.773 41.5703 143.591 41.2969C143.409 41.0208 143.317 40.6875 143.317 40.2969C143.317 39.9531 143.385 39.6745 143.521 39.4609C143.656 39.2448 143.837 39.0755 144.063 38.9531C144.29 38.8307 144.54 38.7396 144.813 38.6797C145.09 38.6172 145.367 38.5677 145.646 38.5313C146.01 38.4844 146.306 38.4492 146.532 38.4258C146.761 38.3997 146.928 38.3568 147.032 38.2969C147.139 38.237 147.192 38.1328 147.192 37.9844V37.9531C147.192 37.5677 147.087 37.2682 146.876 37.0547C146.668 36.8411 146.351 36.7344 145.927 36.7344C145.487 36.7344 145.142 36.8307 144.892 37.0234C144.642 37.2161 144.466 37.4219 144.364 37.6406L143.489 37.3281C143.646 36.9635 143.854 36.6797 144.114 36.4766C144.377 36.2708 144.664 36.1276 144.974 36.0469C145.286 35.9635 145.593 35.9219 145.896 35.9219C146.088 35.9219 146.31 35.9453 146.56 35.9922C146.812 36.0365 147.056 36.1289 147.29 36.2695C147.527 36.4102 147.724 36.6224 147.88 36.9062C148.036 37.1901 148.114 37.5703 148.114 38.0469V42H147.192V41.1875H147.146C147.083 41.3177 146.979 41.457 146.833 41.6055C146.687 41.7539 146.493 41.8802 146.251 41.9844C146.009 42.0885 145.713 42.1406 145.364 42.1406ZM145.505 41.3125C145.869 41.3125 146.177 41.2409 146.427 41.0977C146.679 40.9544 146.869 40.7695 146.997 40.543C147.127 40.3164 147.192 40.0781 147.192 39.8281V38.9844C147.153 39.0312 147.067 39.0742 146.935 39.1133C146.804 39.1497 146.653 39.1823 146.481 39.2109C146.312 39.237 146.147 39.2604 145.985 39.2812C145.826 39.2995 145.698 39.3151 145.599 39.3281C145.359 39.3594 145.135 39.4102 144.927 39.4805C144.721 39.5482 144.554 39.651 144.427 39.7891C144.302 39.9245 144.239 40.1094 144.239 40.3437C144.239 40.6641 144.358 40.9062 144.595 41.0703C144.834 41.2318 145.138 41.3125 145.505 41.3125ZM152.406 36V36.7812H149.297V36H152.406ZM150.203 34.5625H151.125V40.2812C151.125 40.5417 151.163 40.737 151.238 40.8672C151.316 40.9948 151.415 41.0807 151.535 41.125C151.658 41.1667 151.786 41.1875 151.922 41.1875C152.023 41.1875 152.107 41.1823 152.172 41.1719C152.237 41.1589 152.289 41.1484 152.328 41.1406L152.516 41.9687C152.453 41.9922 152.366 42.0156 152.254 42.0391C152.142 42.0651 152 42.0781 151.828 42.0781C151.568 42.0781 151.313 42.0221 151.063 41.9102C150.815 41.7982 150.609 41.6276 150.445 41.3984C150.284 41.1693 150.203 40.8802 150.203 40.5312V34.5625ZM156.244 42.125C155.666 42.125 155.167 41.9974 154.748 41.7422C154.331 41.4844 154.01 41.125 153.783 40.6641C153.559 40.2005 153.447 39.6615 153.447 39.0469C153.447 38.4323 153.559 37.8906 153.783 37.4219C154.01 36.9505 154.325 36.5833 154.729 36.3203C155.135 36.0547 155.609 35.9219 156.15 35.9219C156.463 35.9219 156.771 35.974 157.076 36.0781C157.381 36.1823 157.658 36.3516 157.908 36.5859C158.158 36.8177 158.357 37.125 158.506 37.5078C158.654 37.8906 158.729 38.362 158.729 38.9219V39.3125H154.104V38.5156H157.791C157.791 38.1771 157.723 37.875 157.588 37.6094C157.455 37.3437 157.265 37.1341 157.018 36.9805C156.773 36.8268 156.484 36.75 156.15 36.75C155.783 36.75 155.465 36.8411 155.197 37.0234C154.932 37.2031 154.727 37.4375 154.584 37.7266C154.441 38.0156 154.369 38.3255 154.369 38.6562V39.1875C154.369 39.6406 154.447 40.0247 154.604 40.3398C154.762 40.6523 154.982 40.8906 155.264 41.0547C155.545 41.2161 155.872 41.2969 156.244 41.2969C156.486 41.2969 156.705 41.263 156.9 41.1953C157.098 41.125 157.269 41.0208 157.412 40.8828C157.555 40.7422 157.666 40.5677 157.744 40.3594L158.635 40.6094C158.541 40.9115 158.383 41.1771 158.162 41.4062C157.941 41.6328 157.667 41.8099 157.342 41.9375C157.016 42.0625 156.65 42.125 156.244 42.125ZM167.725 36C167.678 35.6042 167.488 35.2969 167.154 35.0781C166.821 34.8594 166.412 34.75 165.928 34.75C165.574 34.75 165.264 34.8073 164.998 34.9219C164.735 35.0365 164.529 35.194 164.381 35.3945C164.235 35.5951 164.162 35.8229 164.162 36.0781C164.162 36.2917 164.213 36.4753 164.314 36.6289C164.419 36.7799 164.551 36.9062 164.713 37.0078C164.874 37.1068 165.044 37.1888 165.221 37.2539C165.398 37.3164 165.561 37.3672 165.709 37.4062L166.521 37.625C166.73 37.6797 166.962 37.7552 167.217 37.8516C167.475 37.9479 167.721 38.0794 167.955 38.2461C168.192 38.4102 168.387 38.6211 168.541 38.8789C168.695 39.1367 168.771 39.4531 168.771 39.8281C168.771 40.2604 168.658 40.651 168.432 41C168.208 41.349 167.88 41.6263 167.447 41.832C167.018 42.0378 166.495 42.1406 165.881 42.1406C165.308 42.1406 164.812 42.0482 164.393 41.8633C163.976 41.6784 163.648 41.4206 163.408 41.0898C163.171 40.7591 163.037 40.375 163.006 39.9375H164.006C164.032 40.2396 164.133 40.4896 164.311 40.6875C164.49 40.8828 164.717 41.0286 164.99 41.125C165.266 41.2187 165.563 41.2656 165.881 41.2656C166.251 41.2656 166.583 41.2057 166.877 41.0859C167.171 40.9635 167.404 40.7943 167.576 40.5781C167.748 40.3594 167.834 40.1042 167.834 39.8125C167.834 39.5469 167.76 39.3307 167.611 39.1641C167.463 38.9974 167.268 38.862 167.025 38.7578C166.783 38.6536 166.521 38.5625 166.24 38.4844L165.256 38.2031C164.631 38.0234 164.136 37.7669 163.771 37.4336C163.407 37.1003 163.225 36.6641 163.225 36.125C163.225 35.6771 163.346 35.2865 163.588 34.9531C163.833 34.6172 164.161 34.3568 164.572 34.1719C164.986 33.9844 165.449 33.8906 165.959 33.8906C166.475 33.8906 166.933 33.9831 167.334 34.168C167.735 34.3503 168.053 34.6003 168.287 34.918C168.524 35.2357 168.649 35.5964 168.662 36H167.725ZM172.677 42.125C172.114 42.125 171.63 41.9922 171.224 41.7266C170.817 41.4609 170.505 41.0951 170.286 40.6289C170.067 40.1628 169.958 39.6302 169.958 39.0312C169.958 38.4219 170.07 37.8841 170.294 37.418C170.521 36.9492 170.836 36.5833 171.239 36.3203C171.646 36.0547 172.119 35.9219 172.661 35.9219C173.083 35.9219 173.463 36 173.802 36.1562C174.14 36.3125 174.418 36.5312 174.634 36.8125C174.85 37.0937 174.984 37.4219 175.036 37.7969H174.114C174.044 37.5234 173.888 37.2812 173.646 37.0703C173.406 36.8568 173.083 36.75 172.677 36.75C172.317 36.75 172.002 36.8437 171.731 37.0312C171.463 37.2161 171.254 37.4779 171.103 37.8164C170.954 38.1523 170.88 38.5469 170.88 39C170.88 39.4635 170.953 39.8672 171.099 40.2109C171.247 40.5547 171.455 40.8216 171.724 41.0117C171.994 41.2018 172.312 41.2969 172.677 41.2969C172.916 41.2969 173.134 41.2552 173.329 41.1719C173.524 41.0885 173.69 40.9688 173.825 40.8125C173.961 40.6562 174.057 40.4687 174.114 40.25H175.036C174.984 40.6042 174.855 40.9232 174.649 41.207C174.446 41.4883 174.177 41.7122 173.841 41.8789C173.507 42.043 173.119 42.125 172.677 42.125ZM177.306 38.3906V42H176.384V34H177.306V36.9375H177.384C177.524 36.6276 177.735 36.3815 178.017 36.1992C178.3 36.0143 178.678 35.9219 179.149 35.9219C179.558 35.9219 179.916 36.0039 180.224 36.168C180.531 36.3294 180.769 36.5781 180.938 36.9141C181.11 37.2474 181.196 37.6719 181.196 38.1875V42H180.274V38.25C180.274 37.7734 180.151 37.4049 179.903 37.1445C179.659 36.8815 179.319 36.75 178.884 36.75C178.582 36.75 178.311 36.8138 178.071 36.9414C177.834 37.069 177.647 37.2552 177.509 37.5C177.373 37.7448 177.306 38.0417 177.306 38.3906ZM185.32 42.125C184.779 42.125 184.303 41.9961 183.895 41.7383C183.488 41.4805 183.171 41.1198 182.941 40.6562C182.715 40.1927 182.602 39.651 182.602 39.0312C182.602 38.4062 182.715 37.8607 182.941 37.3945C183.171 36.9284 183.488 36.5664 183.895 36.3086C184.303 36.0508 184.779 35.9219 185.32 35.9219C185.862 35.9219 186.336 36.0508 186.742 36.3086C187.151 36.5664 187.469 36.9284 187.695 37.3945C187.924 37.8607 188.039 38.4062 188.039 39.0312C188.039 39.651 187.924 40.1927 187.695 40.6562C187.469 41.1198 187.151 41.4805 186.742 41.7383C186.336 41.9961 185.862 42.125 185.32 42.125ZM185.32 41.2969C185.732 41.2969 186.07 41.1914 186.336 40.9805C186.602 40.7695 186.798 40.4922 186.926 40.1484C187.053 39.8047 187.117 39.4323 187.117 39.0312C187.117 38.6302 187.053 38.2565 186.926 37.9102C186.798 37.5638 186.602 37.2839 186.336 37.0703C186.07 36.8568 185.732 36.75 185.32 36.75C184.909 36.75 184.57 36.8568 184.305 37.0703C184.039 37.2839 183.842 37.5638 183.715 37.9102C183.587 38.2565 183.523 38.6302 183.523 39.0312C183.523 39.4323 183.587 39.8047 183.715 40.1484C183.842 40.4922 184.039 40.7695 184.305 40.9805C184.57 41.1914 184.909 41.2969 185.32 41.2969ZM191.884 42.125C191.342 42.125 190.867 41.9961 190.458 41.7383C190.052 41.4805 189.734 41.1198 189.505 40.6562C189.278 40.1927 189.165 39.651 189.165 39.0312C189.165 38.4062 189.278 37.8607 189.505 37.3945C189.734 36.9284 190.052 36.5664 190.458 36.3086C190.867 36.0508 191.342 35.9219 191.884 35.9219C192.425 35.9219 192.899 36.0508 193.306 36.3086C193.715 36.5664 194.032 36.9284 194.259 37.3945C194.488 37.8607 194.603 38.4062 194.603 39.0312C194.603 39.651 194.488 40.1927 194.259 40.6562C194.032 41.1198 193.715 41.4805 193.306 41.7383C192.899 41.9961 192.425 42.125 191.884 42.125ZM191.884 41.2969C192.295 41.2969 192.634 41.1914 192.899 40.9805C193.165 40.7695 193.362 40.4922 193.489 40.1484C193.617 39.8047 193.681 39.4323 193.681 39.0312C193.681 38.6302 193.617 38.2565 193.489 37.9102C193.362 37.5638 193.165 37.2839 192.899 37.0703C192.634 36.8568 192.295 36.75 191.884 36.75C191.472 36.75 191.134 36.8568 190.868 37.0703C190.603 37.2839 190.406 37.5638 190.278 37.9102C190.151 38.2565 190.087 38.6302 190.087 39.0312C190.087 39.4323 190.151 39.8047 190.278 40.1484C190.406 40.4922 190.603 40.7695 190.868 40.9805C191.134 41.1914 191.472 41.2969 191.884 41.2969ZM196.932 34V42H196.01V34H196.932Z" fill="#60779A"/>
<path fill-rule="evenodd" clip-rule="evenodd" d="M54.3487 11.2661V46H31.8036V41.7248H36.9362V36.5872H31.8036V33.3761H36.9362V28.2569H31.8036V16.6972H36.9362V11.5596H31.8036V0H54.0937H54.3487V11.2661ZM44.1768 36.5872H39.0442V41.7248H44.1768V36.5872ZM44.1768 19.9083H39.0442V25.0275H44.1768V19.9083Z" fill="#60779A"/>
<path d="M23.8481 36.5869V41.7245H28.9807V36.5869H23.8481Z" fill="#990000"/>
<path d="M23.8481 19.9081V25.0457H28.9807V19.9081H23.8481Z" fill="#990000"/>
<path d="M23.8481 11.5594V16.6971H28.9807V11.5594H23.8481Z" fill="#990000"/>
<path d="M7.95532 11.5594V16.6971H13.0879V11.5594H7.95532Z" fill="#990000"/>
<path d="M15.9109 36.5869V41.7245H21.0435V36.5869H15.9109Z" fill="#990000"/>
<path d="M15.9109 19.9081V25.0457H21.0435V19.9081H15.9109Z" fill="#990000"/>
<path d="M15.9109 3.21106V8.34867H21.0435V3.21106H15.9109Z" fill="#990000"/>
<path d="M7.95532 28.2567V33.376H13.0879V28.2567H7.95532Z" fill="#990000"/>
<path d="M7.95532 19.9081V25.0457H13.0879V19.9081H7.95532Z" fill="#990000"/>
<path d="M0 19.9081V25.0457H5.13259V19.9081H0Z" fill="#990000"/>
</svg>
