<svg width="55" height="75" viewBox="0 0 55 75" fill="none" xmlns="http://www.w3.org/2000/svg">
<path d="M25.7592 1.08881C21.1437 2.29422 14.6091 6.41802 10.8501 10.4784C7.55104 14.0629 6.01255 17.4413 6.01255 21.0575C6.01255 22.8974 6.2346 23.9918 6.90075 25.3716L7.31313 26.2598L6.77387 27.037C3.20519 32.0808 2.12666 37.5369 4.02995 40.8359L4.41061 41.4862L3.93479 42.1841C-0.490366 48.7504 -1.25168 55.2058 1.99977 58.6793C4.75955 61.6294 9.4702 61.9624 15.2118 59.6151C16.0366 59.2661 16.7344 59.0123 16.7662 59.0599C16.8772 59.1709 15.9731 62.0417 15.3387 63.5802C14.5298 65.5311 13.6892 67.0696 12.2934 69.1315C11.2625 70.67 11.1832 70.8762 11.1197 71.7803C11.0563 72.6367 11.1039 72.8747 11.4845 73.5091C11.8176 74.0801 12.1031 74.3338 12.7534 74.6193L13.5781 75L27.5991 74.9683C43.5233 74.9207 42.3972 75.0159 43.3171 73.5884C43.7295 72.9381 43.777 72.7478 43.7295 71.8278C43.666 70.8445 43.6026 70.7017 42.5399 69.1315C41.0966 66.9903 40.3035 65.4994 39.4312 63.3423C38.7333 61.6452 37.972 59.1709 38.083 59.0441C38.1147 59.0123 38.8126 59.2661 39.6374 59.6151C45.0618 61.8356 49.6931 61.6611 52.4053 59.1234C54.0707 57.569 54.8637 55.6023 54.8637 53.0328C54.8637 49.8924 53.4045 45.8638 50.9144 42.1841L50.4386 41.4862L50.8192 40.8359C52.7225 37.5369 51.644 32.0808 48.0753 27.037L47.536 26.2598L47.9484 25.3716C48.6146 23.9918 48.8366 22.8974 48.8366 21.0575C48.8366 17.1875 47.1078 13.6347 43.3647 9.87567C39.225 5.72015 33.1345 1.99287 28.8838 1.02536C27.488 0.708145 27.155 0.708145 25.7592 1.08881ZM29.6927 3.56309C32.6428 4.60989 36.8618 7.10004 39.6057 9.41571C42.9206 12.1913 44.9825 14.856 46.0769 17.7426C46.4892 18.837 46.521 19.1225 46.5368 21.0734C46.5368 22.9767 46.4892 23.3097 46.172 24.0235C45.4266 25.6571 44.3322 26.3233 42.3496 26.3233C40.4463 26.3233 38.3209 25.7364 36.037 24.5786C35.4977 24.309 34.9426 24.0869 34.8157 24.0869C34.4192 24.0869 33.8323 24.7689 33.5468 25.5461C32.6745 27.9252 30.4223 29.321 27.4246 29.321C24.4269 29.321 22.1747 27.9252 21.3023 25.5461C21.0168 24.7689 20.43 24.0869 20.0335 24.0869C19.9066 24.0869 19.3515 24.309 18.8122 24.5786C16.5282 25.7364 14.4029 26.3233 12.4996 26.3233C10.517 26.3233 9.42262 25.6571 8.67716 24.0235C8.35994 23.3097 8.31236 22.9767 8.31236 21.0734C8.32822 19.1225 8.35994 18.837 8.77232 17.7426C9.86672 14.856 11.8969 12.2389 15.2435 9.41571C18.3522 6.79868 23.158 4.07063 26.235 3.21415C27.2184 2.94451 28.2176 3.03968 29.6927 3.56309ZM19.8114 27.5287C20.6996 29.2258 22.7457 30.7167 24.9662 31.3036C26.1875 31.6208 28.7569 31.6208 30.0258 31.2877C31.9925 30.7802 34.1971 29.1306 35.0695 27.4811C35.3233 26.9894 35.4977 26.815 35.6722 26.8784C39.8436 28.7183 42.9364 29.0196 45.6645 27.8459C46.1086 27.6397 48.2181 31.2719 48.9952 33.5399C49.5345 35.1736 49.6297 37.8065 49.1697 39.0119C47.8374 42.5489 43.3329 42.9295 37.29 39.9953C35.8784 39.3133 35.7515 39.2815 35.3708 39.4877C35.1329 39.6305 34.7364 40.1697 34.4351 40.7725C33.531 42.5964 31.3105 44.4997 29.2644 45.2135C28.2176 45.5624 26.6316 45.5624 25.5847 45.2135C23.5387 44.4997 21.3182 42.5964 20.4141 40.7725C20.1128 40.1697 19.7163 39.6305 19.4942 39.5036C19.1294 39.2974 18.9708 39.3291 17.4323 40.0746C11.7859 42.7551 7.4083 42.5647 5.94911 39.5829C4.63266 36.9024 5.40984 33.1751 8.18548 28.9245C8.72474 28.068 9.01024 27.7666 9.1847 27.8459C10.6598 28.4804 11.1832 28.5597 13.0706 28.4962C14.7201 28.4328 15.1959 28.3376 16.6868 27.8459C17.6226 27.5287 18.5901 27.1639 18.8281 27.037C19.066 26.8943 19.288 26.7991 19.3356 26.7833C19.3832 26.7833 19.5894 27.1163 19.8114 27.5287ZM19.0184 42.8026C20.2397 44.7059 23.0787 46.7995 25.3468 47.4657C27.3612 48.0525 29.8196 47.6402 32.0242 46.3554C33.2296 45.6576 35.1646 43.8494 35.8308 42.8026L36.3225 42.0413L37.2265 42.4378C41.4297 44.3094 45.2045 44.6742 47.8374 43.4529L48.8208 42.993L49.2014 43.5639C51.9612 47.7512 53.1666 52.0177 52.4053 54.9361C51.7074 57.5849 49.7566 58.9013 46.5368 58.8855C44.0625 58.8696 42.0324 58.3303 38.8126 56.8077C36.5128 55.7133 36.2908 55.745 35.6087 57.3311C34.784 59.2027 32.3414 61.439 29.9623 62.4859C29.2169 62.8031 28.8362 62.8665 27.4087 62.8665H25.7275L24.1573 62.0893C22.825 61.4232 22.365 61.0901 21.1437 59.8688C20.0018 58.711 19.6211 58.2193 19.2722 57.3628C18.9232 56.5539 18.717 56.2684 18.3522 56.1098C17.9399 55.9354 17.7337 55.9988 16.0366 56.8077C12.8168 58.3303 10.7866 58.8696 8.31236 58.8855C5.09263 58.9013 3.14175 57.5849 2.44388 54.9361C1.68256 52.0177 2.88798 47.7512 5.64775 43.5639L6.02841 42.993L7.01178 43.4529C9.0261 44.3887 11.5638 44.4046 14.6884 43.5005C15.7193 43.1992 18.0509 42.2951 18.4791 42.0255C18.495 42.0096 18.7329 42.3585 19.0184 42.8026ZM21.7623 63.3106C26.2033 66.2607 30.8188 65.7056 35.0695 61.6928C35.7832 61.0425 36.1639 60.757 36.2115 60.8998C36.259 61.0267 36.5128 61.8038 36.7824 62.6286C37.4803 64.7381 39.0823 67.9578 40.4146 69.9563C41.5883 71.7168 41.7786 72.3195 41.2393 72.6209C40.8111 72.8429 14.0381 72.8429 13.6099 72.6209C13.0865 72.3354 13.2609 71.7168 14.4029 69.988C15.0056 69.0839 15.8304 67.704 16.2269 66.9269C16.9248 65.5787 18.384 62.0417 18.384 61.6928C18.384 61.6135 18.4633 61.3439 18.5426 61.1218L18.7012 60.6936L19.7797 61.6928C20.3665 62.2479 21.2548 62.9775 21.7623 63.3106Z" fill="#990000"/>
</svg>
