<svg width="30" height="25" viewBox="0 0 30 25" fill="none" xmlns="http://www.w3.org/2000/svg">
<path d="M1.77895 0.523849C1.42408 0.672249 1.4757 0.19479 0.843388 9.36974C0.527233 14.0733 0.262695 17.9833 0.262695 18.0672C0.262695 18.1511 0.333669 18.2866 0.423999 18.3705L0.57885 18.5318H6.88905C11.9927 18.5382 13.2444 18.5511 13.4444 18.6221C14.0122 18.8286 14.4316 19.3512 14.5026 19.9577C14.5284 20.19 14.5929 20.3513 14.6897 20.4481C15.0187 20.7771 15.5543 20.519 15.5543 20.0351C15.5543 19.7319 15.7995 19.2028 16.0446 18.9705C16.1479 18.8737 16.3608 18.7382 16.5221 18.6673C16.806 18.5382 16.9157 18.5318 23.1549 18.5318H29.4974L29.6522 18.3705C29.7425 18.2866 29.8135 18.1511 29.8135 18.0801C29.8135 18.0027 29.549 14.1056 29.2328 9.4149C28.607 0.304476 28.6457 0.665796 28.2908 0.5303C28.0714 0.446423 17.3415 0.446423 16.7608 0.5303C16.2124 0.61418 15.6833 0.865812 15.3155 1.22713L15.0316 1.50457L14.709 1.21423C14.2897 0.840004 13.7993 0.601274 13.2896 0.5303C12.7799 0.452875 1.95961 0.452875 1.77895 0.523849ZM13.6767 1.72395C14.0574 1.93042 14.2961 2.20786 14.4316 2.57563C14.5026 2.77565 14.5155 4.24028 14.5219 10.4214V18.0221L14.2509 17.8608C13.5993 17.4865 13.7993 17.4994 7.31489 17.4994H1.35956V17.2865C1.35956 16.9575 2.39835 1.67233 2.42416 1.57555C2.44997 1.51103 3.51458 1.49812 7.88913 1.51103L13.3283 1.53038L13.6767 1.72395ZM27.652 1.57555C27.6778 1.67233 28.7166 16.9639 28.7166 17.2865V17.4994H22.7613C16.2769 17.4994 16.4769 17.4865 15.8317 17.8608L15.5543 18.0221V10.4537C15.5543 5.58233 15.5801 2.80145 15.6188 2.65306C15.7672 2.12398 16.2511 1.67233 16.7802 1.5691C16.9415 1.53683 19.4449 1.51103 22.3484 1.50457C26.5165 1.49812 27.6262 1.51748 27.652 1.57555Z" fill="#990000"/>
<path d="M4.52792 5.02113C4.34726 5.24695 4.36016 5.45342 4.54727 5.67279L4.70212 5.85345H6.74745H8.79278L8.94763 5.67279C9.13475 5.45342 9.14765 5.24695 8.96699 5.02113L8.83795 4.85337H6.74745H4.65696L4.52792 5.02113Z" fill="#990000"/>
<path d="M4.59258 7.86641C4.52161 7.93093 4.43773 8.07287 4.41837 8.18901C4.38611 8.36322 4.41192 8.42774 4.57322 8.5955L4.76679 8.78906H8.45741H12.148L12.3352 8.60195C12.4384 8.49872 12.5223 8.36322 12.5223 8.30515C12.5223 8.1503 12.3481 7.8406 12.2319 7.79543C12.1738 7.77608 10.4576 7.75672 8.42515 7.75672C4.99907 7.75672 4.72162 7.76317 4.59258 7.86641Z" fill="#990000"/>
<path d="M4.57322 10.7895C4.41192 10.9573 4.38611 11.0218 4.41837 11.196C4.50225 11.6477 4.31514 11.6283 8.42515 11.6283C10.4576 11.6283 12.1738 11.6089 12.2319 11.5896C12.3481 11.5444 12.5223 11.2347 12.5223 11.0799C12.5223 11.0218 12.4384 10.8863 12.3352 10.7831L12.148 10.596H8.45741H4.76679L4.57322 10.7895Z" fill="#990000"/>
<path d="M4.55411 13.725C4.34764 13.925 4.34764 14.1508 4.54765 14.3831L4.7025 14.5638H8.4512H12.1934L12.3418 14.4218C12.5419 14.2218 12.5354 13.8476 12.3354 13.6863C12.1934 13.5702 12.0063 13.5637 8.44475 13.5637H4.70896L4.55411 13.725Z" fill="#990000"/>
<path d="M21.1099 5.02113C20.9293 5.24695 20.9422 5.45342 21.1293 5.67279L21.2842 5.85345H23.3295H25.3748L25.5297 5.67279C25.7168 5.45342 25.7297 5.24695 25.549 5.02113L25.42 4.85337H23.3295H21.239L21.1099 5.02113Z" fill="#990000"/>
<path d="M17.8257 7.80188C17.7289 7.8406 17.5547 8.1632 17.5547 8.30515C17.5547 8.36322 17.6386 8.49872 17.7418 8.60195L17.9289 8.78906H21.6195H25.3102L25.4973 8.60195C25.6005 8.49872 25.6844 8.36322 25.6844 8.30515C25.6844 8.1503 25.5102 7.8406 25.394 7.79543C25.265 7.75027 17.9483 7.75027 17.8257 7.80188Z" fill="#990000"/>
<path d="M17.7353 10.7895C17.574 10.9573 17.5482 11.0218 17.5805 11.196C17.6644 11.6477 17.4708 11.6283 21.6195 11.6283C25.7683 11.6283 25.5747 11.6477 25.6586 11.196C25.6908 11.0218 25.665 10.9573 25.5037 10.7895L25.3101 10.596H21.6195H17.9289L17.7353 10.7895Z" fill="#990000"/>
<path d="M17.7546 13.6734C17.5352 13.8605 17.5159 14.1508 17.703 14.3767L17.8643 14.5638H21.6194H25.3746L25.5359 14.3767C25.723 14.1508 25.7036 13.8605 25.4843 13.6734C25.3552 13.5702 25.0778 13.5637 21.6194 13.5637C18.1611 13.5637 17.8836 13.5702 17.7546 13.6734Z" fill="#990000"/>
<path d="M0.417752 21.4999C0.237092 21.5709 0.0693359 21.8096 0.0693359 21.9903C0.0693359 22.0677 0.127405 22.2032 0.204831 22.3L0.333874 22.4677H6.57955C10.0185 22.4677 12.9607 22.4871 13.1285 22.5064C13.8318 22.6032 14.3995 23.1775 14.5092 23.9066C14.5802 24.3647 14.7222 24.5324 15.0383 24.5324C15.3545 24.5324 15.4964 24.3647 15.5674 23.913C15.6384 23.4614 15.8126 23.1129 16.0836 22.8871C16.5675 22.4742 16.1158 22.5 23.2454 22.4806L29.7427 22.4613L29.8718 22.2935C30.0524 22.0741 30.0395 21.8677 29.8524 21.6483L29.6976 21.4676L23.51 21.4483C19.5613 21.4354 17.1482 21.4547 16.8256 21.4935C16.219 21.5773 15.7093 21.8096 15.3157 22.1967L15.0319 22.4742L14.6963 22.1709C14.2963 21.8096 13.8318 21.5838 13.3156 21.4999C12.8446 21.4225 0.604864 21.4225 0.417752 21.4999Z" fill="#990000"/>
</svg>
