<svg width="15" height="14" viewBox="0 0 15 14" fill="none" xmlns="http://www.w3.org/2000/svg">
<path d="M6.94366 0.033412C4.19559 0.309308 1.85048 2.17887 0.975596 4.78898C0.558122 6.04141 0.510929 7.46808 0.844908 8.76406C1.71616 12.1365 4.97245 14.3655 8.43204 13.9516C9.24521 13.8536 9.92406 13.6576 10.6646 13.2982C11.594 12.848 12.3127 12.2926 12.9625 11.5194C13.7176 10.6191 14.2367 9.55545 14.48 8.39741C14.5961 7.86014 14.6397 6.74567 14.5671 6.17572C14.3602 4.47679 13.518 2.86134 12.2692 1.76865C10.7953 0.476297 8.84951 -0.155358 6.94366 0.033412ZM8.47923 0.628766C11.0748 0.973636 13.2203 2.89039 13.8556 5.43153C14.6724 8.69146 12.8573 12.0204 9.68083 13.0949C8.9076 13.3563 8.56999 13.4071 7.6334 13.4071C6.92551 13.4071 6.76215 13.3962 6.40639 13.3236C4.81272 13.0005 3.42962 12.1365 2.48213 10.866C2.17356 10.4557 2.01747 10.1907 1.79239 9.71518C0.852169 7.73671 1.01553 5.36256 2.21713 3.51478C3.25174 1.92112 4.94341 0.85747 6.83475 0.614245C7.21592 0.563423 8.05813 0.570683 8.47923 0.628766Z" fill="white"/>
<path d="M7.32482 3.6924C7.24495 3.72871 7.12153 3.81946 7.05255 3.89933C6.90735 4.06269 4.42428 8.34633 4.32264 8.6077C4.28634 8.70209 4.25729 8.82189 4.25729 8.87271C4.25729 9.16313 4.54771 9.3882 4.86354 9.34464C4.95792 9.33375 5.4843 9.13771 6.03247 8.91264L7.0344 8.50606H7.61524H8.19607L9.20527 8.91627C9.75706 9.14135 10.2834 9.33375 10.3706 9.34464C10.4831 9.36279 10.5702 9.34827 10.69 9.29381C10.9986 9.1595 11.0494 8.85093 10.8316 8.42619C10.563 7.89981 8.27956 3.99008 8.17429 3.88117C7.94195 3.63795 7.60798 3.56172 7.32482 3.6924ZM7.77133 4.28413C7.8512 4.37125 10.356 8.6912 10.356 8.74202C10.356 8.76017 9.96035 8.61497 9.47753 8.4153C8.39936 7.97968 8.29045 7.94701 7.83305 7.91797C7.19776 7.88166 6.96543 7.93249 5.86185 8.379C5.3282 8.59318 4.88532 8.7638 4.87806 8.75654C4.85991 8.73839 7.37564 4.37851 7.46277 4.28413C7.5027 4.24056 7.57167 4.20426 7.61524 4.20426C7.6588 4.20426 7.72777 4.24056 7.77133 4.28413Z" fill="white"/>
</svg>
