<svg width="177" height="53" viewBox="0 0 177 53" fill="none" xmlns="http://www.w3.org/2000/svg">
<path d="M56.104 18.804H63.518V21.576H56.104V18.804ZM56.368 25.14H64.75V28H52.826V12.6H64.464V15.46H56.368V25.14ZM68.9058 28V12.6H75.9018C77.5738 12.6 79.0478 12.9227 80.3238 13.568C81.5998 14.1987 82.5971 15.086 83.3158 16.23C84.0344 17.374 84.3938 18.7307 84.3938 20.3C84.3938 21.8547 84.0344 23.2113 83.3158 24.37C82.5971 25.514 81.5998 26.4087 80.3238 27.054C79.0478 27.6847 77.5738 28 75.9018 28H68.9058ZM72.4698 25.074H75.7258C76.7524 25.074 77.6398 24.8833 78.3878 24.502C79.1504 24.106 79.7371 23.5487 80.1478 22.83C80.5731 22.1113 80.7858 21.268 80.7858 20.3C80.7858 19.3173 80.5731 18.474 80.1478 17.77C79.7371 17.0513 79.1504 16.5013 78.3878 16.12C77.6398 15.724 76.7524 15.526 75.7258 15.526H72.4698V25.074ZM95.2435 28.264C93.0582 28.264 91.3495 27.6553 90.1175 26.438C88.8855 25.2207 88.2695 23.4827 88.2695 21.224V12.6H91.8335V21.092C91.8335 22.5587 92.1342 23.6147 92.7355 24.26C93.3369 24.9053 94.1802 25.228 95.2655 25.228C96.3509 25.228 97.1942 24.9053 97.7955 24.26C98.3969 23.6147 98.6975 22.5587 98.6975 21.092V12.6H102.218V21.224C102.218 23.4827 101.602 25.2207 100.37 26.438C99.1375 27.6553 97.4289 28.264 95.2435 28.264ZM111.679 28L105.035 12.6H108.885L114.693 26.24H112.427L118.323 12.6H121.865L115.199 28H111.679ZM131.779 28.264C130.562 28.264 129.433 28.066 128.391 27.67C127.365 27.274 126.47 26.7167 125.707 25.998C124.959 25.2793 124.373 24.436 123.947 23.468C123.537 22.5 123.331 21.444 123.331 20.3C123.331 19.156 123.537 18.1 123.947 17.132C124.373 16.164 124.967 15.3207 125.729 14.602C126.492 13.8833 127.387 13.326 128.413 12.93C129.44 12.534 130.555 12.336 131.757 12.336C132.975 12.336 134.089 12.534 135.101 12.93C136.128 13.326 137.015 13.8833 137.763 14.602C138.526 15.3207 139.12 16.164 139.545 17.132C139.971 18.0853 140.183 19.1413 140.183 20.3C140.183 21.444 139.971 22.5073 139.545 23.49C139.12 24.458 138.526 25.3013 137.763 26.02C137.015 26.724 136.128 27.274 135.101 27.67C134.089 28.066 132.982 28.264 131.779 28.264ZM131.757 25.228C132.447 25.228 133.077 25.1107 133.649 24.876C134.236 24.6413 134.749 24.304 135.189 23.864C135.629 23.424 135.967 22.9033 136.201 22.302C136.451 21.7007 136.575 21.0333 136.575 20.3C136.575 19.5667 136.451 18.8993 136.201 18.298C135.967 17.6967 135.629 17.176 135.189 16.736C134.764 16.296 134.258 15.9587 133.671 15.724C133.085 15.4893 132.447 15.372 131.757 15.372C131.068 15.372 130.43 15.4893 129.843 15.724C129.271 15.9587 128.765 16.296 128.325 16.736C127.885 17.176 127.541 17.6967 127.291 18.298C127.057 18.8993 126.939 19.5667 126.939 20.3C126.939 21.0187 127.057 21.686 127.291 22.302C127.541 22.9033 127.878 23.424 128.303 23.864C128.743 24.304 129.257 24.6413 129.843 24.876C130.43 25.1107 131.068 25.228 131.757 25.228ZM144.182 28V12.6H147.746V25.096H155.468V28H144.182ZM162.346 28L155.702 12.6H159.552L165.36 26.24H163.094L168.99 12.6H172.532L165.866 28H162.346Z" fill="white"/>
<path d="M56.104 18.804H63.518V21.576H56.104V18.804ZM56.368 25.14H64.75V28H52.826V12.6H64.464V15.46H56.368V25.14ZM68.9058 28V12.6H75.9018C77.5738 12.6 79.0478 12.9227 80.3238 13.568C81.5998 14.1987 82.5971 15.086 83.3158 16.23C84.0344 17.374 84.3938 18.7307 84.3938 20.3C84.3938 21.8547 84.0344 23.2113 83.3158 24.37C82.5971 25.514 81.5998 26.4087 80.3238 27.054C79.0478 27.6847 77.5738 28 75.9018 28H68.9058ZM72.4698 25.074H75.7258C76.7524 25.074 77.6398 24.8833 78.3878 24.502C79.1504 24.106 79.7371 23.5487 80.1478 22.83C80.5731 22.1113 80.7858 21.268 80.7858 20.3C80.7858 19.3173 80.5731 18.474 80.1478 17.77C79.7371 17.0513 79.1504 16.5013 78.3878 16.12C77.6398 15.724 76.7524 15.526 75.7258 15.526H72.4698V25.074ZM95.2435 28.264C93.0582 28.264 91.3495 27.6553 90.1175 26.438C88.8855 25.2207 88.2695 23.4827 88.2695 21.224V12.6H91.8335V21.092C91.8335 22.5587 92.1342 23.6147 92.7355 24.26C93.3369 24.9053 94.1802 25.228 95.2655 25.228C96.3509 25.228 97.1942 24.9053 97.7955 24.26C98.3969 23.6147 98.6975 22.5587 98.6975 21.092V12.6H102.218V21.224C102.218 23.4827 101.602 25.2207 100.37 26.438C99.1375 27.6553 97.4289 28.264 95.2435 28.264ZM111.679 28L105.035 12.6H108.885L114.693 26.24H112.427L118.323 12.6H121.865L115.199 28H111.679ZM131.779 28.264C130.562 28.264 129.433 28.066 128.391 27.67C127.365 27.274 126.47 26.7167 125.707 25.998C124.959 25.2793 124.373 24.436 123.947 23.468C123.537 22.5 123.331 21.444 123.331 20.3C123.331 19.156 123.537 18.1 123.947 17.132C124.373 16.164 124.967 15.3207 125.729 14.602C126.492 13.8833 127.387 13.326 128.413 12.93C129.44 12.534 130.555 12.336 131.757 12.336C132.975 12.336 134.089 12.534 135.101 12.93C136.128 13.326 137.015 13.8833 137.763 14.602C138.526 15.3207 139.12 16.164 139.545 17.132C139.971 18.0853 140.183 19.1413 140.183 20.3C140.183 21.444 139.971 22.5073 139.545 23.49C139.12 24.458 138.526 25.3013 137.763 26.02C137.015 26.724 136.128 27.274 135.101 27.67C134.089 28.066 132.982 28.264 131.779 28.264ZM131.757 25.228C132.447 25.228 133.077 25.1107 133.649 24.876C134.236 24.6413 134.749 24.304 135.189 23.864C135.629 23.424 135.967 22.9033 136.201 22.302C136.451 21.7007 136.575 21.0333 136.575 20.3C136.575 19.5667 136.451 18.8993 136.201 18.298C135.967 17.6967 135.629 17.176 135.189 16.736C134.764 16.296 134.258 15.9587 133.671 15.724C133.085 15.4893 132.447 15.372 131.757 15.372C131.068 15.372 130.43 15.4893 129.843 15.724C129.271 15.9587 128.765 16.296 128.325 16.736C127.885 17.176 127.541 17.6967 127.291 18.298C127.057 18.8993 126.939 19.5667 126.939 20.3C126.939 21.0187 127.057 21.686 127.291 22.302C127.541 22.9033 127.878 23.424 128.303 23.864C128.743 24.304 129.257 24.6413 129.843 24.876C130.43 25.1107 131.068 25.228 131.757 25.228ZM144.182 28V12.6H147.746V25.096H155.468V28H144.182ZM162.346 28L155.702 12.6H159.552L165.36 26.24H163.094L168.99 12.6H172.532L165.866 28H162.346Z" fill="white"/>
<path d="M53.2312 43V36H55.9612C56.5745 36 57.0978 36.0967 57.5312 36.29C57.9645 36.4833 58.2978 36.7633 58.5312 37.13C58.7645 37.4967 58.8812 37.9333 58.8812 38.44C58.8812 38.9467 58.7645 39.3833 58.5312 39.75C58.2978 40.11 57.9645 40.39 57.5312 40.59C57.0978 40.7833 56.5745 40.88 55.9612 40.88H53.7812L54.2312 40.41V43H53.2312ZM54.2312 40.51L53.7812 40.01H55.9312C56.5712 40.01 57.0545 39.8733 57.3812 39.6C57.7145 39.3267 57.8812 38.94 57.8812 38.44C57.8812 37.94 57.7145 37.5533 57.3812 37.28C57.0545 37.0067 56.5712 36.87 55.9312 36.87H53.7812L54.2312 36.37V40.51ZM62.3503 43V36H65.0803C65.6936 36 66.217 36.0967 66.6503 36.29C67.0836 36.4833 67.417 36.7633 67.6503 37.13C67.8836 37.4967 68.0003 37.9333 68.0003 38.44C68.0003 38.9467 67.8836 39.3833 67.6503 39.75C67.417 40.11 67.0836 40.3867 66.6503 40.58C66.217 40.7733 65.6936 40.87 65.0803 40.87H62.9003L63.3503 40.41V43H62.3503ZM67.0303 43L65.2503 40.46H66.3203L68.1203 43H67.0303ZM63.3503 40.51L62.9003 40.02H65.0503C65.6903 40.02 66.1736 39.8833 66.5003 39.61C66.8336 39.33 67.0003 38.94 67.0003 38.44C67.0003 37.94 66.8336 37.5533 66.5003 37.28C66.1736 37.0067 65.6903 36.87 65.0503 36.87H62.9003L63.3503 36.37V40.51ZM71.6159 43V36H72.6159V43H71.6159ZM78.6633 43L75.5833 36H76.6633L79.4933 42.46H78.8733L81.7233 36H82.7233L79.6533 43H78.6633ZM84.3313 43L87.5013 36H88.4913L91.6713 43H90.6213L87.7913 36.56H88.1913L85.3613 43H84.3313ZM85.6813 41.25L85.9513 40.45H89.8913L90.1813 41.25H85.6813ZM95.754 43V36.87H93.354V36H99.144V36.87H96.744V43H95.754ZM103.143 39.02H106.743V39.87H103.143V39.02ZM103.233 42.13H107.313V43H102.233V36H107.173V36.87H103.233V42.13ZM117.658 43.08C117.125 43.08 116.615 43 116.128 42.84C115.641 42.6733 115.258 42.46 114.978 42.2L115.348 41.42C115.615 41.6533 115.955 41.8467 116.368 42C116.781 42.1533 117.211 42.23 117.658 42.23C118.065 42.23 118.395 42.1833 118.648 42.09C118.901 41.9967 119.088 41.87 119.208 41.71C119.328 41.5433 119.388 41.3567 119.388 41.15C119.388 40.91 119.308 40.7167 119.148 40.57C118.995 40.4233 118.791 40.3067 118.538 40.22C118.291 40.1267 118.018 40.0467 117.718 39.98C117.418 39.9133 117.115 39.8367 116.808 39.75C116.508 39.6567 116.231 39.54 115.978 39.4C115.731 39.26 115.531 39.0733 115.378 38.84C115.225 38.6 115.148 38.2933 115.148 37.92C115.148 37.56 115.241 37.23 115.428 36.93C115.621 36.6233 115.915 36.38 116.308 36.2C116.708 36.0133 117.215 35.92 117.828 35.92C118.235 35.92 118.638 35.9733 119.038 36.08C119.438 36.1867 119.785 36.34 120.078 36.54L119.748 37.34C119.448 37.14 119.131 36.9967 118.798 36.91C118.465 36.8167 118.141 36.77 117.828 36.77C117.435 36.77 117.111 36.82 116.858 36.92C116.605 37.02 116.418 37.1533 116.298 37.32C116.185 37.4867 116.128 37.6733 116.128 37.88C116.128 38.1267 116.205 38.3233 116.358 38.47C116.518 38.6167 116.721 38.7333 116.968 38.82C117.221 38.9067 117.498 38.9867 117.798 39.06C118.098 39.1267 118.398 39.2033 118.698 39.29C119.005 39.3767 119.281 39.49 119.528 39.63C119.781 39.77 119.985 39.9567 120.138 40.19C120.291 40.4233 120.368 40.7233 120.368 41.09C120.368 41.4433 120.271 41.7733 120.078 42.08C119.885 42.38 119.585 42.6233 119.178 42.81C118.778 42.99 118.271 43.08 117.658 43.08ZM126.959 43.08C126.425 43.08 125.932 42.9933 125.479 42.82C125.032 42.64 124.642 42.39 124.309 42.07C123.982 41.7433 123.725 41.3633 123.539 40.93C123.352 40.4967 123.259 40.02 123.259 39.5C123.259 38.98 123.352 38.5033 123.539 38.07C123.725 37.6367 123.985 37.26 124.319 36.94C124.652 36.6133 125.042 36.3633 125.489 36.19C125.942 36.01 126.435 35.92 126.969 35.92C127.509 35.92 128.005 36.0133 128.459 36.2C128.919 36.38 129.309 36.65 129.629 37.01L128.979 37.64C128.712 37.36 128.412 37.1533 128.079 37.02C127.745 36.88 127.389 36.81 127.009 36.81C126.615 36.81 126.249 36.8767 125.909 37.01C125.575 37.1433 125.285 37.33 125.039 37.57C124.792 37.81 124.599 38.0967 124.459 38.43C124.325 38.7567 124.259 39.1133 124.259 39.5C124.259 39.8867 124.325 40.2467 124.459 40.58C124.599 40.9067 124.792 41.19 125.039 41.43C125.285 41.67 125.575 41.8567 125.909 41.99C126.249 42.1233 126.615 42.19 127.009 42.19C127.389 42.19 127.745 42.1233 128.079 41.99C128.412 41.85 128.712 41.6367 128.979 41.35L129.629 41.98C129.309 42.34 128.919 42.6133 128.459 42.8C128.005 42.9867 127.505 43.08 126.959 43.08ZM138.075 36H139.075V43H138.075V36ZM134.055 43H133.055V36H134.055V43ZM138.165 39.88H133.955V39.01H138.165V39.88ZM146.331 43.08C145.797 43.08 145.301 42.99 144.841 42.81C144.387 42.63 143.994 42.38 143.661 42.06C143.327 41.7333 143.067 41.3533 142.881 40.92C142.694 40.4867 142.601 40.0133 142.601 39.5C142.601 38.9867 142.694 38.5133 142.881 38.08C143.067 37.6467 143.327 37.27 143.661 36.95C143.994 36.6233 144.387 36.37 144.841 36.19C145.294 36.01 145.791 35.92 146.331 35.92C146.864 35.92 147.354 36.01 147.801 36.19C148.254 36.3633 148.647 36.6133 148.981 36.94C149.321 37.26 149.581 37.6367 149.761 38.07C149.947 38.5033 150.041 38.98 150.041 39.5C150.041 40.02 149.947 40.4967 149.761 40.93C149.581 41.3633 149.321 41.7433 148.981 42.07C148.647 42.39 148.254 42.64 147.801 42.82C147.354 42.9933 146.864 43.08 146.331 43.08ZM146.331 42.19C146.717 42.19 147.074 42.1233 147.401 41.99C147.734 41.8567 148.021 41.67 148.261 41.43C148.507 41.1833 148.697 40.8967 148.831 40.57C148.971 40.2433 149.041 39.8867 149.041 39.5C149.041 39.1133 148.971 38.7567 148.831 38.43C148.697 38.1033 148.507 37.82 148.261 37.58C148.021 37.3333 147.734 37.1433 147.401 37.01C147.074 36.8767 146.717 36.81 146.331 36.81C145.937 36.81 145.574 36.8767 145.241 37.01C144.914 37.1433 144.627 37.3333 144.381 37.58C144.134 37.82 143.941 38.1033 143.801 38.43C143.667 38.7567 143.601 39.1133 143.601 39.5C143.601 39.8867 143.667 40.2433 143.801 40.57C143.941 40.8967 144.134 41.1833 144.381 41.43C144.627 41.67 144.914 41.8567 145.241 41.99C145.574 42.1233 145.937 42.19 146.331 42.19ZM156.729 43.08C156.196 43.08 155.699 42.99 155.239 42.81C154.786 42.63 154.392 42.38 154.059 42.06C153.726 41.7333 153.466 41.3533 153.279 40.92C153.092 40.4867 152.999 40.0133 152.999 39.5C152.999 38.9867 153.092 38.5133 153.279 38.08C153.466 37.6467 153.726 37.27 154.059 36.95C154.392 36.6233 154.786 36.37 155.239 36.19C155.692 36.01 156.189 35.92 156.729 35.92C157.262 35.92 157.752 36.01 158.199 36.19C158.652 36.3633 159.046 36.6133 159.379 36.94C159.719 37.26 159.979 37.6367 160.159 38.07C160.346 38.5033 160.439 38.98 160.439 39.5C160.439 40.02 160.346 40.4967 160.159 40.93C159.979 41.3633 159.719 41.7433 159.379 42.07C159.046 42.39 158.652 42.64 158.199 42.82C157.752 42.9933 157.262 43.08 156.729 43.08ZM156.729 42.19C157.116 42.19 157.472 42.1233 157.799 41.99C158.132 41.8567 158.419 41.67 158.659 41.43C158.906 41.1833 159.096 40.8967 159.229 40.57C159.369 40.2433 159.439 39.8867 159.439 39.5C159.439 39.1133 159.369 38.7567 159.229 38.43C159.096 38.1033 158.906 37.82 158.659 37.58C158.419 37.3333 158.132 37.1433 157.799 37.01C157.472 36.8767 157.116 36.81 156.729 36.81C156.336 36.81 155.972 36.8767 155.639 37.01C155.312 37.1433 155.026 37.3333 154.779 37.58C154.532 37.82 154.339 38.1033 154.199 38.43C154.066 38.7567 153.999 39.1133 153.999 39.5C153.999 39.8867 154.066 40.2433 154.199 40.57C154.339 40.8967 154.532 41.1833 154.779 41.43C155.026 41.67 155.312 41.8567 155.639 41.99C155.972 42.1233 156.336 42.19 156.729 42.19ZM163.967 43V36H164.967V42.13H168.757V43H163.967Z" fill="white"/>
<path d="M53.2312 43V36H55.9612C56.5745 36 57.0978 36.0967 57.5312 36.29C57.9645 36.4833 58.2978 36.7633 58.5312 37.13C58.7645 37.4967 58.8812 37.9333 58.8812 38.44C58.8812 38.9467 58.7645 39.3833 58.5312 39.75C58.2978 40.11 57.9645 40.39 57.5312 40.59C57.0978 40.7833 56.5745 40.88 55.9612 40.88H53.7812L54.2312 40.41V43H53.2312ZM54.2312 40.51L53.7812 40.01H55.9312C56.5712 40.01 57.0545 39.8733 57.3812 39.6C57.7145 39.3267 57.8812 38.94 57.8812 38.44C57.8812 37.94 57.7145 37.5533 57.3812 37.28C57.0545 37.0067 56.5712 36.87 55.9312 36.87H53.7812L54.2312 36.37V40.51ZM62.3503 43V36H65.0803C65.6936 36 66.217 36.0967 66.6503 36.29C67.0836 36.4833 67.417 36.7633 67.6503 37.13C67.8836 37.4967 68.0003 37.9333 68.0003 38.44C68.0003 38.9467 67.8836 39.3833 67.6503 39.75C67.417 40.11 67.0836 40.3867 66.6503 40.58C66.217 40.7733 65.6936 40.87 65.0803 40.87H62.9003L63.3503 40.41V43H62.3503ZM67.0303 43L65.2503 40.46H66.3203L68.1203 43H67.0303ZM63.3503 40.51L62.9003 40.02H65.0503C65.6903 40.02 66.1736 39.8833 66.5003 39.61C66.8336 39.33 67.0003 38.94 67.0003 38.44C67.0003 37.94 66.8336 37.5533 66.5003 37.28C66.1736 37.0067 65.6903 36.87 65.0503 36.87H62.9003L63.3503 36.37V40.51ZM71.6159 43V36H72.6159V43H71.6159ZM78.6633 43L75.5833 36H76.6633L79.4933 42.46H78.8733L81.7233 36H82.7233L79.6533 43H78.6633ZM84.3313 43L87.5013 36H88.4913L91.6713 43H90.6213L87.7913 36.56H88.1913L85.3613 43H84.3313ZM85.6813 41.25L85.9513 40.45H89.8913L90.1813 41.25H85.6813ZM95.754 43V36.87H93.354V36H99.144V36.87H96.744V43H95.754ZM103.143 39.02H106.743V39.87H103.143V39.02ZM103.233 42.13H107.313V43H102.233V36H107.173V36.87H103.233V42.13ZM117.658 43.08C117.125 43.08 116.615 43 116.128 42.84C115.641 42.6733 115.258 42.46 114.978 42.2L115.348 41.42C115.615 41.6533 115.955 41.8467 116.368 42C116.781 42.1533 117.211 42.23 117.658 42.23C118.065 42.23 118.395 42.1833 118.648 42.09C118.901 41.9967 119.088 41.87 119.208 41.71C119.328 41.5433 119.388 41.3567 119.388 41.15C119.388 40.91 119.308 40.7167 119.148 40.57C118.995 40.4233 118.791 40.3067 118.538 40.22C118.291 40.1267 118.018 40.0467 117.718 39.98C117.418 39.9133 117.115 39.8367 116.808 39.75C116.508 39.6567 116.231 39.54 115.978 39.4C115.731 39.26 115.531 39.0733 115.378 38.84C115.225 38.6 115.148 38.2933 115.148 37.92C115.148 37.56 115.241 37.23 115.428 36.93C115.621 36.6233 115.915 36.38 116.308 36.2C116.708 36.0133 117.215 35.92 117.828 35.92C118.235 35.92 118.638 35.9733 119.038 36.08C119.438 36.1867 119.785 36.34 120.078 36.54L119.748 37.34C119.448 37.14 119.131 36.9967 118.798 36.91C118.465 36.8167 118.141 36.77 117.828 36.77C117.435 36.77 117.111 36.82 116.858 36.92C116.605 37.02 116.418 37.1533 116.298 37.32C116.185 37.4867 116.128 37.6733 116.128 37.88C116.128 38.1267 116.205 38.3233 116.358 38.47C116.518 38.6167 116.721 38.7333 116.968 38.82C117.221 38.9067 117.498 38.9867 117.798 39.06C118.098 39.1267 118.398 39.2033 118.698 39.29C119.005 39.3767 119.281 39.49 119.528 39.63C119.781 39.77 119.985 39.9567 120.138 40.19C120.291 40.4233 120.368 40.7233 120.368 41.09C120.368 41.4433 120.271 41.7733 120.078 42.08C119.885 42.38 119.585 42.6233 119.178 42.81C118.778 42.99 118.271 43.08 117.658 43.08ZM126.959 43.08C126.425 43.08 125.932 42.9933 125.479 42.82C125.032 42.64 124.642 42.39 124.309 42.07C123.982 41.7433 123.725 41.3633 123.539 40.93C123.352 40.4967 123.259 40.02 123.259 39.5C123.259 38.98 123.352 38.5033 123.539 38.07C123.725 37.6367 123.985 37.26 124.319 36.94C124.652 36.6133 125.042 36.3633 125.489 36.19C125.942 36.01 126.435 35.92 126.969 35.92C127.509 35.92 128.005 36.0133 128.459 36.2C128.919 36.38 129.309 36.65 129.629 37.01L128.979 37.64C128.712 37.36 128.412 37.1533 128.079 37.02C127.745 36.88 127.389 36.81 127.009 36.81C126.615 36.81 126.249 36.8767 125.909 37.01C125.575 37.1433 125.285 37.33 125.039 37.57C124.792 37.81 124.599 38.0967 124.459 38.43C124.325 38.7567 124.259 39.1133 124.259 39.5C124.259 39.8867 124.325 40.2467 124.459 40.58C124.599 40.9067 124.792 41.19 125.039 41.43C125.285 41.67 125.575 41.8567 125.909 41.99C126.249 42.1233 126.615 42.19 127.009 42.19C127.389 42.19 127.745 42.1233 128.079 41.99C128.412 41.85 128.712 41.6367 128.979 41.35L129.629 41.98C129.309 42.34 128.919 42.6133 128.459 42.8C128.005 42.9867 127.505 43.08 126.959 43.08ZM138.075 36H139.075V43H138.075V36ZM134.055 43H133.055V36H134.055V43ZM138.165 39.88H133.955V39.01H138.165V39.88ZM146.331 43.08C145.797 43.08 145.301 42.99 144.841 42.81C144.387 42.63 143.994 42.38 143.661 42.06C143.327 41.7333 143.067 41.3533 142.881 40.92C142.694 40.4867 142.601 40.0133 142.601 39.5C142.601 38.9867 142.694 38.5133 142.881 38.08C143.067 37.6467 143.327 37.27 143.661 36.95C143.994 36.6233 144.387 36.37 144.841 36.19C145.294 36.01 145.791 35.92 146.331 35.92C146.864 35.92 147.354 36.01 147.801 36.19C148.254 36.3633 148.647 36.6133 148.981 36.94C149.321 37.26 149.581 37.6367 149.761 38.07C149.947 38.5033 150.041 38.98 150.041 39.5C150.041 40.02 149.947 40.4967 149.761 40.93C149.581 41.3633 149.321 41.7433 148.981 42.07C148.647 42.39 148.254 42.64 147.801 42.82C147.354 42.9933 146.864 43.08 146.331 43.08ZM146.331 42.19C146.717 42.19 147.074 42.1233 147.401 41.99C147.734 41.8567 148.021 41.67 148.261 41.43C148.507 41.1833 148.697 40.8967 148.831 40.57C148.971 40.2433 149.041 39.8867 149.041 39.5C149.041 39.1133 148.971 38.7567 148.831 38.43C148.697 38.1033 148.507 37.82 148.261 37.58C148.021 37.3333 147.734 37.1433 147.401 37.01C147.074 36.8767 146.717 36.81 146.331 36.81C145.937 36.81 145.574 36.8767 145.241 37.01C144.914 37.1433 144.627 37.3333 144.381 37.58C144.134 37.82 143.941 38.1033 143.801 38.43C143.667 38.7567 143.601 39.1133 143.601 39.5C143.601 39.8867 143.667 40.2433 143.801 40.57C143.941 40.8967 144.134 41.1833 144.381 41.43C144.627 41.67 144.914 41.8567 145.241 41.99C145.574 42.1233 145.937 42.19 146.331 42.19ZM156.729 43.08C156.196 43.08 155.699 42.99 155.239 42.81C154.786 42.63 154.392 42.38 154.059 42.06C153.726 41.7333 153.466 41.3533 153.279 40.92C153.092 40.4867 152.999 40.0133 152.999 39.5C152.999 38.9867 153.092 38.5133 153.279 38.08C153.466 37.6467 153.726 37.27 154.059 36.95C154.392 36.6233 154.786 36.37 155.239 36.19C155.692 36.01 156.189 35.92 156.729 35.92C157.262 35.92 157.752 36.01 158.199 36.19C158.652 36.3633 159.046 36.6133 159.379 36.94C159.719 37.26 159.979 37.6367 160.159 38.07C160.346 38.5033 160.439 38.98 160.439 39.5C160.439 40.02 160.346 40.4967 160.159 40.93C159.979 41.3633 159.719 41.7433 159.379 42.07C159.046 42.39 158.652 42.64 158.199 42.82C157.752 42.9933 157.262 43.08 156.729 43.08ZM156.729 42.19C157.116 42.19 157.472 42.1233 157.799 41.99C158.132 41.8567 158.419 41.67 158.659 41.43C158.906 41.1833 159.096 40.8967 159.229 40.57C159.369 40.2433 159.439 39.8867 159.439 39.5C159.439 39.1133 159.369 38.7567 159.229 38.43C159.096 38.1033 158.906 37.82 158.659 37.58C158.419 37.3333 158.132 37.1433 157.799 37.01C157.472 36.8767 157.116 36.81 156.729 36.81C156.336 36.81 155.972 36.8767 155.639 37.01C155.312 37.1433 155.026 37.3333 154.779 37.58C154.532 37.82 154.339 38.1033 154.199 38.43C154.066 38.7567 153.999 39.1133 153.999 39.5C153.999 39.8867 154.066 40.2433 154.199 40.57C154.339 40.8967 154.532 41.1833 154.779 41.43C155.026 41.67 155.312 41.8567 155.639 41.99C155.972 42.1233 156.336 42.19 156.729 42.19ZM163.967 43V36H164.967V42.13H168.757V43H163.967Z" fill="white"/>
<path fill-rule="evenodd" clip-rule="evenodd" d="M41.5531 27.8217C38.9357 39.2381 32.3805 47.5452 22.6288 51.9076L21.4011 52.4413L20.1967 51.9076C10.445 47.5452 3.8898 39.2381 1.2492 27.8217C-0.673342 19.3986 0.183695 12.275 0.230021 11.9965L0.577469 9.28164L3.33389 9.44407C3.35705 9.44407 3.49603 9.44407 3.72766 9.44407C6.02081 9.44407 13.85 8.95678 19.1312 2.71488L21.4011 0L23.6943 2.71488C28.9755 8.95678 36.8046 9.44407 39.0746 9.44407C39.3063 9.44407 39.4453 9.44407 39.4916 9.44407L42.248 9.30484L42.5954 11.9965C42.6186 12.275 43.4988 19.3986 41.5531 27.8217ZM40.9972 12.1822L40.835 10.9523L39.5842 11.0219C39.5611 11.0219 39.3758 11.0452 39.0746 11.0452C36.6193 11.0452 28.1648 10.5115 22.4435 3.71266L21.4011 2.50604L20.382 3.71266C14.6375 10.5115 6.18295 11.0452 3.72766 11.0452C3.42654 11.0452 3.2644 11.0219 3.24123 11.0219L1.99042 10.9523L1.82828 12.1822C1.78195 12.4838 0.948079 19.329 2.8243 27.4737C5.34908 38.3796 11.58 46.3154 20.8452 50.4457L21.4011 50.701L21.9571 50.4457C31.2455 46.3154 37.4764 38.3796 39.978 27.4737C41.8542 19.329 41.0203 12.4838 40.9972 12.1822Z" fill="white"/>
<path d="M21.401 49.2387C43.1049 39.5858 39.6536 12.3442 39.6536 12.3442C39.6536 12.3442 28.5353 13.0171 21.401 4.5708C14.29 13.0171 3.17164 12.3442 3.17164 12.3442C3.17164 12.3442 -0.302835 39.5858 21.401 49.2387Z" fill="white"/>
<mask id="mask0_2020_52" style="mask-type:alpha" maskUnits="userSpaceOnUse" x="2" y="4" width="38" height="46">
<path d="M21.401 49.2387C43.1049 39.5858 39.6536 12.3442 39.6536 12.3442C39.6536 12.3442 28.5353 13.0171 21.401 4.5708C14.29 13.0171 3.17164 12.3442 3.17164 12.3442C3.17164 12.3442 -0.302838 39.5858 21.401 49.2387Z" fill="white"/>
</mask>
<g mask="url(#mask0_2020_52)">
<path d="M11 46H32V48H11V46Z" fill="#011F5B"/>
<rect x="11" y="43" width="21" height="2" fill="#990000"/>
<rect width="21" height="2" transform="matrix(-0.231806 0.972762 0.972762 0.231806 6.86792 9)" fill="#990000"/>
<rect x="35.9455" y="9" width="21" height="2" transform="rotate(76.5966 35.9455 9)" fill="#990000"/>
</g>
<path d="M11.6188 13.8203L12.0611 14.758L13.04 14.9061L12.3341 15.6267L12.4941 16.6532L11.6188 16.1696L10.7435 16.6532L10.9129 15.6267L10.207 14.9061L11.1858 14.758L11.6188 13.8203Z" fill="#990000"/>
<path d="M31.1574 13.8203L31.5998 14.758L32.5786 14.9061L31.8727 15.6267L32.0327 16.6532L31.1574 16.1696L30.2821 16.6532L30.4515 15.6267L29.7457 14.9061L30.7245 14.758L31.1574 13.8203Z" fill="#990000"/>
<path d="M15.6753 17.3614V13.5653L15.8566 13.7579H14.7404V13.3953H16.0832V17.3614H15.6753Z" fill="#011F5B"/>
<path d="M18.6064 13.3613C18.9577 13.3613 19.2542 13.4407 19.4959 13.5993C19.7377 13.7542 19.9209 13.9789 20.0455 14.2735C20.1702 14.5682 20.2325 14.9251 20.2325 15.3444C20.2325 15.7901 20.1551 16.1659 20.0002 16.4719C19.8491 16.7778 19.6376 17.0083 19.3656 17.1631C19.0937 17.318 18.7783 17.3954 18.4194 17.3954C18.2419 17.3954 18.0719 17.3784 17.9095 17.3444C17.7509 17.3104 17.6073 17.2557 17.4789 17.1801L17.6432 16.8515C17.7452 16.9195 17.8623 16.9686 17.9945 16.9988C18.1305 17.0252 18.2702 17.0385 18.4138 17.0385C18.8406 17.0385 19.1805 16.9025 19.4336 16.6305C19.6905 16.3586 19.8189 15.9525 19.8189 15.4124C19.8189 15.3255 19.8132 15.2216 19.8019 15.1007C19.7943 14.9799 19.7736 14.859 19.7396 14.7381L19.8812 14.8458C19.8434 15.0422 19.7622 15.2103 19.6376 15.35C19.5167 15.486 19.3656 15.5899 19.1843 15.6617C19.0068 15.7334 18.8085 15.7693 18.5894 15.7693C18.3288 15.7693 18.0965 15.7202 17.8925 15.622C17.6923 15.5238 17.5356 15.3859 17.4222 15.2084C17.3089 15.0309 17.2523 14.8212 17.2523 14.5795C17.2523 14.3302 17.3108 14.1149 17.4279 13.9336C17.545 13.7523 17.7055 13.6125 17.9095 13.5143C18.1172 13.4123 18.3495 13.3613 18.6064 13.3613ZM18.6234 13.7069C18.4345 13.7069 18.2664 13.7428 18.1191 13.8146C17.9756 13.8826 17.8623 13.9808 17.7792 14.1092C17.6961 14.2376 17.6545 14.3906 17.6545 14.5682C17.6545 14.8288 17.7433 15.0365 17.9208 15.1914C18.1021 15.3463 18.3458 15.4237 18.6517 15.4237C18.8557 15.4237 19.0332 15.3859 19.1843 15.3104C19.3392 15.2348 19.4582 15.131 19.5413 14.9988C19.6281 14.8666 19.6716 14.7192 19.6716 14.5568C19.6716 14.4095 19.6319 14.2716 19.5526 14.1432C19.4733 14.0148 19.3562 13.9109 19.2013 13.8316C19.0464 13.7485 18.8538 13.7069 18.6234 13.7069Z" fill="#011F5B"/>
<path d="M22.399 13.3613C22.7503 13.3613 23.0468 13.4407 23.2885 13.5993C23.5303 13.7542 23.7135 13.9789 23.8381 14.2735C23.9628 14.5682 24.0251 14.9251 24.0251 15.3444C24.0251 15.7901 23.9476 16.1659 23.7928 16.4719C23.6417 16.7778 23.4302 17.0083 23.1582 17.1631C22.8862 17.318 22.5708 17.3954 22.212 17.3954C22.0345 17.3954 21.8645 17.3784 21.7021 17.3444C21.5434 17.3104 21.3999 17.2557 21.2715 17.1801L21.4358 16.8515C21.5378 16.9195 21.6549 16.9686 21.7871 16.9988C21.923 17.0252 22.0628 17.0385 22.2063 17.0385C22.6332 17.0385 22.9731 16.9025 23.2262 16.6305C23.483 16.3586 23.6115 15.9525 23.6115 15.4124C23.6115 15.3255 23.6058 15.2216 23.5945 15.1007C23.5869 14.9799 23.5661 14.859 23.5322 14.7381L23.6738 14.8458C23.636 15.0422 23.5548 15.2103 23.4302 15.35C23.3093 15.486 23.1582 15.5899 22.9769 15.6617C22.7994 15.7334 22.6011 15.7693 22.382 15.7693C22.1214 15.7693 21.8891 15.7202 21.6851 15.622C21.4849 15.5238 21.3281 15.3859 21.2148 15.2084C21.1015 15.0309 21.0448 14.8212 21.0448 14.5795C21.0448 14.3302 21.1034 14.1149 21.2205 13.9336C21.3376 13.7523 21.4981 13.6125 21.7021 13.5143C21.9098 13.4123 22.1421 13.3613 22.399 13.3613ZM22.416 13.7069C22.2271 13.7069 22.059 13.7428 21.9117 13.8146C21.7682 13.8826 21.6549 13.9808 21.5718 14.1092C21.4887 14.2376 21.4471 14.3906 21.4471 14.5682C21.4471 14.8288 21.5359 15.0365 21.7134 15.1914C21.8947 15.3463 22.1383 15.4237 22.4443 15.4237C22.6483 15.4237 22.8258 15.3859 22.9769 15.3104C23.1318 15.2348 23.2507 15.131 23.3338 14.9988C23.4207 14.8666 23.4642 14.7192 23.4642 14.5568C23.4642 14.4095 23.4245 14.2716 23.3452 14.1432C23.2659 14.0148 23.1488 13.9109 22.9939 13.8316C22.839 13.7485 22.6464 13.7069 22.416 13.7069Z" fill="#011F5B"/>
<path d="M26.0852 17.3954C25.7982 17.3954 25.5262 17.3501 25.2694 17.2594C25.0163 17.165 24.8123 17.0404 24.6574 16.8855L24.8557 16.5625C24.9842 16.6947 25.156 16.8043 25.3713 16.8912C25.5904 16.978 25.8284 17.0215 26.0852 17.0215C26.4139 17.0215 26.665 16.9497 26.8388 16.8062C27.0163 16.6626 27.1051 16.47 27.1051 16.2283C27.1051 15.9865 27.0182 15.7939 26.8445 15.6503C26.6745 15.5068 26.4044 15.435 26.0342 15.435H25.751V15.1347L26.9748 13.5993L27.0314 13.7579H24.8218V13.3953H27.3714V13.6843L26.1476 15.2197L25.9493 15.0894H26.1022C26.5782 15.0894 26.9332 15.1952 27.1674 15.4067C27.4054 15.6182 27.5244 15.8902 27.5244 16.2226C27.5244 16.4454 27.4715 16.6456 27.3657 16.8232C27.26 17.0007 27.0994 17.1405 26.8841 17.2424C26.6726 17.3444 26.4063 17.3954 26.0852 17.3954Z" fill="#011F5B"/>
<path d="M19.1039 28.8041H26.5179V31.5761H19.1039V28.8041ZM19.3679 35.1401H27.7499V38.0001H15.8259V22.6001H27.4639V25.4601H19.3679V35.1401Z" fill="#011F5B"/>
</svg>
