<svg width="25" height="25" viewBox="0 0 25 25" fill="none" xmlns="http://www.w3.org/2000/svg">
<path d="M9.7674 0.0651665C8.96968 0.187485 8.19854 0.719301 7.78372 1.42662C7.45931 1.97439 7.42209 2.17648 7.3955 3.42625L7.37422 4.58562H4.37477C1.48169 4.58562 1.37001 4.59093 1.08814 4.6973C0.71587 4.83557 0.348916 5.18657 0.16278 5.58543L0.0191893 5.88857L0.00323478 8.36152C-0.00740157 9.95165 0.00855295 10.994 0.0457802 11.2759C0.10428 11.7226 0.290416 12.3289 0.476552 12.6692C0.577598 12.8501 0.577598 13.0521 0.593552 17.8013L0.604188 22.7472L0.737143 23.0929C0.912642 23.5449 1.21578 23.9969 1.52423 24.2682C1.8965 24.6032 2.54 24.8904 3.05055 24.9542C3.33773 24.9914 6.51268 25.0074 12.7828 24.9968L22.0896 24.9808L22.43 24.8585C23.2968 24.5447 23.9084 23.9544 24.2435 23.0929L24.3764 22.7472L24.3871 17.8013C24.403 13.0521 24.403 12.8501 24.5041 12.6692C24.7008 12.3076 24.8817 11.7013 24.9402 11.2174C24.9721 10.9142 24.988 9.80806 24.9774 8.30834L24.9614 5.88857L24.8178 5.58543C24.6317 5.18657 24.2647 4.83557 23.8925 4.6973C23.6106 4.59093 23.4989 4.58562 20.6058 4.58562H17.6064L17.5851 3.42625C17.5638 2.3573 17.5532 2.24562 17.4309 1.92653C17.1012 1.05435 16.5108 0.479984 15.6014 0.155575C15.293 0.0438938 15.2026 0.0385761 12.6764 0.0332565C11.2459 0.0279388 9.93227 0.0438938 9.7674 0.0651665ZM15.3834 1.29366C15.7557 1.43194 16.1226 1.78294 16.3088 2.1818C16.447 2.47962 16.4523 2.51153 16.4523 3.52198V4.55902H12.4903H8.52827V3.52198C8.52827 2.64448 8.54422 2.45303 8.62399 2.27221C8.77822 1.93184 8.98563 1.66062 9.23027 1.49575C9.67699 1.1873 9.63445 1.1873 12.4744 1.1873C14.9952 1.18198 15.1015 1.1873 15.3834 1.29366ZM23.5521 5.79284C23.6372 5.8407 23.7276 5.93643 23.7595 6.00557C23.7967 6.09066 23.818 6.95752 23.818 8.66997C23.818 11.4727 23.8127 11.5418 23.483 12.1587C23.2649 12.5735 22.765 13.0734 22.3502 13.2915C21.6801 13.6478 22.3183 13.6265 12.5009 13.6265C2.66764 13.6265 3.30582 13.6478 2.62509 13.2915C2.2156 13.0734 1.71569 12.5735 1.49764 12.1587C1.16791 11.5418 1.1626 11.4727 1.1626 8.66997C1.1626 6.97347 1.18387 6.09066 1.2211 6.00557C1.25301 5.93643 1.34341 5.8407 1.41787 5.79284C1.55082 5.71307 2.40173 5.70775 12.4797 5.70243C22.5789 5.70243 23.4138 5.70775 23.5521 5.79284ZM2.03478 14.2594C2.44428 14.4934 3.02396 14.6795 3.51323 14.7433C3.76318 14.7752 5.06614 14.7965 6.518 14.7965H9.08668V15.7059C9.08668 16.6898 9.1239 16.8493 9.38981 16.9716C9.56531 17.0514 15.4153 17.0514 15.5908 16.9716C15.8567 16.8493 15.8939 16.6898 15.8939 15.7112V14.8018L18.7551 14.7806C21.9673 14.7593 21.9141 14.7646 22.7491 14.3551C22.999 14.2328 23.2224 14.1211 23.2437 14.1158C23.2702 14.1051 23.2809 15.9931 23.2756 18.3171L23.2596 22.5345L23.1213 22.8323C22.9458 23.1992 22.648 23.5077 22.297 23.6832L22.0364 23.8108H12.4903H2.94419L2.68359 23.6832C2.33259 23.5077 2.03478 23.1992 1.85928 22.8323L1.721 22.5345L1.70505 18.3171C1.69973 16.0037 1.70505 14.1051 1.72632 14.1051C1.7476 14.1051 1.88587 14.1743 2.03478 14.2594ZM14.7771 15.3549V15.9133H12.4903H10.2035V15.3549V14.7965H12.4903H14.7771V15.3549Z" fill="#990000"/>
</svg>
